<svg width="56" height="57" viewBox="0 0 56 57" fill="none" xmlns="http://www.w3.org/2000/svg">
<rect x="4" y="4.5" width="48" height="48" rx="24" fill="white"/>
<path d="M37.9994 33.4201V36.4201C38.0006 36.6986 37.9435 36.9743 37.832 37.2294C37.7204 37.4846 37.5567 37.7137 37.3515 37.902C37.1463 38.0902 36.904 38.2336 36.6402 38.3228C36.3764 38.412 36.0968 38.4452 35.8194 38.4201C32.7423 38.0857 29.7864 37.0342 27.1894 35.3501C24.7733 33.8148 22.7248 31.7663 21.1894 29.3501C19.4994 26.7413 18.4477 23.7711 18.1194 20.6801C18.0945 20.4036 18.1273 20.1249 18.2159 19.8617C18.3046 19.5986 18.447 19.3568 18.6342 19.1517C18.8214 18.9466 19.0492 18.7828 19.3032 18.6706C19.5572 18.5584 19.8318 18.5004 20.1094 18.5001H23.1094C23.5948 18.4953 24.0652 18.6672 24.4332 18.9836C24.8012 19.3001 25.0415 19.7395 25.1094 20.2201C25.2361 21.1802 25.4709 22.1228 25.8094 23.0301C25.944 23.388 25.9731 23.777 25.8934 24.151C25.8136 24.5249 25.6283 24.8682 25.3594 25.1401L24.0894 26.4101C25.513 28.9136 27.5859 30.9865 30.0894 32.4101L31.3594 31.1401C31.6313 30.8712 31.9746 30.6859 32.3486 30.6062C32.7225 30.5264 33.1115 30.5556 33.4694 30.6901C34.3767 31.0286 35.3194 31.2635 36.2794 31.3901C36.7652 31.4586 37.2088 31.7033 37.526 32.0776C37.8431 32.4519 38.0116 32.9297 37.9994 33.4201Z" stroke="black" stroke-width="2" stroke-linecap="round" stroke-linejoin="round"/>
<rect x="4" y="4.5" width="48" height="48" rx="24" stroke="white" stroke-width="8"/>
</svg>
