<svg width="1440" height="1356" viewBox="0 0 1440 1356" fill="none" xmlns="http://www.w3.org/2000/svg">
<g opacity="0.05">
<path fill-rule="evenodd" clip-rule="evenodd" d="M366.664 320.073C366.513 285.877 306.191 247.424 280.424 227.599C229.476 188.388 176.486 152.178 123.988 115.39C71.4899 78.6023 18.8501 41.914 -31.2103 1.526C-63.7145 -24.6913 -101.907 -54.2194 -123.951 -91.6556C-170.912 -171.434 -22.8481 -159.587 15.5051 -161.332C113.075 -165.79 224.987 -163.756 316.443 -205.3C371.039 -230.102 392.81 -271.696 381.084 -332.318C377.304 -352.033 366.116 -374.721 375.594 -393.927C385.713 -414.44 408.996 -426.278 428.319 -434.216C498.798 -463.135 579.832 -466.486 654.403 -470.116C734.813 -474.105 815.979 -472.938 895.822 -473.247C929.678 -473.377 965.036 -486.211 997.275 -496.642C1039.54 -510.315 1081.3 -525.672 1123.22 -540.521C1215.43 -573.11 1310.45 -607.435 1408.01 -615.712C1469.11 -620.898 1535.88 -613.887 1583.34 -568.782C1607.17 -546.135 1619.65 -512.469 1633.42 -482.561C1650.1 -446.432 1666.12 -409.953 1683.87 -374.391C1741.07 -259.859 1822.72 -147.939 1955.26 -142.315C1975.31 -141.467 1995.01 -144.23 2014.96 -144.748C2027.67 -145.067 2038.98 -141.826 2043.7 -127.795C2055.58 -92.6028 2018.25 -37.047 2002.94 -9.12443C1969.43 51.9961 1931.63 110.374 1896.23 170.268C1872.8 209.878 1832.26 264.008 1831.83 312.135C1831.45 355.016 1885.5 386.01 1914.93 407.131C1942.5 426.906 1992.45 454.58 1995.48 494.808C1996.94 514.314 1984.75 530.479 1972.03 543.024C1949.72 564.963 1924.02 580.441 1903.95 605.471C1871.04 646.537 1843.54 703.04 1848.01 758.377C1851.11 796.721 1871.84 821.831 1898.21 845.834C1909.29 855.926 1918.29 863.067 1918.88 879.451C1919.82 905.469 1910.16 933.003 1902.21 957.126C1873.75 1043.46 1833.32 1126.93 1788.36 1204.88C1765.89 1243.83 1741.61 1282.66 1711.82 1315.89C1692.31 1337.71 1665.99 1363.68 1636.23 1363.65C1601.77 1363.65 1565.31 1350.52 1531.81 1340.71C1469.25 1322.37 1407.44 1301.17 1345.88 1279.42C1203.52 1229.1 1062.5 1174.71 922.809 1116.23C824.417 1074.98 723.937 1033.66 631.433 978.816C613.392 968.045 596.364 955.486 580.578 941.31C563.712 926.421 542.783 919.759 521.561 914.793C389.843 883.969 245.539 907.633 113.273 922.472C79.7009 926.231 46.129 930.011 12.4625 932.644C-16.4795 934.907 -51.1286 941.399 -79.258 931.646C-134.685 912.45 -86.2314 841.696 -65.7461 812.866C6.37742 711.357 99.4303 625.476 185.68 537.799C226.688 496.045 268.008 454.4 306.787 410.282C326.979 387.346 366.797 350.049 366.664 320.073Z" stroke="#FFCA49" stroke-width="3.31375"/>
<path fill-rule="evenodd" clip-rule="evenodd" d="M391.521 314.307C369.414 278.124 330.628 251.38 298.432 226.211C252.101 189.977 204.313 155.757 157.244 120.551C112.738 87.2577 68.1367 53.586 26.9207 15.7776C1.78829 -7.27823 -29.7454 -34.8496 -41.6497 -68.9499C-67.4724 -142.862 71.4463 -131.648 105.741 -133.582C191 -138.367 287.663 -139.463 366.539 -178.378C415.793 -202.68 436.027 -242.98 425.522 -298.93C421.891 -318.288 415.348 -334.815 423.631 -354.073C433.209 -376.361 455.24 -390.256 475.437 -400.065C538.703 -430.796 613.486 -437.325 682.066 -442.757C752.915 -448.369 826.733 -452.327 895.304 -448.22C922.724 -446.585 954.286 -455.865 981.423 -462.982C1023.18 -473.947 1064.51 -486.597 1106.05 -498.359C1190.49 -522.282 1277.12 -545.328 1364.96 -547.949C1428.38 -549.843 1494.5 -539.576 1547.26 -499.894C1600.73 -459.653 1624.46 -397.274 1654.11 -337.975C1705.32 -235.454 1774.48 -110.805 1892.96 -89.1449C1910.93 -85.8555 1928.19 -87.6397 1946.14 -86.8323C1955.37 -86.4236 1965.87 -85.1279 1970.55 -75.5287C1982.7 -50.6089 1949.41 -5.04541 1938.2 14.0432C1907.25 66.7935 1872.44 116.962 1840 168.696C1814.24 209.774 1781.58 255.417 1771.61 304.11C1759.52 363.2 1838.54 405.245 1866.32 446.851C1914.5 518.999 1823.23 560.107 1778.23 594.506C1726.56 633.999 1683.9 706.047 1730.22 767.151C1747.94 790.516 1769.75 804.441 1777.66 834.933C1790.04 882.619 1780.68 937.114 1770.64 984.252C1755.51 1055.11 1731.57 1125.21 1699.02 1189.25C1675.7 1235.11 1637.02 1307 1580.37 1301.61C1542.24 1298.01 1503.47 1284.87 1466.34 1273.24C1410.75 1255.85 1355.85 1236.02 1301.24 1215.43C1175.19 1168.02 1050.53 1115.75 928.322 1058.25C844.935 1019.01 612.332 858.636 594.83 852.915C542.646 835.87 483.313 838.87 429.512 841.512C357.944 845.02 286.736 854.111 215.584 862.534C181.715 866.521 147.676 871.395 113.627 873.359C89.3926 874.755 57.5657 875.951 36.3383 861.089C-5.09517 832.092 41.066 765.745 60.1565 737.676C118.638 651.622 192.617 577.102 261.982 500.907C296.021 463.497 330.581 426.148 361.481 385.738C373.943 369.42 405.184 336.655 391.521 314.307Z" stroke="#FFCA49" stroke-width="3.31375"/>
<path fill-rule="evenodd" clip-rule="evenodd" d="M422.104 295.751C361.731 223.343 278.403 169.491 206.487 109.019C170.391 78.6579 134.069 47.4695 102.937 11.3057C86.7423 -7.49914 66.5202 -31.2794 63.4003 -57.4925C55.0619 -127.617 180.271 -118.134 217.746 -120.797C290.202 -125.961 372.054 -129.88 437.788 -165.665C477.949 -187.541 497.726 -223.445 490.22 -270.637C486.892 -291.575 481.711 -309.363 490.22 -329.923C498.842 -350.751 516.805 -365.448 534.994 -376.466C587.265 -408.153 652.224 -418.283 711.075 -425.831C780.113 -434.622 849.671 -438.055 919.186 -436.101C980.069 -434.416 1040.66 -453.37 1100.11 -465.864C1178.86 -482.405 1259.04 -496.853 1339.62 -494.669C1403.27 -492.934 1467.41 -479.304 1521.82 -443.081C1577.11 -406.189 1610.35 -350.971 1640.32 -291.386C1685.62 -201.31 1742.08 -80.6045 1841.47 -46.3949C1855.93 -41.4096 1869.4 -40.8612 1884.31 -39.9937C1891.55 -39.575 1900.9 -39.4453 1904.49 -31.4787C1913.13 -12.295 1881.19 24.8957 1872.27 37.8577C1843.82 79.2362 1812.97 118.75 1783.8 159.58C1756.57 197.698 1726.92 237.422 1710 282.091C1683.09 353.232 1769.14 394.83 1766.73 462.621C1765.22 504.707 1727.02 534.889 1696.77 555.767C1659.52 581.442 1605.89 598.322 1587.24 645.175C1573.36 680.072 1595.15 700.383 1611.93 726.865C1640.37 771.733 1642.3 832.555 1639.34 884.492C1635.35 954.676 1619.76 1025.9 1593.23 1090.41C1581.2 1119.65 1566.47 1150.07 1544.79 1172.79C1524.47 1194.07 1505.24 1199.53 1478.09 1195.17C1394.97 1181.81 1311.04 1144.57 1231.34 1111.31C1131.19 1069.51 1032.43 1023.36 936.609 971.447C871.273 936.041 804.462 898.581 747.114 849.665C732.167 836.912 716.861 823.053 705.932 806.232C697.669 793.589 694.162 783.15 680.236 775.931C638.96 754.544 581.546 760.137 537.32 762.361C466.604 765.9 396.228 775.323 325.947 783.808C284.936 788.793 207.678 804.477 174.929 766.858C146.662 734.373 180.772 678.986 198.195 650.37C242.27 578.002 298.966 514.488 351.568 449.09C375.675 419.118 400.728 388.917 420.639 355.595C425.725 347.1 433.874 335.843 435.273 325.523C436.843 313.698 429.516 304.674 422.104 295.751Z" stroke="#FFCA49" stroke-width="3.31375"/>
<path fill-rule="evenodd" clip-rule="evenodd" d="M427.294 312.607C371.507 248.586 304.298 195.99 244.408 136.079C217.554 109.217 190.436 81.0383 169.975 48.2692C158.969 30.6474 147.282 8.46543 150.317 -13.4372C159.025 -76.3011 262.004 -70.6234 303.608 -74.3054C365.428 -79.7137 436.447 -85.162 491.109 -119.059C526.917 -141.261 540.343 -174.05 533.658 -216.338C526.482 -261.7 542.527 -294.629 579.044 -319.934C624.827 -351.635 682.619 -364.557 735.777 -373.737C799.822 -384.745 864.679 -389.624 929.556 -388.316C992.652 -387.039 1053.78 -398.195 1116.46 -405.449C1199.57 -415.058 1285.34 -419.798 1367.5 -400.1C1439.04 -382.948 1503.66 -345.149 1552.1 -286.696C1602.7 -225.688 1627.74 -148.824 1668.83 -81.3302C1694.45 -39.2313 1730.18 16.4581 1778.07 32.8227C1794.04 38.2809 1823.14 30.9169 1810.38 57.7688C1803.09 73.1255 1789.45 86.5964 1778.67 99.1492C1761.25 119.435 1743.26 139.163 1725.55 159.169C1687.8 201.817 1647.38 245.373 1619.09 295.873C1583.45 359.456 1636.43 408.39 1629.98 472.86C1626.51 507.555 1603.64 535.245 1579.46 556.998C1563.81 571.088 1546.68 583.292 1529.2 594.677C1510.94 606.571 1489.34 615.632 1473.41 631.008C1450.72 652.891 1460.57 678.795 1464.83 707.084C1472.32 756.798 1473.96 807.298 1469.73 857.438C1464.54 918.895 1452.39 982.109 1426.8 1037.96C1416.84 1059.7 1404.23 1082.75 1385.5 1097.33C1366.77 1111.91 1347.39 1110.91 1325.93 1106.52C1262.26 1093.55 1198.73 1063.36 1138.34 1034.75C1062.75 998.942 988.653 958.919 917.888 913.387C869.042 881.955 820.034 847.999 779.168 805.381C767.283 792.978 755.974 779.697 746.83 764.869C740.552 754.701 737.186 741.579 728.09 733.936C699.629 710.077 642.49 717.202 609.112 718.589C542.499 721.353 476.935 734.494 410.407 737.687C374.098 739.434 317.233 743.824 290.569 711.205C265.493 680.541 288.205 632.246 303.192 602.7C332.646 544.605 372.216 492.847 407.684 438.844C422.264 416.622 438.244 393.373 447.69 367.997C456.086 345.386 441.591 329.022 427.294 312.607Z" stroke="#FFCA49" stroke-width="3.31375"/>
<path fill-rule="evenodd" clip-rule="evenodd" d="M441.014 313.654C396.609 257.317 343.078 207.307 298.352 150.053C272.172 116.524 227.087 60.157 247.334 12.8873C269.545 -39.0556 346.97 -40.4704 391.724 -44.6553C444.991 -49.6374 507.545 -56.4428 553.13 -88.876C567.548 -99.1291 579.83 -112.7 585.036 -130.576C590.61 -149.707 584.516 -166.447 583.722 -185.598C582.06 -225.773 604.791 -258.027 634.873 -280.177C677.388 -311.494 730.551 -326.301 780.766 -336.624C837.656 -348.267 895.491 -354.007 953.443 -353.762C1008.83 -353.563 1063.62 -354.858 1119.06 -356.352C1191.57 -358.345 1265.09 -355.127 1335.42 -334.81C1404.7 -314.782 1467.69 -277.247 1517.16 -222.036C1565.43 -168.16 1598 -102.308 1626.52 -35.2294C1642.71 2.84345 1670.05 59.7385 1708.65 78.9692C1725.82 87.5284 1742.66 86.9406 1724.41 109.2C1701.42 137.229 1670.45 159.718 1643.82 183.692C1605.42 218.287 1566.05 253.56 1533.81 294.692C1513.22 320.958 1504.05 346.446 1505.47 380.453C1506.56 406.36 1511.53 431.998 1509.02 458.004C1503.13 519.044 1457.57 560.903 1417.28 599.883C1391.37 624.952 1367.7 644.074 1354.36 679.735C1338.58 721.883 1331.96 767.738 1321.42 811.5C1309.83 859.557 1296.45 909.547 1271.17 951.875C1248.67 989.559 1221.3 1006.46 1180.33 996.305C1116.44 980.482 1053.46 941.502 996.733 905.442C938.997 868.754 882.254 827.503 834.41 777.074C808.58 749.842 790.95 717.868 768.011 688.613C739.157 651.885 673.883 665.795 635.09 668.904C570.694 674.065 368.067 712.686 386.764 587.597C394.568 535.385 425.302 487.199 447.778 441.125C457.094 422.004 470.576 399.056 472.683 377.145C474.978 353.281 454.363 330.613 441.014 313.654Z" stroke="#FFCA49" stroke-width="3.31375"/>
<path fill-rule="evenodd" clip-rule="evenodd" d="M464.458 318.438C430.525 267.385 389.914 219.154 360.798 164.013C341.909 128.303 323.361 80.5904 347.727 42.8067C375.229 0.16803 435.87 -9.77136 480.428 -15.2046C526.336 -20.7974 581.141 -25.5029 618.663 -57.8333C630.601 -68.1316 640.441 -82.0189 642.273 -98.6477C644.04 -114.599 639.053 -130.549 640.706 -146.789C644.408 -183.257 665.365 -213.305 692.385 -235.097C772.311 -299.569 891.271 -313.905 987.706 -315.59C1035.97 -316.427 1085.65 -312.031 1134.23 -308.88C1197.27 -304.793 1260.41 -296.02 1320.53 -274.875C1448.36 -229.933 1534.03 -130.26 1593.87 -6.23224C1612.71 32.8075 1627.12 75.0474 1656.63 106.421C1671.85 122.621 1668.52 134.255 1652.97 149.03C1628.65 172.118 1598.98 189.764 1571.99 209.035C1533.6 236.44 1494.39 264.255 1460.44 297.084C1437.03 319.714 1420.42 341.517 1415.38 375.452C1411.78 399.648 1412.62 424.302 1410.46 448.647C1406.34 494.894 1392.24 540.793 1367.28 579.155C1347.45 609.561 1323.83 637.196 1299.43 663.545C1267.71 697.85 1240.88 732.702 1216.78 773.417C1184.84 827.311 1139.97 926.725 1064.73 900.416C981.756 871.385 903.982 797.622 850.745 726.152C832.867 702.156 818.191 672.727 794.08 655.031C757.984 628.583 721.359 629.51 678.426 629.62C614.149 629.769 474.28 644.494 472.769 542.887C472.174 502.631 488.682 464.568 496.587 425.847C505.502 382.481 487.634 353.231 464.458 318.438Z" stroke="#FFCA49" stroke-width="3.31375"/>
<path fill-rule="evenodd" clip-rule="evenodd" d="M489.733 322.99C456.169 256.451 380.904 147.115 438.149 73.1244C468.387 34.0223 521.871 19.3279 566.737 10.571C602.843 3.48777 646.386 0.827863 673.667 -29.1986C693.718 -51.2751 684.817 -83.4036 692.499 -111.039C702.034 -145.3 723.919 -173.334 750.812 -194.404C825.963 -253.291 930.455 -271.363 1020.86 -275.208C1114.75 -279.193 1218.2 -260.554 1306.55 -224.699C1416.71 -179.978 1499.25 -95.2987 1556.96 11.9358C1567.61 31.731 1577.29 52.0442 1587.51 72.0784C1594.38 85.5176 1604.57 98.5184 1609.98 112.655C1619 136.226 1608.38 155.493 1591.35 170.855C1566.86 192.971 1536.77 208.712 1508.85 225.309C1470.66 248.023 1431.63 270.329 1396.1 296.978C1372.24 314.91 1347.25 334.227 1338.71 365.339C1332.88 386.559 1331.67 409.034 1331.88 431.011C1332.33 478.133 1329.99 516.239 1309.14 559.396C1274.84 630.248 1222.09 693.957 1166.37 746.966C1122.64 788.569 1053.44 853.195 989.722 825.38C932.553 800.474 899.111 740.859 861.446 692.662C843.133 669.23 822.561 647.831 798.39 631.164C767.915 610.154 739.227 601.337 703.121 597.9C642.351 592.112 550.72 590.608 531.934 513.698C524.999 485.316 528.958 455.917 525.32 427.166C520.567 389.149 506.667 356.553 489.733 322.99Z" stroke="#FFCA49" stroke-width="3.31375"/>
<path fill-rule="evenodd" clip-rule="evenodd" d="M524.633 325.453C500.732 252.647 469.333 160.892 527.06 96.1845C555.022 64.8381 594.353 47.3147 632.419 34.2196C659.682 24.8347 702.97 22.0721 719.684 -6.78098C731.961 -28.0144 733.661 -57.3063 744.766 -80.0556C760.026 -111.332 783.143 -137.094 810.264 -157.26C880.919 -209.81 972.944 -230.116 1056.87 -235.93C1239.22 -248.546 1424.76 -148.064 1522.34 17.2549C1551.43 66.5335 1588.99 118.984 1541.97 169.329C1490.63 224.253 1413.3 249.984 1352.04 289.01C1328.63 303.911 1298.79 321.823 1285.73 348.801C1277.88 365.018 1277.34 385.363 1276.98 403.216C1276.04 448.685 1272.46 489.576 1255.13 532.002C1228.37 597.568 1185.69 658.056 1137.33 707.604C1095.16 750.809 1035.01 801.584 973.765 770.437C926.804 746.5 897.02 695.696 860.531 658.246C819.925 616.537 769.706 588.432 714.557 574.699C660.909 561.374 602.068 552.388 573.795 495.779C564.097 476.361 553.964 451.218 550.328 429.725C544.459 394.288 535.866 359.416 524.633 325.453Z" stroke="#FFCA49" stroke-width="3.31375"/>
<path fill-rule="evenodd" clip-rule="evenodd" d="M563.548 325.967C552.491 252.448 551.262 175.789 602.636 117.846C626.612 90.8136 656.92 71.6088 687.569 54.2089C710.118 41.4057 733.404 30.6068 750.245 9.61721C765.848 -9.81686 777.709 -32.3819 792.773 -52.3245C812.645 -78.7528 836.421 -101.631 863.19 -120.079C930.29 -166.237 1011.91 -187.825 1090.01 -195.313C1127.81 -198.953 1168.81 -200.847 1206.36 -190.926C1242.62 -181.353 1278.48 -166.217 1311.82 -148.568C1382.7 -111.085 1444.13 -56.1934 1488.66 13.2069C1519.2 60.8099 1535.71 107.097 1496.17 155.388C1451.59 209.821 1381.69 239.855 1324.08 275.183C1284.57 299.413 1240.28 323.165 1232.9 374.657C1227.02 415.629 1222.25 454.517 1207.04 493.245C1184.41 550.371 1151.14 602.118 1109.19 645.417C1070.83 684.864 1022.3 718.338 967.431 697.268C923.958 680.546 890.228 643.084 852.246 616.301C809.917 586.387 763.41 569.895 714.437 556.633C670.425 544.667 628.984 526.28 600.538 487.243C594.716 479.266 588.601 470.581 584.112 461.656C578.385 450.269 578.83 438.982 577.705 426.218C574.775 392.535 568.547 359.241 563.548 325.967Z" stroke="#FFCA49" stroke-width="3.31375"/>
<path fill-rule="evenodd" clip-rule="evenodd" d="M606.459 319.957C607.404 250.126 623.321 184.129 666.915 129.708C685.552 106.428 707.808 87.2521 728.316 65.9191C744.828 48.7209 760.433 32.7411 779.42 18.569C824.459 -14.9885 861.064 -58.4135 908.928 -88.2957C972.822 -128.245 1046.01 -150.327 1118.63 -159.156C1154.1 -163.47 1190.73 -164.979 1226.6 -160.105C1257.42 -155.92 1286.93 -141.229 1314.3 -126.198C1367.96 -96.7549 1420.05 -54.9079 1454.89 -1.96496C1531.7 114.757 1380.27 199.62 1302.54 249.317C1266.8 272.178 1212.18 298.654 1197.54 343.937C1187.07 376.286 1180.7 409.184 1167.22 440.535C1131.01 524.728 1057.51 623.753 959.56 610.569C917.647 604.937 879.446 582.056 840.32 566.695C800.031 550.875 758.449 542.056 716.574 532.379C677.438 523.34 646.247 510.476 620.968 475.99C608.887 459.521 609.954 439.806 608.877 419.601C607.12 386.413 606.034 353.036 606.459 319.957Z" stroke="#FFCA49" stroke-width="3.31375"/>
<path fill-rule="evenodd" clip-rule="evenodd" d="M645.53 311.013C661.266 205.609 719.708 90.5367 805.641 29.3232C906.725 -42.6839 1016.23 -103.319 1137.01 -120.751C1193 -128.833 1254.34 -132.81 1307.17 -106.379C1347.38 -86.2769 1394.09 -56.2283 1416.22 -13.9708C1470.36 89.3905 1349.93 171.673 1281.32 219.492C1244.39 245.235 1197.37 270.32 1169.53 307.913C1153.38 329.71 1145.13 358.543 1132.09 382.482C1092.57 455.027 1027.52 513.54 946.481 524.004C909.013 528.838 871.271 522.858 834.087 518.104C796.024 513.241 757.488 510.6 719.661 503.813C689.465 498.391 653.88 489.212 642.759 455.117C628.734 412.152 639.108 354.058 645.53 311.013Z" stroke="#FFCA49" stroke-width="3.31375"/>
<path fill-rule="evenodd" clip-rule="evenodd" d="M683.842 294.08C706.792 194.982 755.39 98.3183 837.087 39.1588C880.412 7.78854 930.704 -13.8664 978.99 -35.262C1033.72 -59.5103 1090.91 -78.3325 1149.31 -87.6687C1222.04 -99.2991 1339.81 -109.783 1377.81 -22.3548C1415.52 64.4245 1320.23 141.229 1263.87 184.998C1227.74 213.037 1189.08 238.771 1154.56 269.423C1135.84 286.041 1121.42 305.242 1105.58 324.733C1061.8 378.735 999.393 421.487 935.779 444.308C874.125 466.432 797.853 476.227 732.772 468.916C704.69 465.774 684.619 455.171 676.126 425.028C664.358 383.124 674.356 335.016 683.842 294.08Z" stroke="#FFCA49" stroke-width="3.31375"/>
<path fill-rule="evenodd" clip-rule="evenodd" d="M721.915 267.39C744.713 180.138 793.889 100.445 865.618 48.0775C946.022 -10.6269 1049.56 -43.2471 1144.72 -59.8353C1195.3 -68.646 1304.91 -92.535 1330.69 -24.1656C1356.48 44.2037 1281.94 111.58 1239.05 148.67C1186.98 193.617 1130.85 237.014 1074.78 277.343C1026.07 312.406 974.089 348.255 921.326 375.332C891.568 390.693 860.569 403.235 828.696 412.81C805.095 419.842 775.083 430.332 750.34 425.097C687.929 411.876 711.011 309.109 721.915 267.39Z" stroke="#FFCA49" stroke-width="3.31375"/>
<path fill-rule="evenodd" clip-rule="evenodd" d="M768.908 241.262C818.931 76.2582 977.419 -4.89372 1130.02 -33.1798C1165.48 -39.7457 1264.88 -63.4187 1284.7 -13.0138C1303.91 35.8567 1242.82 93.8137 1214.23 121.273C1125.61 206.36 1016.13 269.449 912.38 331.949C879.997 351.457 821.592 393.792 781.423 374.264C737.808 353.022 758.544 275.477 768.908 241.262Z" stroke="#FFCA49" stroke-width="3.31375"/>
<path fill-rule="evenodd" clip-rule="evenodd" d="M820.146 209.503C863.649 87.9903 990.18 18.2979 1106.51 -4.67706C1135.01 -10.2987 1207.37 -27.8015 1228.95 6.10771C1248.92 37.4753 1201.26 82.9269 1183.43 100.988C1143.74 141.207 1096.69 174.338 1050.22 206.184C1007.24 235.648 963.808 265.849 918.591 290.768C894.775 303.885 850.108 331.874 823.044 311.62C793.906 289.831 810.488 236.485 820.146 209.503Z" stroke="#FFCA49" stroke-width="3.31375"/>
<path fill-rule="evenodd" clip-rule="evenodd" d="M876.612 174.002C909.769 94.6485 998.572 43.1194 1076.91 25.9962C1097.99 21.3988 1143.54 9.47143 1161.32 30.6635C1177.69 50.1801 1151.31 78.7918 1139.6 92.0057C1087.71 150.576 1011.71 202.893 942.082 235.025C924.576 243.103 893.105 258.959 875.096 242.654C856.623 225.91 868.995 192.222 876.612 174.002Z" stroke="#FFCA49" stroke-width="3.31375"/>
<path fill-rule="evenodd" clip-rule="evenodd" d="M936.511 140.668C955.195 101.265 1004.03 71.5361 1044.48 62.0728C1072.94 55.4183 1107.16 61.1667 1082.35 95.4661C1057.71 129.504 1011.98 160.592 973.216 174.374C943.644 184.884 920.467 174.515 936.511 140.668Z" stroke="#FFCA49" stroke-width="3.31375"/>
<path fill-rule="evenodd" clip-rule="evenodd" d="M-578.597 413.583C-579.795 335.736 -619 254.83 -599.638 175.508C-583.739 110.362 -503.698 104.923 -455.681 75.4075C-417.524 51.9587 -395.869 10.4202 -375.234 -29.4349C-356.693 -65.2158 -340.039 -102.072 -320.508 -137.266C-307.864 -160.017 -286.153 -204.694 -258.734 -205.5C-232.484 -206.277 -208.414 -171.463 -193.167 -150.883C-173.286 -124.057 -155.66 -95.4582 -136.355 -68.2042C-103.822 -22.2329 -64.7873 11.7949 -20.0914 43.9997C30.7722 80.6439 82.4755 116.036 135.019 150.177C173.704 175.389 212.654 200.412 249.839 228.114C273.164 245.496 324.644 278.11 324.88 310.155C324.993 325.446 311.264 342.38 302.008 354.602C286.345 375.292 268.493 394.208 250.584 412.716C217.23 447.192 182.46 480.104 148.068 513.415C103.429 556.647 60.7896 599.171 21.5474 648.251C-19.0252 699.053 -57.7861 751.529 -97.3397 803.288C-124.127 838.352 -150.886 877.729 -189.524 899.245C-237.919 926.14 -277.642 897.781 -326.584 897.452C-368.686 897.163 -365.581 794.203 -370.931 765.575C-376.3 736.597 -388.132 709.622 -392.718 680.575C-398.436 644.316 -398.511 607.22 -399.917 570.573C-401.625 525.747 -402.304 483.073 -447.698 465.979C-473.533 456.267 -501.481 454.225 -528.221 448.408C-545.544 444.632 -578.219 438.177 -578.597 413.583Z" stroke="#FFCA49" stroke-width="3.31375"/>
<path fill-rule="evenodd" clip-rule="evenodd" d="M-557.899 399.734C-562.313 334.479 -588.384 250.957 -563.73 183.597C-542.666 126.033 -476.792 118.571 -432.435 88.3325C-395.817 63.3916 -379.516 22.5783 -361.212 -17.5166C-346.527 -49.6804 -332.286 -82.1534 -315.616 -113.29C-303.332 -136.235 -284.574 -174.973 -259.031 -179.722C-236.068 -183.992 -211.442 -149.793 -198.552 -132.394C-179.747 -106.995 -163.664 -79.4099 -147.051 -52.4039C-117.861 -4.9664 -87.971 37.6925 -45.2485 72.5399C-2.33697 107.537 44.6096 133.705 92.057 160.94C129.176 182.25 166.105 204.178 201.372 228.779C227.643 247.096 265.413 270.541 277.433 303.203C286.949 329.042 238.689 371.92 224.458 387.054C195.164 418.171 164.121 447.381 133.022 476.412C95.1092 511.789 55.9871 542.725 22.5065 583.08C-37.3768 655.229 -87.4323 745.076 -164.486 798.698C-210.96 831.042 -262.679 839.312 -314.369 834.474C-334.837 832.558 -339.751 802.06 -342.331 784.273C-346.621 754.723 -347.16 724.664 -350.458 694.994C-353.548 667.22 -360.408 640.833 -365.936 613.597C-371.531 586.003 -373.099 557.73 -377.22 529.946C-379.771 512.696 -382.294 492.624 -393.454 478.757C-405.002 464.401 -424.053 458.385 -440.703 453.816C-471.973 445.316 -554.781 445.785 -557.899 399.734Z" stroke="#FFCA49" stroke-width="3.31375"/>
<path fill-rule="evenodd" clip-rule="evenodd" d="M-531.261 372.418C-538.683 312.518 -549.073 237.913 -518.838 182.726C-494.124 137.602 -441.415 127.868 -403.767 98.4664C-372.454 74.0164 -360.626 35.1296 -345.083 -1.00739C-332.329 -30.6483 -319.508 -60.4186 -304.05 -88.6247C-292.327 -110.016 -277.218 -139.019 -253.941 -146.482C-234.04 -152.858 -211.557 -124.293 -200.523 -110.076C-181.737 -85.845 -166.421 -58.695 -151.209 -31.9037C-126.325 11.9349 -103.426 58.7625 -68.0092 94.4212C-33.5948 129.024 7.28648 149.449 48.9336 172.414C80.833 190.009 112.534 208.282 142.59 229.265C165.668 245.366 194.268 264.445 206.294 291.237C216.694 314.342 189.995 341.691 176.654 357.991C154.625 384.892 130.176 409.571 106.067 434.35C80.0483 461.081 51.231 485.741 26.0537 513.13C-26.8915 570.768 -69.191 634.583 -134.446 678.74C-176.708 707.345 -233.576 733.329 -283.534 728.656C-319.461 725.289 -317.097 641.378 -320.548 614.566C-326.221 570.728 -337.179 524.667 -354.585 484.286C-369.532 449.683 -405.053 439.013 -437.727 431.251C-458.196 426.379 -479.649 423.749 -499.446 416.217C-522.364 407.489 -528.15 397.525 -531.261 372.418Z" stroke="#FFCA49" stroke-width="3.31375"/>
<path fill-rule="evenodd" clip-rule="evenodd" d="M-506.413 344.341C-510.832 293.699 -509.838 233.814 -481.214 190.006C-456.129 151.635 -411.466 141.533 -379.7 111.305C-354.908 87.7232 -345.171 49.2721 -331.838 18.0855C-315.544 -20.0459 -292.711 -90.4731 -251.606 -104.822C-213.368 -118.162 -173.379 -32.9463 -159.535 -7.53532C-137.62 32.6845 -119.291 76.7914 -92.711 113.934C-69.8212 145.91 -39.1532 163.586 -6.60207 182.582C34.9005 206.844 97.9115 235.612 120.101 282.897C136.642 318.13 82.8566 370.511 64.4899 394.923C45.281 420.424 30.8128 450.651 10.9888 475.252C-20.2943 514.073 -70.9851 545.33 -112.838 569.182C-153.527 592.384 -206.365 618.065 -252.524 616.536C-282.86 615.537 -288.633 566.094 -295.105 541.942C-304.378 507.608 -316.708 476.841 -343.193 453.489C-370.152 429.717 -401.927 418.515 -435.33 408.712C-452.476 403.716 -472.035 399.819 -487.374 389.727C-504.321 378.745 -504.709 363.806 -506.413 344.341Z" stroke="#FFCA49" stroke-width="3.31375"/>
<path fill-rule="evenodd" clip-rule="evenodd" d="M-476.135 315.151C-475.89 271.4 -466.411 224.746 -438.304 190.998C-414.894 162.888 -378.251 153.491 -355.841 124.755C-338.09 102.004 -329.055 70.066 -317.171 43.6464C-302.636 11.2707 -282.084 -45.2873 -245.941 -56.5233C-210.666 -67.461 -179.466 -5.16563 -165.94 19.484C-146.133 55.6283 -130.099 93.9402 -110.113 129.985C-94.4564 158.264 -75.3098 176.49 -49.8155 194.716C-19.8883 216.125 21.8665 239.84 37.8535 275.258C49.3792 300.902 21.4798 341.879 11.35 364.47C4.55905 379.644 -1.65652 395.056 -5.07085 411.502C-7.73063 424.309 -7.99472 436.162 -15.7005 447.159C-35.1018 474.822 -77.6395 478.431 -106.501 487.549C-144.832 499.651 -185.502 513.402 -225.616 516.027C-250.27 517.668 -262.853 493.695 -276.925 476.831C-293.553 456.894 -317.095 442.556 -337.657 427.511C-364.792 407.625 -394.323 395.255 -424.873 382.587C-438.653 376.87 -454.838 371.261 -465.515 359.896C-476.663 348.113 -476.22 330.941 -476.135 315.151Z" stroke="#FFCA49" stroke-width="3.31375"/>
<path fill-rule="evenodd" clip-rule="evenodd" d="M1328.89 1635.48C1251.93 1684.74 1164.93 1725.41 1082.9 1766.74C963.009 1827.14 841.355 1885.91 715.385 1930.9C647.847 1955.01 560.331 1989.78 487.862 1970.89C461.366 1963.98 437.203 1943.1 413.447 1929.52C380.689 1910.81 347.449 1893.02 314.265 1875.2C247.7 1839.46 180.927 1804.09 115.505 1766.06C84.0026 1747.75 53.4356 1724.68 20.6395 1709.05C1.47375 1699.92 -21.4608 1704.19 -41.9395 1704.77C-89.3768 1706.11 -136.786 1708.67 -184.195 1710.84C-242.183 1713.49 -300.304 1716.31 -358.358 1715.26C-384.542 1714.78 -448.67 1719.69 -463.085 1695.89C-470.84 1683.08 -452.562 1659.97 -444.089 1649.28C-428.532 1629.63 -410.65 1611.92 -393.005 1594.39C-352.199 1553.85 -308.861 1515.25 -272.589 1469.97C-253.953 1446.69 -229.535 1418.25 -241.701 1386.48C-253.981 1354.38 -275.253 1326.59 -288.232 1294.6C-303.175 1257.79 -309.372 1219.49 -316.428 1180.46C-321.651 1151.61 -333.818 1126.05 -345.257 1099.45C-357.895 1070.06 -370.987 1040.41 -379.762 1009.41C-385.562 988.933 -394.923 952.094 -374.633 939.129C-345.804 920.695 -291.746 935.622 -258.883 941.053C-213.467 948.546 -168.382 958.092 -123.089 966.313C-90.208 972.292 -57.2135 978.849 -23.7845 979.546C30.1044 980.672 84.1726 976.776 137.92 973.149C237.442 966.433 336.25 957.325 436.108 957.325C523.594 957.325 725.766 1064.12 773.09 1082.92C867.549 1120.46 964.52 1156.04 1053.91 1205.98C1078.09 1219.51 1115.3 1237.52 1128.03 1265.35C1135.88 1282.5 1132.27 1292.42 1150.78 1303.47C1176.04 1318.55 1208.4 1324.47 1236.36 1331.21C1281.39 1342.07 1326.77 1351.27 1372.01 1361.11C1463.5 1380.95 1554.37 1403.39 1645.48 1424.98C1673.03 1431.51 1706.35 1432.95 1732.61 1444.45C1749.54 1451.83 1747.78 1461.13 1734.68 1472.35C1711.7 1492.04 1679.49 1502.97 1652.34 1514.2C1612.57 1530.66 1572.14 1545.33 1531.69 1559.8C1491.24 1574.27 1450.59 1588.29 1410.12 1602.79C1383.39 1612.34 1352.91 1620.1 1328.89 1635.48Z" stroke="#FFCA49" stroke-width="3.31375"/>
<path fill-rule="evenodd" clip-rule="evenodd" d="M1265.56 1624.64C1184.16 1674 1093.8 1713.33 1006.69 1751.7C895.202 1800.84 781.194 1846.89 663.728 1877.61C594.758 1895.63 513.383 1915.53 442.911 1894.86C417.77 1887.48 398.988 1870.91 377.437 1856.28C352.873 1839.59 327.363 1824.29 301.854 1809.23C249.342 1778.23 196.276 1748.3 142.656 1719.42C114.256 1704.06 82.9928 1683.49 50.9077 1678.17C25.3983 1673.92 -3.57863 1680.06 -29.2014 1681.85C-75.345 1685.06 -121.479 1688.37 -167.642 1691.19C-220.909 1694.43 -274.328 1697.43 -327.708 1696.91C-357.46 1696.62 -408.535 1701.4 -429.576 1681.11C-447.933 1663.41 -381.099 1599.38 -369.345 1587.22C-332.64 1549.24 -294.036 1513.07 -259.872 1472.46C-239.682 1448.51 -215.099 1419.38 -206.586 1387.64C-199.339 1360.58 -213.322 1329.76 -221.58 1304.75C-231.906 1273.43 -240.239 1240.96 -252.238 1210.29C-262.924 1182.97 -279.93 1158.63 -294.867 1133.79C-311.297 1106.47 -327.935 1078.7 -340.132 1048.89C-347.606 1030.55 -359.973 999.834 -345.121 982.351C-327.964 962.194 -275.074 975.366 -253.334 978.24C-209.231 984.148 -165.469 992.929 -121.668 1000.79C-48.9191 1013.85 20.4381 1025.26 94.5192 1022.53C190.992 1018.95 287.37 1010.55 383.824 1005.9C419.443 1004.17 455.628 1000.67 491.275 1002.56C511.711 1003.65 527.272 1010.23 539.157 1025.09C555.389 1045.37 592.774 1056.59 618.775 1068.23C659.316 1086.36 700.367 1103.23 741.305 1120.31C831.174 1157.83 922.771 1194 1008 1242.52C1034.97 1257.87 1065.84 1274.98 1085.79 1300.34C1096.92 1314.48 1094.11 1328.1 1100.9 1343.13C1109.9 1362.9 1139.47 1371.82 1157.15 1378.29C1191.26 1390.78 1226.78 1399.15 1262.02 1407C1341.76 1424.74 1421.69 1436.4 1502.72 1445C1521.71 1446.99 1596.49 1453.91 1557.22 1487.24C1513.82 1524.07 1451.17 1542.12 1400.08 1562.88C1354.06 1581.54 1308 1598.9 1265.56 1624.64Z" stroke="#FFCA49" stroke-width="3.31375"/>
<path fill-rule="evenodd" clip-rule="evenodd" d="M1153.06 1615.51C1076.55 1658.94 991.782 1691.34 909.374 1722.34C809.373 1759.95 706.866 1793.47 601.986 1812.26C536.101 1824.04 463.462 1833.1 398.022 1813.51C353.332 1800.14 318.763 1763.99 279.512 1739.12C240.261 1714.26 199.421 1690.91 157.361 1671.45C131.256 1659.38 103.175 1647.21 74.1294 1648.81C3.5058 1652.67 -67.0327 1661.89 -137.732 1666.36C-184.502 1669.35 -231.367 1671.81 -278.279 1671.07C-306.568 1670.64 -345.432 1672.43 -370.477 1656.73C-398.16 1639.36 -250.756 1491.09 -236.824 1474.4C-201.896 1432.55 -159.599 1377.02 -166.352 1317.51C-172.812 1260.62 -200.808 1218.14 -232.474 1173.57C-250.444 1148.21 -308.072 1080.47 -286.716 1047.49C-274.515 1028.64 -234.299 1035.17 -215.194 1036.45C-177.541 1038.98 -140.096 1044.42 -102.642 1049.14C-48.0313 1055.99 8.08366 1066.56 62.9311 1069.66C101.123 1071.81 139.542 1068.93 177.8 1068.87C232.656 1068.79 287.513 1069.23 342.37 1069.75C388.431 1070.19 434.88 1069.75 480.78 1074.41C509.315 1077.28 530.974 1083.73 551.442 1101.94C569.251 1117.78 596.122 1127.06 618.821 1137.13C656.313 1153.76 694.297 1169.17 732.157 1184.83C811.426 1217.63 891.602 1249.75 967.475 1290.73C1002.11 1309.44 1060.34 1335.62 1068.47 1380.96C1071.4 1397.31 1073.56 1404.38 1088.69 1413.67C1110.17 1426.86 1135.89 1432.81 1159.99 1437.98C1216.18 1450.04 1273.98 1448.23 1330.07 1460.15C1352.91 1465.06 1382.73 1475.66 1356.66 1499.93C1326.23 1528.32 1281.94 1543.92 1245.49 1561.46C1227.29 1570.21 1208.54 1578.4 1191.26 1589.08C1177.99 1597.31 1166.63 1607.86 1153.06 1615.51Z" stroke="#FFCA49" stroke-width="3.31375"/>
<path fill-rule="evenodd" clip-rule="evenodd" d="M1008.14 1601.95C937.448 1637.22 860.675 1662.87 785.281 1685.99C701.539 1711.64 615.776 1732.88 528.88 1741.92C468.878 1748.18 404.948 1750.03 346.712 1730.86C309.884 1718.74 284.916 1693.24 253.225 1671.86C205.395 1639.54 153.647 1613.93 96.1853 1620.17C31.7641 1627.14 -32.868 1632.37 -97.711 1635.86C-136.825 1637.96 -176.089 1639.54 -215.25 1638.07C-240.01 1637.15 -271.909 1635.61 -293.449 1623.77C-322.269 1607.92 -214.013 1487.32 -200.519 1469.74C-167.052 1426.15 -142.519 1380.41 -128.184 1326.4C-116.493 1282.32 -140.375 1247.68 -165.012 1214.71C-180.329 1194.24 -229.821 1142.74 -214.324 1116.16C-205.826 1101.5 -177.817 1102.25 -162.774 1101.5C-134.105 1100.09 -105.313 1101.56 -76.6433 1102.21C-34.3096 1103.21 10.7531 1096.35 52.728 1101.87C145.752 1114.1 238.541 1124.69 332.141 1133.06C383.739 1137.68 435.648 1141.87 486.782 1150.77C505.14 1153.97 524.102 1157.35 541.496 1164.58C552.686 1169.23 558.787 1177.14 568.23 1183.63C613.255 1214.53 672.029 1230.43 722.739 1250.23C790.153 1276.56 857.927 1302.48 923.547 1333.58C958.062 1349.93 1006.27 1368.73 1030.02 1402.12C1037.2 1412.2 1034.14 1420.27 1038.65 1429.97C1043.84 1441.16 1059.62 1444.49 1069.81 1447.61C1092.94 1454.69 1189.74 1465.4 1145.13 1506.93C1123.85 1526.72 1096.73 1539.41 1072.73 1554.96C1064.04 1560.59 1055.57 1566.26 1048.33 1573.86C1036.21 1586.6 1024.28 1593.87 1008.14 1601.95Z" stroke="#FFCA49" stroke-width="3.31375"/>
<path fill-rule="evenodd" clip-rule="evenodd" d="M853.723 1586.68C714.169 1643.75 550.618 1682.63 398.469 1675.09C347.872 1672.58 293.434 1664.19 249.575 1635.48C223.714 1618.51 203.047 1599.37 171.982 1593.24C149.555 1588.82 125.407 1593.84 102.848 1595.66C70.1737 1598.29 37.4805 1600.65 4.75889 1602.55C-35.8072 1604.88 -76.5058 1606.67 -117.148 1605.71C-146.188 1605.03 -186.291 1605.8 -211.518 1589.34C-241.637 1569.71 -164.971 1477.6 -154.184 1461.18C-128.039 1421.4 -109.71 1382.86 -103.086 1334.92C-101.137 1320.95 -94.5698 1306.64 -95.4214 1292.56C-96.3109 1278.18 -104.704 1265.38 -112.454 1254.08C-122.589 1239.26 -157.752 1204.12 -147.683 1186.05C-142.119 1176.08 -121.235 1174.82 -110.41 1172.7C-90.1036 1168.71 -69.5034 1166.57 -49.0737 1163.39C-14.4122 1157.99 20.0031 1140.38 54.7876 1140.88C148.325 1142.19 243.216 1172.8 334.88 1189.61C389.375 1199.64 444.239 1208.74 498.072 1222.32C515.105 1226.62 532.648 1231.07 548.839 1238.36C560.137 1243.45 567.395 1252.52 577.86 1258.22C617.991 1280.1 664.14 1293.38 707.233 1308.1C763.176 1327.26 819.308 1345.84 874.863 1366.23C909.685 1379.01 954.462 1390.26 984.468 1413.96C1006.38 1431.27 991.404 1436.45 979.841 1452.57C973.936 1460.79 975.298 1468.9 972.734 1478.2C969.072 1491.49 958.72 1501.06 949.011 1509.66C935.622 1521.55 917.785 1531.33 906.837 1545.9C902.976 1551.03 903.156 1557.39 900.033 1561.86C890.949 1574.88 866.848 1581.31 853.723 1586.68Z" stroke="#FFCA49" stroke-width="3.31375"/>
<path fill-rule="evenodd" clip-rule="evenodd" d="M705.346 1566.35C592.082 1602.23 466.057 1622.66 346.333 1613.17C304.677 1609.87 262.766 1602.2 223.963 1585.34C206.309 1577.69 193.057 1569.17 173.712 1568.71C128.826 1567.65 83.7978 1571.36 38.921 1572.24C6.80553 1572.88 -25.4706 1573.11 -57.5106 1570.39C-78.9335 1568.57 -107.904 1566.4 -125.454 1552.53C-150.957 1532.34 -104.919 1463.7 -95.5485 1444.74C-80.0197 1413.29 -64.6137 1378.33 -70.7724 1341.94C-72.6615 1330.81 -76.0054 1320.98 -76.4399 1309.63C-76.8555 1299.88 -75.6936 1290.88 -78.9713 1281.56C-83.0235 1270 -101.046 1252.07 -94.8495 1241.43C-90.6272 1234.16 -78.1023 1233.82 -69.7711 1231.5C-56.2586 1227.73 -43.065 1222.78 -30.3257 1216.71C-16.9127 1210.28 -5.49283 1200.35 8.40185 1195.04C30.9583 1186.43 56.2067 1185.63 79.9155 1185.66C174.515 1185.83 270.313 1205.52 362.513 1226.11C410.526 1236.83 458.803 1248.25 505.465 1264.51C519.634 1269.45 535.691 1274.41 548.15 1283.54C555.924 1289.21 561.195 1296.33 570.027 1300.6C645.47 1337.07 732.692 1350.62 812.782 1376.95C833.629 1383.81 949.16 1418.45 888.754 1451.04C852.058 1470.84 813.283 1479.84 779.798 1506.93C769.596 1515.16 762.795 1521.98 758.809 1534.55C756.183 1542.91 762.503 1538.67 753.68 1547.41C742.978 1557.92 718.542 1562.16 705.346 1566.35Z" stroke="#FFCA49" stroke-width="3.31375"/>
<path fill-rule="evenodd" clip-rule="evenodd" d="M587.578 1545.13C454.972 1574.42 314.542 1575.81 179.842 1549.85C145.886 1543.31 110.546 1544.87 76.1726 1543.21C42.7747 1541.62 -16.6045 1544.93 -40.862 1517.83C-58.4513 1498.19 -39.3654 1456.44 -32.7635 1434.47C-24.3525 1406.48 -17.0023 1377.56 -30.8123 1350.37C-38.9013 1334.45 -49.9834 1319.29 -58.6596 1303.52C-62.8083 1295.99 -71.352 1284.45 -67.7906 1277.31C-61.8991 1265.54 -34.3359 1260.58 -20.9616 1255.03C21.785 1237.29 67.0512 1232.76 112.753 1232.88C197.166 1233.12 282.015 1245.3 364.819 1261.82C402.915 1269.42 441.541 1277.53 478.282 1290.74C499.073 1298.22 514.408 1312.64 534.261 1321.19C598.187 1348.73 666.868 1363.45 731.892 1388.63C750.713 1395.93 821.013 1420.21 785.598 1448.84C751.309 1476.55 701.298 1473.26 665.646 1499.33C661.611 1502.32 656.619 1505.89 654.279 1510.72C652.896 1513.6 655.331 1519.1 654.279 1520.74C643.33 1538.58 604.41 1541.42 587.578 1545.13Z" stroke="#FFCA49" stroke-width="3.31375"/>
<path fill-rule="evenodd" clip-rule="evenodd" d="M501.666 1525.77C433.635 1535.62 364.108 1538.06 294.932 1538.68C257.119 1539.02 215.576 1541.56 178.577 1531.46C155.85 1525.23 133.899 1519.79 110.471 1515.87C85.2626 1511.65 44.6754 1508.57 29.3249 1485.69C17.8571 1468.59 25.7169 1433.44 26.1335 1412.65C26.5786 1389.85 22.1468 1372.94 6.89107 1356.62C-2.70177 1346.35 -46.7076 1309.05 -41.6223 1298.29C-36.7833 1288.04 -6.1203 1286.47 7.13732 1283.81C49.0409 1275.37 91.5032 1272.43 134.126 1272.89C200.14 1273.59 266.4 1280.69 331.381 1292.9C358.247 1297.97 386.012 1303.22 411.675 1313.36C428.957 1320.19 443.37 1332.31 460.539 1339.37C509.705 1359.63 561.694 1373.39 611.032 1394.02C626.865 1400.66 678.456 1418.31 666.089 1445.53C655.776 1468.25 620.7 1475.17 603.465 1490.39C574.147 1516.37 539.052 1520.37 501.666 1525.77Z" stroke="#FFCA49" stroke-width="3.31375"/>
<path fill-rule="evenodd" clip-rule="evenodd" d="M458.809 1512.71C404.842 1519.23 349.622 1522.08 294.864 1522.22C259.524 1522.31 222.242 1522.82 187.563 1514.44C170.143 1510.23 155.006 1500.4 138.52 1493.38C121.544 1486.16 98.1162 1478.11 90.7787 1461.57C83.8843 1446.02 86.4591 1423.34 80.4042 1404.59C75.0189 1387.96 63.7485 1377.68 51.6103 1366.44C43.8766 1359.25 4.1612 1328.15 8.75427 1321.28C13.6774 1313.93 37.5294 1314.53 49.941 1313.51C84.1375 1310.66 118.454 1309.75 152.743 1310.79C199.541 1312.3 246.698 1316.53 292.685 1326.1C325.308 1332.87 349.914 1349.02 380.33 1360.86C419.735 1376.24 460.553 1388.4 499.58 1405.22C519.028 1413.6 547.812 1424.38 557.772 1446.02C561.601 1454.31 565.317 1475.4 561.054 1483.69C555.933 1493.66 536.872 1497.89 527.874 1500.45C505.333 1506.83 481.746 1509.94 458.809 1512.71Z" stroke="#FFCA49" stroke-width="3.31375"/>
</g>
</svg>
