<svg width="32" height="32" viewBox="0 0 32 32" fill="none" xmlns="http://www.w3.org/2000/svg">
<path d="M29.7286 23.5732C24.7732 21.1737 23.9834 17.4689 23.9483 17.1941C23.9058 16.8612 23.8575 16.5995 24.2246 16.2609C24.5786 15.9338 26.1492 14.9614 26.585 14.6572C27.3053 14.1534 27.6225 13.6504 27.3887 13.0321C27.2252 12.6044 26.827 12.4433 26.4076 12.4433C26.2753 12.4437 26.1434 12.4585 26.0143 12.4875C25.2229 12.6592 24.4544 13.0559 24.0096 13.163C23.9561 13.1768 23.9013 13.1842 23.8461 13.1851C23.609 13.1851 23.519 13.0796 23.5419 12.7941C23.5975 11.9289 23.7153 10.2401 23.5787 8.66245C23.3915 6.49192 22.6916 5.41647 21.8618 4.46533C21.4603 4.00407 19.5962 2.02246 15.9988 2.02246C12.4015 2.02246 10.5398 4.00407 10.1408 4.45961C9.30851 5.41075 8.60947 6.4862 8.42388 8.65673C8.28734 10.2343 8.40998 11.9223 8.46067 12.7884C8.47703 13.0599 8.39363 13.1793 8.15653 13.1793C8.10135 13.1784 8.04647 13.171 7.99301 13.1573C7.54906 13.0501 6.78053 12.6535 5.9891 12.4817C5.86 12.4528 5.72814 12.438 5.59584 12.4376C5.17478 12.4376 4.77825 12.6011 4.61473 13.0264C4.3809 13.6447 4.69649 14.1477 5.41924 14.6514C5.85502 14.9557 7.42561 15.9273 7.77962 16.2552C8.1459 16.5938 8.09848 16.8555 8.05597 17.1884C8.02081 17.4672 7.2302 21.172 2.27561 23.5675C1.98537 23.7081 1.49154 24.0058 2.36227 24.4867C3.72928 25.2424 4.63926 25.1614 5.34648 25.617C5.94659 26.0038 5.59175 26.838 6.02835 27.1389C6.56468 27.5094 8.14999 27.1128 10.1981 27.7891C11.915 28.3551 12.9582 29.9539 16.0029 29.9539C19.0476 29.9539 20.1211 28.3477 21.8078 27.7891C23.8518 27.1128 25.4404 27.5094 25.9775 27.1389C26.4133 26.838 26.0593 26.0038 26.6594 25.617C27.3666 25.1614 28.2758 25.2424 29.6436 24.4867C30.5127 24.0116 30.0189 23.7139 29.7286 23.5732Z" fill="white"/>
<path d="M31.8856 23.2904C31.6632 22.6852 31.2397 22.3614 30.7573 22.0931C30.6666 22.04 30.5832 21.9974 30.5121 21.9647C30.3682 21.8903 30.221 21.8183 30.0746 21.7423C28.5711 20.9449 27.397 19.9389 26.5827 18.7465C26.3515 18.4109 26.1509 18.055 25.9834 17.6834C25.9139 17.4846 25.9172 17.3718 25.9671 17.2687C26.0165 17.1893 26.082 17.1211 26.1592 17.0683C26.4176 16.8974 26.6841 16.724 26.8648 16.6071C27.1869 16.3985 27.442 16.2333 27.6063 16.1164C28.2236 15.6846 28.6553 15.2258 28.9251 14.713C29.1134 14.3587 29.2231 13.968 29.247 13.5675C29.2708 13.167 29.2082 12.7661 29.0633 12.392C28.6545 11.3157 27.6382 10.6475 26.4069 10.6475C26.1472 10.6473 25.8882 10.6747 25.6343 10.7293C25.5665 10.744 25.4986 10.7596 25.4324 10.7767C25.4438 10.0407 25.4275 9.26376 25.3621 8.49908C25.1299 5.81086 24.1888 4.40174 23.2077 3.27803C22.5794 2.57387 21.8394 1.97814 21.0174 1.51478C19.5286 0.664238 17.8402 0.232422 15.9998 0.232422C14.1594 0.232422 12.4793 0.664238 10.9888 1.51478C10.1648 1.97828 9.42328 2.57521 8.79443 3.28131C7.81332 4.40501 6.87227 5.81659 6.64008 8.50236C6.57467 9.26703 6.55832 10.0481 6.56895 10.78C6.50272 10.7628 6.43568 10.7473 6.36782 10.7326C6.11391 10.678 5.85491 10.6506 5.5952 10.6508C4.36309 10.6508 3.34519 11.319 2.93803 12.3952C2.7925 12.7695 2.72922 13.1708 2.7525 13.5717C2.77578 13.9726 2.88506 14.3638 3.07294 14.7187C3.34356 15.2315 3.77525 15.6903 4.39253 16.1221C4.55604 16.2366 4.81195 16.4018 5.13408 16.6128C5.30823 16.7257 5.5625 16.8909 5.81186 17.0561C5.89911 17.1125 5.97326 17.187 6.02934 17.2744C6.08167 17.3816 6.0833 17.4969 6.00563 17.7095C5.84043 18.0734 5.64315 18.4218 5.41615 18.7506C4.61982 19.916 3.4801 20.904 2.02479 21.6948C1.2538 22.1037 0.452563 22.3769 0.114081 23.297C-0.141007 23.9913 0.0257811 24.7813 0.674129 25.447C0.912079 25.6955 1.18806 25.9045 1.49172 26.0662C2.12354 26.4135 2.79539 26.6824 3.49236 26.8668C3.63619 26.9039 3.77273 26.965 3.89625 27.0476C4.13253 27.2545 4.09901 27.5661 4.41378 28.0224C4.57179 28.2583 4.77256 28.4624 5.00572 28.6243C5.66633 29.0807 6.4087 29.1093 7.19522 29.1396C7.90571 29.1666 8.71103 29.1976 9.63082 29.5011C10.0118 29.627 10.4075 29.8707 10.8662 30.1553C11.9675 30.8325 13.4751 31.7591 15.9982 31.7591C18.5213 31.7591 20.0395 30.8276 21.149 30.148C21.6044 29.8683 21.9977 29.627 22.368 29.5043C23.2878 29.2001 24.0932 29.1698 24.8036 29.1428C25.5902 29.1126 26.3325 29.084 26.9931 28.6276C27.2693 28.435 27.4993 28.1836 27.6668 27.8916C27.8933 27.5064 27.8876 27.2373 28.1002 27.0492C28.216 26.9706 28.3443 26.912 28.4795 26.8758C29.186 26.6908 29.867 26.4194 30.5071 26.0678C30.8298 25.8947 31.1202 25.6672 31.3656 25.3955L31.3738 25.3857C31.9821 24.7347 32.135 23.9676 31.8856 23.2904ZM29.643 24.4959C28.2751 25.2516 27.366 25.1706 26.6588 25.6262C26.0578 26.013 26.4135 26.8472 25.9769 27.1481C25.4405 27.5186 23.8552 27.122 21.8072 27.7983C20.118 28.3569 19.0405 29.9631 16.0023 29.9631C12.9641 29.9631 11.9119 28.3602 10.195 27.7942C8.15098 27.1179 6.56241 27.5145 6.02525 27.1441C5.58948 26.8431 5.94349 26.0089 5.34338 25.6221C4.63535 25.1665 3.72619 25.2475 2.35918 24.4959C1.48845 24.015 1.98227 23.7173 2.27252 23.5767C7.22711 21.1771 8.01772 17.4724 8.05287 17.1976C8.09539 16.8647 8.14281 16.603 7.77653 16.2644C7.42251 15.9373 5.85192 14.9649 5.41615 14.6606C4.69503 14.1569 4.37781 13.6539 4.61164 13.0356C4.77516 12.6079 5.17414 12.4468 5.59275 12.4468C5.72505 12.4472 5.85691 12.462 5.98601 12.4909C6.77743 12.6627 7.54597 13.0593 7.98992 13.1665C8.04337 13.1802 8.09826 13.1876 8.15344 13.1885C8.39054 13.1885 8.47393 13.0691 8.45758 12.7976C8.40689 11.9315 8.28425 10.2435 8.42079 8.66592C8.60802 6.49539 9.30705 5.41994 10.1377 4.4688C10.5367 4.01163 12.4114 2.03002 15.9966 2.03002C19.5817 2.03002 21.4613 4.00345 21.8603 4.45899C22.6918 5.41013 23.3917 6.48558 23.5773 8.65611C23.7138 10.2337 23.5961 11.9225 23.5405 12.7878C23.5217 13.0732 23.6075 13.1787 23.8446 13.1787C23.8998 13.1778 23.9547 13.1704 24.0081 13.1566C24.4529 13.0495 25.2214 12.6529 26.0129 12.4811C26.142 12.4522 26.2738 12.4374 26.4061 12.437C26.8272 12.437 27.2237 12.6005 27.3872 13.0258C27.6211 13.6441 27.3055 14.147 26.5835 14.6508C26.1478 14.9551 24.5772 15.9267 24.2232 16.2546C23.8561 16.5932 23.9043 16.8549 23.9468 17.1877C23.982 17.4666 24.7718 21.1714 29.7272 23.5669C30.0199 23.7132 30.5137 24.0109 29.643 24.4959Z" fill="black"/>
</svg>
