<svg width="32" height="32" viewBox="0 0 32 32" fill="none" xmlns="http://www.w3.org/2000/svg">
<g clip-path="url(#clip0_662_213)">
<path d="M31.3622 8.24754C31.1812 7.56676 30.8247 6.94543 30.3282 6.44575C29.8317 5.94606 29.2127 5.58554 28.5331 5.40027C26.0312 4.72754 16.0312 4.72754 16.0312 4.72754C16.0312 4.72754 6.03125 4.72754 3.52943 5.40027C2.84982 5.58554 2.2308 5.94606 1.7343 6.44575C1.2378 6.94543 0.881257 7.56676 0.700341 8.24754C0.0312501 10.7603 0.03125 16.0003 0.03125 16.0003C0.03125 16.0003 0.0312501 21.2403 0.700341 23.753C0.881257 24.4338 1.2378 25.0551 1.7343 25.5548C2.2308 26.0545 2.84982 26.415 3.52943 26.6003C6.03125 27.273 16.0312 27.273 16.0312 27.273C16.0312 27.273 26.0312 27.273 28.5331 26.6003C29.2127 26.415 29.8317 26.0545 30.3282 25.5548C30.8247 25.0551 31.1812 24.4338 31.3622 23.753C32.0313 21.2403 32.0312 16.0003 32.0312 16.0003C32.0312 16.0003 32.0313 10.7603 31.3622 8.24754Z" fill="#FF0302"/>
<path d="M12.7598 20.7581V11.2417L21.1234 15.9999L12.7598 20.7581Z" fill="#FEFEFE"/>
</g>
<defs>
<clipPath id="clip0_662_213">
<rect width="32" height="32" fill="white"/>
</clipPath>
</defs>
</svg>
