<svg width="32" height="32" viewBox="0 0 32 32" fill="none" xmlns="http://www.w3.org/2000/svg">
<path d="M10.0634 29.0007C22.1389 29.0007 28.7437 18.9962 28.7437 10.3204C28.7437 10.0362 28.7437 9.75333 28.7245 9.47173C30.0094 8.54233 31.1185 7.39157 32 6.07333C30.8019 6.60453 29.5307 6.95273 28.2291 7.10629C29.5998 6.28587 30.6255 4.99533 31.1155 3.47493C29.8268 4.23974 28.4168 4.7787 26.9466 5.06853C25.9567 4.01596 24.6475 3.31898 23.2216 3.08544C21.7957 2.8519 20.3326 3.09481 19.0586 3.7766C17.7847 4.45838 16.771 5.54103 16.1743 6.85699C15.5777 8.17296 15.4314 9.64888 15.7581 11.0564C13.1479 10.9254 10.5943 10.2471 8.26327 9.06533C5.9322 7.88359 3.87569 6.22488 2.2272 4.19685C1.38764 5.64218 1.1305 7.35315 1.50813 8.98141C1.88577 10.6097 2.86979 12.0328 4.25984 12.961C3.21498 12.9304 2.19286 12.6485 1.28 12.1392V12.2224C1.28041 13.7382 1.80513 15.2072 2.76516 16.3803C3.72519 17.5533 5.06141 18.3581 6.5472 18.6583C5.58064 18.9219 4.5665 18.9605 3.58272 18.7709C4.00242 20.0754 4.81924 21.216 5.91899 22.0335C7.01873 22.851 8.34644 23.3044 9.71648 23.3303C8.35525 24.4003 6.79642 25.1913 5.12917 25.6583C3.46191 26.1252 1.71895 26.2589 0 26.0516C3.00244 27.9783 6.4959 29.0003 10.0634 28.9956" fill="#1DA1F2"/>
</svg>
