<svg width="1440" height="648" viewBox="0 0 1440 648" fill="none" xmlns="http://www.w3.org/2000/svg">
<g opacity="0.1">
<path fill-rule="evenodd" clip-rule="evenodd" d="M513.385 114.703C513.296 94.7357 478.073 72.2816 463.026 60.7051C433.276 37.8085 402.334 16.6646 371.678 -4.81702C341.023 -26.2986 310.285 -47.722 281.053 -71.3058C262.073 -86.6149 239.771 -103.857 226.899 -125.717C199.477 -172.303 285.936 -165.385 308.332 -166.404C365.306 -169.007 430.655 -167.819 484.059 -192.078C515.939 -206.56 528.652 -230.849 521.804 -266.248C519.597 -277.76 513.065 -291.008 518.599 -302.223C524.508 -314.201 538.103 -321.113 549.386 -325.749C590.541 -342.636 637.86 -344.592 681.404 -346.712C728.358 -349.041 775.753 -348.36 822.376 -348.54C842.145 -348.616 862.792 -356.111 881.618 -362.202C906.298 -370.185 930.685 -379.153 955.161 -387.823C1009.01 -406.854 1064.49 -426.897 1121.46 -431.73C1157.13 -434.758 1196.13 -430.664 1223.84 -404.326C1237.76 -391.102 1245.04 -371.443 1253.08 -353.979C1262.82 -332.882 1272.17 -311.581 1282.54 -290.816C1315.94 -223.937 1363.62 -158.583 1441.02 -155.299C1452.72 -154.804 1464.22 -156.417 1475.88 -156.72C1483.3 -156.906 1489.9 -155.014 1492.66 -146.82C1499.6 -126.271 1477.8 -93.8298 1468.86 -77.5249C1449.29 -41.8348 1427.22 -7.74604 1406.54 27.2278C1392.86 50.3574 1369.19 81.9655 1368.94 110.068C1368.72 135.108 1400.28 153.206 1417.46 165.539C1433.56 177.087 1462.73 193.246 1464.5 216.737C1465.35 228.127 1458.24 237.566 1450.8 244.892C1437.78 257.703 1422.77 266.74 1411.05 281.356C1391.83 305.336 1375.78 338.33 1378.39 370.643C1380.2 393.033 1392.3 407.695 1407.7 421.712C1414.17 427.605 1419.43 431.774 1419.77 441.342C1420.32 456.534 1414.68 472.612 1410.04 486.698C1393.42 537.109 1369.81 585.855 1343.55 631.369C1330.43 654.114 1316.26 676.789 1298.86 696.192C1287.47 708.933 1272.1 724.097 1254.72 724.079C1234.6 724.079 1213.31 716.416 1193.75 710.686C1157.22 699.977 1121.13 687.597 1085.18 674.897C1002.05 645.513 919.701 613.75 838.134 579.607C780.68 555.516 722.007 531.391 667.991 499.363C657.456 493.074 647.513 485.741 638.296 477.463C628.447 468.769 616.226 464.879 603.833 461.979C526.919 443.979 442.656 457.798 365.422 466.463C345.818 468.658 326.214 470.865 306.555 472.402C289.655 473.724 269.422 477.515 252.997 471.82C220.631 460.61 248.925 419.295 260.887 402.46C303.002 343.186 357.338 293.037 407.702 241.84C431.648 217.459 455.776 193.141 478.42 167.38C490.211 153.986 513.462 132.208 513.385 114.703Z" stroke="#FFCA49" stroke-width="1.935"/>
<path fill-rule="evenodd" clip-rule="evenodd" d="M527.897 111.337C514.989 90.2082 492.34 74.5916 473.54 59.8946C446.486 38.7368 418.581 18.7547 391.096 -1.80357C365.108 -21.2443 339.064 -40.9062 314.996 -62.9837C300.321 -76.4467 281.907 -92.5465 274.956 -112.459C259.877 -155.618 340.996 -149.07 361.022 -150.199C410.807 -152.993 467.252 -153.633 513.31 -176.357C542.071 -190.548 553.886 -214.08 547.752 -246.751C545.632 -258.055 541.811 -267.705 546.648 -278.951C552.241 -291.965 565.105 -300.079 576.899 -305.807C613.842 -323.752 657.51 -327.564 697.556 -330.736C738.927 -334.013 782.031 -336.324 822.072 -333.926C838.084 -332.971 856.514 -338.39 872.36 -342.546C896.742 -348.949 920.875 -356.335 945.136 -363.204C994.441 -377.173 1045.03 -390.63 1096.32 -392.161C1133.35 -393.267 1171.96 -387.272 1202.77 -364.1C1233.99 -340.602 1247.85 -304.177 1265.16 -269.55C1295.06 -209.686 1335.45 -136.899 1404.63 -124.251C1415.12 -122.33 1425.21 -123.372 1435.69 -122.901C1441.07 -122.662 1447.21 -121.905 1449.94 -116.3C1457.04 -101.749 1437.6 -75.1429 1431.05 -63.9965C1412.98 -33.194 1392.65 -3.89897 1373.71 26.3099C1358.66 50.2965 1339.59 76.9489 1333.77 105.382C1326.71 139.887 1372.85 164.438 1389.08 188.733C1417.21 230.863 1363.91 254.867 1337.64 274.954C1307.47 298.015 1282.56 340.086 1309.61 375.766C1319.95 389.409 1332.69 397.541 1337.31 415.346C1344.53 443.192 1339.07 475.013 1333.21 502.538C1324.37 543.917 1310.39 584.847 1291.39 622.244C1277.77 649.019 1255.18 691.003 1222.11 687.854C1199.84 685.753 1177.2 678.075 1155.52 671.289C1123.05 661.132 1091 649.555 1059.11 637.529C985.508 609.847 912.715 579.323 841.352 545.75C792.66 522.835 656.836 429.187 646.616 425.846C616.144 415.893 581.498 417.645 550.082 419.188C508.291 421.236 466.71 426.545 425.163 431.463C405.385 433.791 385.509 436.638 365.627 437.784C351.476 438.599 332.891 439.298 320.496 430.619C296.301 413.687 323.256 374.945 334.404 358.555C368.553 308.305 411.752 264.791 452.256 220.298C472.132 198.454 492.313 176.644 510.356 153.047C517.633 143.519 535.876 124.387 527.897 111.337Z" stroke="#FFCA49" stroke-width="1.935"/>
<path fill-rule="evenodd" clip-rule="evenodd" d="M545.758 100.501C510.504 58.2199 461.847 26.7741 419.853 -8.5376C398.776 -26.2662 377.566 -44.4781 359.387 -65.5953C349.93 -76.576 338.122 -90.462 336.3 -105.769C331.431 -146.716 404.544 -141.179 426.428 -142.734C468.737 -145.75 516.533 -148.038 554.917 -168.934C578.368 -181.708 589.917 -202.674 585.533 -230.23C583.59 -242.457 580.565 -252.844 585.533 -264.849C590.568 -277.012 601.057 -285.593 611.678 -292.027C642.201 -310.53 680.132 -316.445 714.497 -320.853C754.811 -325.986 795.427 -327.991 836.019 -326.85C871.571 -325.866 906.952 -336.934 941.665 -344.229C987.65 -353.888 1034.47 -362.324 1081.53 -361.049C1118.69 -360.036 1156.15 -352.077 1187.92 -330.925C1220.2 -309.383 1239.61 -277.14 1257.11 -242.346C1283.56 -189.748 1316.53 -119.264 1374.57 -99.2884C1383.01 -96.3773 1390.88 -96.0571 1399.58 -95.5506C1403.81 -95.306 1409.27 -95.2303 1411.37 -90.5784C1416.41 -79.3764 1397.76 -57.6596 1392.56 -50.0907C1375.94 -25.9285 1357.93 -2.8551 1340.89 20.9869C1325 43.2452 1307.68 66.4409 1297.8 92.5244C1282.09 134.066 1332.33 158.356 1330.92 197.941C1330.05 222.517 1307.74 240.141 1290.07 252.333C1268.32 267.325 1237 277.182 1226.12 304.54C1218.01 324.918 1230.73 336.778 1240.53 352.242C1257.14 378.442 1258.27 413.957 1256.54 444.285C1254.21 485.268 1245.11 526.856 1229.61 564.526C1222.59 581.602 1213.99 599.366 1201.33 612.629C1189.46 625.059 1178.23 628.244 1162.38 625.7C1113.84 617.898 1064.84 596.152 1018.29 576.729C959.816 552.322 902.144 525.377 846.194 495.061C808.042 474.386 769.029 452.512 735.541 423.948C726.813 416.502 717.876 408.409 711.494 398.587C706.669 391.204 704.621 385.108 696.489 380.893C672.387 368.404 638.861 371.671 613.036 372.969C571.743 375.036 530.649 380.538 489.609 385.492C465.662 388.404 420.548 397.562 401.425 375.595C384.919 356.626 404.837 324.284 415.011 307.574C440.748 265.316 473.854 228.229 504.57 190.041C518.647 172.539 533.276 154.904 544.903 135.446C547.873 130.485 552.631 123.912 553.448 117.886C554.365 110.981 550.086 105.712 545.758 100.501Z" stroke="#FFCA49" stroke-width="1.935"/>
<path fill-rule="evenodd" clip-rule="evenodd" d="M548.788 110.344C516.212 72.96 476.967 42.2475 441.995 7.26401C426.314 -8.42146 410.479 -24.8761 398.531 -44.011C392.104 -54.3009 385.28 -67.2536 387.052 -80.0432C392.137 -116.751 452.27 -113.436 476.564 -115.586C512.662 -118.744 554.132 -121.926 586.051 -141.719C606.96 -154.683 614.8 -173.83 610.897 -198.523C606.706 -225.012 616.076 -244.24 637.399 -259.016C664.133 -277.527 697.88 -285.073 728.92 -290.434C766.318 -296.861 804.19 -299.71 842.074 -298.946C878.918 -298.201 914.613 -304.715 951.214 -308.951C999.74 -314.562 1049.82 -317.33 1097.8 -305.828C1139.58 -295.812 1177.31 -273.74 1205.6 -239.607C1235.14 -203.983 1249.77 -159.1 1273.76 -119.688C1288.72 -95.1052 1309.58 -62.5865 1337.54 -53.0307C1346.87 -49.8435 1363.86 -54.1436 1356.42 -38.4639C1352.16 -29.4966 1344.19 -21.6306 1337.9 -14.3006C1327.73 -2.45494 1317.22 9.06446 1306.88 20.747C1284.84 45.6503 1261.23 71.0838 1244.72 100.573C1223.9 137.7 1254.84 166.275 1251.07 203.921C1249.04 224.18 1235.69 240.349 1221.57 253.052C1212.43 261.279 1202.43 268.405 1192.22 275.053C1181.56 281.999 1168.95 287.289 1159.65 296.268C1146.4 309.046 1152.15 324.172 1154.63 340.691C1159.01 369.721 1159.97 399.209 1157.49 428.488C1154.47 464.374 1147.37 501.286 1132.43 533.898C1126.61 546.595 1119.25 560.054 1108.31 568.567C1097.37 577.08 1086.06 576.497 1073.53 573.934C1036.35 566.359 999.254 548.733 963.99 532.028C919.853 511.116 876.582 487.745 835.261 461.158C806.738 442.804 778.121 422.976 754.258 398.09C747.317 390.847 740.714 383.092 735.375 374.433C731.709 368.496 729.743 360.834 724.432 356.371C707.812 342.439 674.447 346.599 654.957 347.409C616.059 349.023 577.775 356.697 538.927 358.561C517.725 359.581 484.52 362.145 468.95 343.097C454.307 325.192 467.569 296.991 476.321 279.738C493.52 245.815 516.626 215.592 537.337 184.058C545.85 171.082 555.181 157.505 560.697 142.688C565.6 129.485 557.136 119.929 548.788 110.344Z" stroke="#FFCA49" stroke-width="1.935"/>
<path fill-rule="evenodd" clip-rule="evenodd" d="M556.8 110.955C530.871 78.0585 499.612 48.8562 473.495 15.424C458.208 -4.15475 431.882 -37.0692 443.704 -64.6714C456.674 -95.0024 501.885 -95.8286 528.018 -98.2723C559.122 -101.181 595.649 -105.155 622.268 -124.094C630.687 -130.081 637.859 -138.006 640.899 -148.444C644.154 -159.615 640.595 -169.39 640.132 -180.573C639.161 -204.032 652.434 -222.866 670 -235.801C694.826 -254.088 725.869 -262.734 755.191 -268.762C788.412 -275.56 822.183 -278.912 856.023 -278.769C888.363 -278.653 920.361 -279.409 952.733 -280.282C995.07 -281.445 1038 -279.566 1079.07 -267.703C1119.52 -256.008 1156.31 -234.09 1185.2 -201.851C1213.38 -170.391 1232.4 -131.937 1249.05 -92.7682C1258.51 -70.5363 1274.47 -37.3135 1297.01 -26.0841C1307.04 -21.0862 1316.87 -21.4294 1306.22 -8.43126C1292.79 7.93575 1274.7 21.0678 1259.16 35.0667C1236.73 55.268 1213.74 75.8649 1194.92 99.8831C1182.9 115.22 1177.54 130.104 1178.37 149.962C1179.01 165.089 1181.91 180.06 1180.44 195.246C1177 230.889 1150.4 255.332 1126.87 278.093C1111.74 292.732 1097.92 303.898 1090.13 324.721C1080.92 349.333 1077.05 376.109 1070.89 401.663C1064.13 429.725 1056.32 458.916 1041.55 483.632C1028.41 505.637 1012.43 515.505 988.51 509.576C951.2 500.337 914.424 477.575 881.301 456.519C847.588 435.095 814.454 411.007 786.516 381.561C771.433 365.659 761.139 346.988 747.744 329.906C730.895 308.459 692.779 316.582 670.127 318.397C632.524 321.411 514.204 343.963 525.122 270.919C529.679 240.431 547.625 212.294 560.75 185.389C566.189 174.224 574.062 160.824 575.292 148.03C576.633 134.095 564.595 120.858 556.8 110.955Z" stroke="#FFCA49" stroke-width="1.935"/>
<path fill-rule="evenodd" clip-rule="evenodd" d="M570.489 113.749C550.674 83.9373 526.96 55.7735 509.958 23.5755C498.929 2.7233 488.098 -25.1378 502.326 -47.2009C518.385 -72.0989 553.795 -77.9028 579.814 -81.0755C606.621 -84.3413 638.624 -87.0889 660.534 -105.968C667.504 -111.981 673.251 -120.09 674.321 -129.8C675.352 -139.115 672.44 -148.429 673.405 -157.912C675.567 -179.206 687.804 -196.752 703.582 -209.478C750.253 -247.124 819.718 -255.496 876.029 -256.479C904.215 -256.968 933.223 -254.401 961.591 -252.562C998.402 -250.175 1035.27 -245.052 1070.37 -232.705C1145.02 -206.462 1195.05 -148.26 1229.99 -75.8362C1240.99 -53.0397 1249.4 -28.3745 1266.63 -10.0547C1275.52 -0.594924 1273.58 6.19864 1264.49 14.8259C1250.29 28.3082 1232.97 38.6121 1217.21 49.8648C1194.79 65.8678 1171.9 82.1094 1152.07 101.279C1138.41 114.494 1128.7 127.225 1125.76 147.041C1123.66 161.17 1124.15 175.566 1122.89 189.782C1120.48 216.787 1112.25 243.589 1097.67 265.989C1086.09 283.745 1072.31 299.881 1058.05 315.267C1039.53 335.299 1023.86 355.65 1009.8 379.425C991.144 410.895 964.938 468.946 921.007 453.583C872.555 436.631 827.14 393.559 796.054 351.826C785.614 337.814 777.044 320.629 762.965 310.296C741.888 294.852 720.501 295.393 695.431 295.457C657.898 295.545 576.224 304.143 575.342 244.811C574.994 221.304 584.634 199.078 589.25 176.468C594.456 151.145 584.022 134.065 570.489 113.749Z" stroke="#FFCA49" stroke-width="1.935"/>
<path fill-rule="evenodd" clip-rule="evenodd" d="M585.249 116.407C565.65 77.5529 521.7 13.7079 555.127 -29.4972C572.784 -52.3302 604.015 -60.9107 630.214 -66.0241C651.297 -70.1602 676.724 -71.7134 692.653 -89.2468C704.362 -102.138 699.164 -120.899 703.65 -137.036C709.218 -157.042 721.997 -173.412 737.701 -185.715C781.584 -220.101 842.6 -230.654 895.389 -232.899C950.214 -235.226 1010.62 -224.342 1062.21 -203.406C1126.54 -177.292 1174.73 -127.845 1208.44 -65.2271C1214.66 -53.6682 1220.31 -41.8067 1226.28 -30.1081C1230.29 -22.2605 1236.24 -14.6689 1239.4 -6.41416C1244.66 7.34959 1238.46 18.6003 1228.52 27.5706C1214.21 40.485 1196.65 49.6763 1180.34 59.368C1158.04 72.6314 1135.25 85.6564 1114.51 101.218C1100.57 111.689 1085.98 122.969 1080.99 141.136C1077.59 153.527 1076.88 166.651 1077 179.484C1077.27 207 1075.9 229.251 1063.73 254.451C1043.7 295.824 1012.9 333.026 980.358 363.98C954.822 388.273 914.415 426.01 877.208 409.768C843.825 395.224 824.298 360.414 802.304 332.27C791.61 318.587 779.598 306.092 765.483 296.359C747.688 284.091 730.936 278.942 709.853 276.935C674.367 273.555 620.861 272.677 609.892 227.767C605.842 211.194 608.154 194.027 606.029 177.238C603.254 155.039 595.137 136.005 585.249 116.407Z" stroke="#FFCA49" stroke-width="1.935"/>
<path fill-rule="evenodd" clip-rule="evenodd" d="M605.627 117.845C591.671 75.3315 573.336 21.7528 607.044 -16.0319C623.372 -34.336 646.339 -44.5684 668.566 -52.2151C684.486 -57.6952 709.763 -59.3084 719.523 -76.1566C726.692 -88.5554 727.684 -105.66 734.169 -118.944C743.08 -137.207 756.579 -152.25 772.416 -164.026C813.673 -194.711 867.409 -206.568 916.414 -209.964C1022.89 -217.331 1131.24 -158.656 1188.22 -62.1213C1205.21 -33.346 1227.14 -2.71877 1199.68 26.6797C1169.7 58.7512 1124.55 73.7766 1088.77 96.565C1075.1 105.266 1057.68 115.725 1050.06 131.479C1045.47 140.948 1045.15 152.829 1044.95 163.253C1044.39 189.804 1042.3 213.681 1032.19 238.456C1016.56 276.741 991.639 312.062 963.401 340.995C938.774 366.223 903.654 395.872 867.889 377.685C840.467 363.708 823.075 334.041 801.768 312.173C778.057 287.818 748.732 271.406 716.529 263.387C685.203 255.607 650.844 250.359 634.334 217.304C628.671 205.965 622.754 191.283 620.631 178.733C617.204 158.04 612.186 137.677 605.627 117.845Z" stroke="#FFCA49" stroke-width="1.935"/>
<path fill-rule="evenodd" clip-rule="evenodd" d="M628.351 118.145C621.894 75.2155 621.177 30.4518 651.176 -3.38302C665.176 -19.1679 682.874 -30.3822 700.771 -40.5425C713.938 -48.0187 727.535 -54.3245 737.369 -66.581C746.48 -77.9291 753.406 -91.1055 762.203 -102.751C773.806 -118.183 787.69 -131.542 803.321 -142.315C842.503 -169.267 890.166 -181.873 935.766 -186.246C957.84 -188.371 981.785 -189.478 1003.71 -183.684C1024.88 -178.094 1045.82 -169.256 1065.29 -158.95C1106.68 -137.063 1142.55 -105.01 1168.55 -64.4849C1186.38 -36.688 1196.02 -9.65973 1172.94 18.5389C1146.9 50.3242 1106.09 67.8617 1072.45 88.491C1049.38 102.64 1023.52 116.509 1019.21 146.577C1015.77 170.502 1012.99 193.209 1004.11 215.824C990.892 249.181 971.462 279.398 946.968 304.682C924.569 327.716 896.231 347.262 864.19 334.959C838.805 325.195 819.11 303.32 796.931 287.68C772.213 270.213 745.057 260.582 716.46 252.838C690.76 245.851 666.561 235.114 649.95 212.319C646.551 207.661 642.981 202.59 640.359 197.378C637.015 190.729 637.275 184.138 636.618 176.685C634.907 157.017 631.27 137.575 628.351 118.145Z" stroke="#FFCA49" stroke-width="1.935"/>
<path fill-rule="evenodd" clip-rule="evenodd" d="M653.407 114.636C653.959 73.8591 663.253 35.3218 688.709 3.54361C699.592 -10.0506 712.588 -21.2479 724.563 -33.7049C734.205 -43.7474 743.317 -53.0785 754.404 -61.354C780.704 -80.9493 802.079 -106.306 830.028 -123.756C867.338 -147.083 910.075 -159.978 952.482 -165.133C973.189 -167.652 994.58 -168.533 1015.53 -165.687C1033.52 -163.243 1050.75 -154.665 1066.74 -145.888C1098.07 -128.695 1128.49 -104.259 1148.83 -73.3444C1193.68 -5.18678 1105.26 44.3671 1059.87 73.3867C1039 86.736 1007.11 102.196 998.557 128.638C992.445 147.528 988.722 166.738 980.85 185.045C959.708 234.208 916.788 292.031 859.593 284.333C835.119 281.044 812.813 267.683 789.966 258.714C766.44 249.476 742.159 244.326 717.707 238.675C694.854 233.397 676.64 225.886 661.88 205.748C654.825 196.131 655.448 184.619 654.819 172.821C653.793 153.442 653.159 133.951 653.407 114.636Z" stroke="#FFCA49" stroke-width="1.935"/>
<path fill-rule="evenodd" clip-rule="evenodd" d="M676.222 109.413C685.41 47.8641 719.537 -19.3299 769.716 -55.0743C828.741 -97.1215 892.687 -132.528 963.209 -142.707C995.906 -147.427 1031.72 -149.749 1062.57 -134.315C1086.05 -122.577 1113.33 -105.03 1126.25 -80.355C1157.86 -19.9992 1087.54 28.0481 1047.48 55.9709C1025.91 71.0031 998.457 85.6512 982.2 107.603C972.768 120.331 967.953 137.167 960.338 151.146C937.261 193.507 899.275 227.675 851.956 233.785C830.078 236.608 808.039 233.116 786.326 230.34C764.1 227.5 741.597 225.958 719.509 221.995C701.877 218.829 681.097 213.469 674.603 193.56C666.414 168.471 672.472 134.548 676.222 109.413Z" stroke="#FFCA49" stroke-width="1.935"/>
<path fill-rule="evenodd" clip-rule="evenodd" d="M698.595 99.5258C711.996 41.6594 740.374 -14.7857 788.079 -49.3308C813.377 -67.6489 842.745 -80.2938 870.94 -92.7874C902.9 -106.947 936.293 -117.938 970.398 -123.389C1012.86 -130.181 1081.64 -136.302 1103.82 -85.2505C1125.84 -34.5774 1070.2 10.2712 1037.29 35.8291C1016.2 52.2018 993.618 67.229 973.461 85.1276C962.531 94.8312 954.111 106.043 944.862 117.424C919.298 148.958 882.854 173.922 845.708 187.249C809.707 200.167 765.169 205.887 727.166 201.618C710.768 199.783 699.048 193.591 694.089 175.99C687.217 151.521 693.055 123.43 698.595 99.5258Z" stroke="#FFCA49" stroke-width="1.935"/>
<path fill-rule="evenodd" clip-rule="evenodd" d="M720.825 83.94C734.138 32.9908 762.853 -13.5443 804.738 -44.1231C851.688 -78.4024 912.145 -97.4504 967.712 -107.137C997.248 -112.282 1061.25 -126.231 1076.31 -86.3081C1091.36 -46.3852 1047.84 -7.04231 1022.79 14.6157C992.392 40.8617 959.614 66.2029 926.875 89.7518C898.43 110.227 868.077 131.16 837.267 146.971C819.891 155.941 801.79 163.264 783.178 168.855C769.397 172.962 751.872 179.087 737.423 176.03C700.98 168.31 714.458 108.301 720.825 83.94Z" stroke="#FFCA49" stroke-width="1.935"/>
<path fill-rule="evenodd" clip-rule="evenodd" d="M748.267 68.6834C777.477 -27.6674 870.023 -75.0545 959.13 -91.5717C979.837 -95.4057 1037.88 -109.229 1049.46 -79.7961C1060.67 -51.2591 1025 -17.4162 1008.3 -1.38198C956.557 48.3032 892.625 85.1424 832.045 121.638C813.135 133.03 779.031 157.75 755.575 146.347C730.107 133.943 742.216 88.6622 748.267 68.6834Z" stroke="#FFCA49" stroke-width="1.935"/>
<path fill-rule="evenodd" clip-rule="evenodd" d="M778.187 50.1385C803.59 -20.8167 877.475 -61.5122 945.405 -74.928C962.043 -78.2107 1004.3 -88.4311 1016.9 -68.6305C1028.56 -50.314 1000.73 -23.7734 990.321 -13.227C967.142 10.2579 939.671 29.6045 912.532 48.2004C887.439 65.4052 862.075 83.0407 835.672 97.5914C821.765 105.251 795.682 121.594 779.879 109.768C762.865 97.0443 772.547 65.8941 778.187 50.1385Z" stroke="#FFCA49" stroke-width="1.935"/>
<path fill-rule="evenodd" clip-rule="evenodd" d="M811.158 29.4078C830.519 -16.9288 882.374 -47.0183 928.117 -57.017C940.425 -59.7016 967.027 -66.6663 977.41 -54.2916C986.969 -42.8953 971.563 -26.188 964.726 -18.472C934.423 15.7287 890.047 46.2782 849.388 65.0411C839.166 69.758 820.789 79.0172 810.273 69.496C799.486 59.7186 806.711 40.0471 811.158 29.4078Z" stroke="#FFCA49" stroke-width="1.935"/>
<path fill-rule="evenodd" clip-rule="evenodd" d="M846.135 9.94367C857.045 -13.0653 885.56 -30.4248 909.18 -35.9507C925.803 -39.8365 945.784 -36.4798 931.297 -16.4513C916.905 3.42428 890.202 21.5775 867.569 29.6253C850.301 35.7626 836.767 29.7076 846.135 9.94367Z" stroke="#FFCA49" stroke-width="1.935"/>
<path fill-rule="evenodd" clip-rule="evenodd" d="M-38.5819 169.307C-39.2816 123.849 -62.1743 76.6059 -50.8685 30.2876C-41.5847 -7.75357 5.15384 -10.9295 33.1926 -28.1644C55.4737 -41.8569 68.1184 -66.1125 80.168 -89.3851C90.9945 -110.279 100.719 -131.8 112.124 -152.351C119.507 -165.636 132.185 -191.724 148.196 -192.195C163.524 -192.649 177.579 -172.319 186.483 -160.302C198.091 -144.638 208.384 -127.938 219.656 -112.024C238.654 -85.1796 261.447 -65.3098 287.546 -46.5044C317.247 -25.1067 347.438 -4.44002 378.12 15.4957C400.71 30.2178 423.454 44.8293 445.167 61.0055C458.787 71.1557 488.848 90.1995 488.986 108.912C489.052 117.84 481.035 127.729 475.63 134.866C466.484 146.947 456.06 157.993 445.602 168.801C426.126 188.932 405.823 208.15 385.74 227.601C359.674 252.846 334.775 277.677 311.861 306.336C288.169 336.001 265.535 366.644 242.439 396.867C226.797 417.342 211.171 440.335 188.609 452.9C160.35 468.605 137.155 452.044 108.576 451.853C83.9917 451.684 85.8044 391.562 82.6804 374.845C79.5454 357.925 72.6363 342.173 69.9586 325.211C66.6197 304.039 66.5756 282.377 65.7547 260.978C64.7574 234.803 64.3608 209.884 37.8537 199.902C22.7683 194.231 6.44864 193.039 -9.16576 189.642C-19.2815 187.437 -38.3615 183.668 -38.5819 169.307Z" stroke="#FFCA49" stroke-width="1.935"/>
<path fill-rule="evenodd" clip-rule="evenodd" d="M-26.4962 161.22C-29.0731 123.116 -44.2973 74.3446 -29.9008 35.0108C-17.6011 1.39772 20.865 -2.95973 46.7666 -20.6168C68.1489 -35.1805 77.6675 -59.0127 88.3559 -82.4253C96.9309 -101.207 105.247 -120.169 114.98 -138.35C122.154 -151.749 133.107 -174.369 148.022 -177.142C161.431 -179.635 175.811 -159.666 183.338 -149.506C194.318 -134.674 203.71 -118.567 213.411 -102.797C230.456 -75.0969 247.909 -50.187 272.856 -29.8386C297.914 -9.40275 325.327 5.87755 353.033 21.7812C374.708 34.2244 396.272 47.0288 416.866 61.3945C432.206 72.0901 454.261 85.78 461.28 104.853C466.837 119.941 438.656 144.979 430.346 153.816C413.24 171.986 395.114 189.043 376.954 205.995C354.816 226.652 331.971 244.717 312.421 268.281C277.453 310.411 248.224 362.876 203.23 394.188C176.092 413.074 145.892 417.903 115.709 415.078C103.757 413.959 100.887 396.151 99.3809 385.764C96.8757 368.509 96.5612 350.957 94.6354 333.632C92.831 317.413 88.8249 302.005 85.5969 286.101C82.3302 269.988 81.4142 253.479 79.0084 237.255C77.5185 227.182 76.0452 215.461 69.5284 207.364C62.7854 198.981 51.6611 195.468 41.9383 192.8C23.6792 187.837 -24.6752 188.111 -26.4962 161.22Z" stroke="#FFCA49" stroke-width="1.935"/>
<path fill-rule="evenodd" clip-rule="evenodd" d="M-10.942 145.269C-15.2758 110.292 -21.3432 66.7276 -3.68776 34.5024C10.7435 8.15316 41.5218 2.46908 63.5056 -14.6995C81.7904 -28.9766 88.6969 -51.6838 97.773 -72.7853C105.221 -90.0935 112.707 -107.477 121.733 -123.948C128.579 -136.439 137.401 -153.375 150.993 -157.732C162.614 -161.456 175.743 -144.776 182.186 -136.474C193.155 -122.325 202.099 -106.471 210.982 -90.8266C225.513 -65.2279 238.884 -37.8838 259.565 -17.0616C279.66 3.14394 303.532 15.0706 327.851 28.4808C346.478 38.7552 364.989 49.4252 382.54 61.6777C396.016 71.0794 412.717 82.2207 419.739 97.865C425.812 111.357 410.221 127.327 402.431 136.845C389.568 152.553 375.291 166.964 361.213 181.433C346.02 197.042 329.193 211.442 314.491 227.435C283.575 261.092 258.875 298.355 220.77 324.14C196.092 340.843 162.885 356.016 133.713 353.288C112.734 351.321 114.115 302.323 112.099 286.667C108.787 261.068 102.388 234.172 92.2246 210.592C83.4963 190.387 62.7548 184.156 43.675 179.624C31.7225 176.779 19.1959 175.243 7.63536 170.845C-5.74699 165.748 -9.12571 159.93 -10.942 145.269Z" stroke="#FFCA49" stroke-width="1.935"/>
<path fill-rule="evenodd" clip-rule="evenodd" d="M3.56756 128.874C0.98717 99.3026 1.56735 64.334 18.2819 38.7536C32.9298 16.3475 59.01 10.4484 77.559 -7.20228C92.0356 -20.9727 97.7213 -43.4255 105.507 -61.6363C115.022 -83.9024 128.354 -125.027 152.357 -133.406C174.685 -141.196 198.036 -91.4353 206.12 -76.5971C218.917 -53.1115 229.62 -27.3561 245.141 -5.66769C258.507 13.0041 276.415 23.3261 295.422 34.4183C319.657 48.5855 356.451 65.3842 369.408 92.9951C379.067 113.569 347.66 144.156 336.935 158.41C325.718 173.301 317.27 190.952 305.694 205.317C287.427 227.986 257.827 246.238 233.388 260.166C209.628 273.714 178.774 288.71 151.821 287.817C134.106 287.234 130.736 258.363 126.957 244.26C121.542 224.211 114.342 206.245 98.8762 192.609C83.1341 178.728 64.5797 172.187 45.0748 166.463C35.0627 163.545 23.6416 161.27 14.6848 155.376C4.7887 148.964 4.56214 140.24 3.56756 128.874Z" stroke="#FFCA49" stroke-width="1.935"/>
<path fill-rule="evenodd" clip-rule="evenodd" d="M21.2477 111.829C21.3909 86.282 26.9259 59.0391 43.3384 39.3326C57.0081 22.9184 78.4049 17.4315 91.4909 0.65138C101.856 -12.6333 107.132 -31.283 114.072 -46.7103C122.559 -65.6154 134.56 -98.6414 155.665 -105.202C176.263 -111.589 194.482 -75.2131 202.38 -60.8194C213.946 -39.7137 223.308 -17.3422 234.979 3.70544C244.121 20.2184 255.302 30.8613 270.189 41.5041C287.664 54.005 312.046 67.8529 321.381 88.5348C328.111 103.509 311.82 127.437 305.905 140.628C301.94 149.489 298.31 158.489 296.316 168.092C294.763 175.571 294.609 182.492 290.109 188.913C278.78 205.066 253.941 207.174 237.088 212.498C214.706 219.565 190.957 227.595 167.533 229.127C153.137 230.085 145.79 216.087 137.572 206.239C127.863 194.598 114.116 186.225 102.109 177.44C86.2642 165.828 69.0201 158.605 51.1812 151.207C43.1346 147.869 33.6837 144.594 27.4492 137.958C20.9393 131.077 21.1981 121.05 21.2477 111.829Z" stroke="#FFCA49" stroke-width="1.935"/>
<path fill-rule="evenodd" clip-rule="evenodd" d="M39.815 96.6629C42.6598 75.2064 51.525 54.6991 66.4987 39.5311C77.9771 27.8858 93.221 21.3295 102.433 7.33764C111.017 -5.70509 116.999 -20.5354 124.089 -34.4806C131.593 -49.2236 142.74 -73.865 160.046 -77.8768C178.697 -82.1972 193.064 -57.3403 201.02 -43.5639C211.07 -26.1542 218.706 -7.42278 227.692 10.5867C234.462 24.0099 243.098 36.2864 253.312 47.0073C264.024 58.3091 278.551 69.1334 283.971 84.674C288.762 98.4388 279.797 115.092 278.215 129.048C276.523 143.96 279.489 159.623 270.105 172.427C250.754 198.833 202.189 193.936 174.424 194.501C147.029 195.083 125.004 178.925 102.836 163.553C88.193 153.405 72.9436 144.81 57.9313 135.354C42.6267 125.706 37.312 115.546 39.815 96.6629Z" stroke="#FFCA49" stroke-width="1.935"/>
<path fill-rule="evenodd" clip-rule="evenodd" d="M57.0671 84.3822C65.4797 53.298 91.7548 36.7768 110.538 13.2859C125.907 -5.94503 137.431 -45.7706 163.315 -51.0387C192.701 -57.0178 210.293 -4.24919 220.51 16.1123C231.846 38.6941 252.037 57.0626 260.433 80.9673C264.846 93.514 261.056 105.222 258.706 117.762C256.13 131.533 254.194 145.612 245.301 156.696C227.797 178.509 193.611 178.357 168.991 178.958C143.505 179.581 120.959 164.634 100.653 149.715C79.1165 133.916 48.4503 116.259 57.0671 84.3822Z" stroke="#FFCA49" stroke-width="1.935"/>
<path fill-rule="evenodd" clip-rule="evenodd" d="M71.1584 75.9533C80.6379 53.8068 100.558 35.8022 116.722 18.8056C130.214 4.63597 144.727 -23.8886 165.298 -25.922C189.474 -28.3203 204.127 2.13919 213.64 20.8158C223.003 39.1679 236.494 58.5454 241.678 78.6876C247.085 99.6697 232.688 127.928 218.957 142.775C203.644 159.332 178.589 165.449 157.091 164.789C134.581 164.117 113.927 150.434 96.8797 136.241C78.6542 121.069 60.1342 101.663 71.1584 75.9533Z" stroke="#FFCA49" stroke-width="1.935"/>
<path fill-rule="evenodd" clip-rule="evenodd" d="M84.2332 71.7834C93.2881 53.3634 108.984 37.7813 123.456 23.8821C134.625 13.1516 151.105 -5.0943 167.218 -5.54116C184.944 -6.03445 199.967 9.28074 207.014 24.979C213.961 40.4624 221.28 59.8748 222.32 76.8614C224.578 113.852 178.603 155.289 144.08 151.917C111.348 148.719 66.179 108.484 84.2332 71.7834Z" stroke="#FFCA49" stroke-width="1.935"/>
<path fill-rule="evenodd" clip-rule="evenodd" d="M96.3229 69.7524C108.815 45.7526 139.157 11.5377 167.248 10.7251C199.492 9.79645 207.587 47.8711 203.384 75.4637C199.114 103.625 161.939 144.387 132.297 138.879C103.367 133.504 81.5185 98.2156 96.3229 69.7524Z" stroke="#FFCA49" stroke-width="1.935"/>
<path fill-rule="evenodd" clip-rule="evenodd" d="M109.091 65.872C119.667 45.7774 142.236 20.6779 165.775 19.9182C193.823 19.0193 193.294 51.1649 186.934 71.1726C180.32 91.9457 151.192 127.426 126.634 121.824C102.753 116.355 98.9555 85.1315 109.091 65.872Z" stroke="#FFCA49" stroke-width="1.935"/>
<path fill-rule="evenodd" clip-rule="evenodd" d="M120.21 63.5592C127.191 49.2208 144.663 31.0986 161.273 30.5187C181.575 29.8217 177.629 55.3181 172.383 67.6241C166.148 82.2671 145.249 107.711 127.711 103.587C110.443 99.5283 114.45 75.3732 120.21 63.5592Z" stroke="#FFCA49" stroke-width="1.935"/>
<path fill-rule="evenodd" clip-rule="evenodd" d="M1075.25 882.807C1030.32 911.575 979.517 935.321 931.613 959.457C861.607 994.724 790.569 1029.04 717.011 1055.31C677.574 1069.4 626.471 1089.7 584.154 1078.66C568.682 1074.63 554.573 1062.44 540.701 1054.51C521.572 1043.58 502.162 1033.2 482.785 1022.79C443.916 1001.92 404.925 981.265 366.723 959.061C348.328 948.366 330.479 934.896 311.328 925.772C300.137 920.436 286.745 922.933 274.787 923.27C247.087 924.056 219.403 925.545 191.72 926.814C157.858 928.362 123.92 930.008 90.0202 929.397C74.7306 929.118 37.2842 931.981 28.8672 918.086C24.3388 910.603 35.0117 897.109 39.9593 890.866C49.0438 879.391 59.4851 869.051 69.7885 858.816C93.6165 835.146 118.923 812.604 140.103 786.164C150.986 772.571 165.244 755.965 158.14 737.409C150.969 718.667 138.548 702.438 130.969 683.76C122.243 662.266 118.625 639.899 114.505 617.107C111.454 600.262 104.35 585.337 97.6706 569.807C90.2905 552.641 82.6456 535.331 77.5215 517.229C74.1348 505.271 68.6688 483.76 80.5166 476.189C97.3506 465.425 128.917 474.141 148.107 477.312C174.626 481.688 200.953 487.262 227.401 492.063C246.601 495.554 265.868 499.383 285.388 499.79C316.855 500.448 348.427 498.172 379.812 496.054C437.926 492.133 495.623 486.814 553.933 486.814C605.019 486.814 723.073 549.174 750.707 560.153C805.865 582.073 862.489 602.851 914.685 632.015C928.805 639.911 950.537 650.431 957.967 666.682C962.55 676.696 960.443 682.486 971.254 688.939C986.003 697.743 1004.9 701.199 1021.23 705.138C1047.52 711.481 1074.02 716.851 1100.43 722.594C1153.86 734.18 1206.92 747.283 1260.12 759.892C1276.21 763.704 1295.67 764.547 1311 771.262C1320.89 775.574 1319.86 781.003 1312.21 787.555C1298.79 799.052 1279.98 805.435 1264.13 811.993C1240.9 821.6 1217.3 830.171 1193.68 838.62C1170.06 847.068 1146.32 855.255 1122.69 863.721C1107.08 869.296 1089.28 873.829 1075.25 882.807Z" stroke="#FFCA49" stroke-width="1.935"/>
<path fill-rule="evenodd" clip-rule="evenodd" d="M1038.28 876.48C990.744 905.306 937.98 928.27 887.114 950.675C822.014 979.367 755.442 1006.26 686.85 1024.19C646.576 1034.72 599.059 1046.34 557.908 1034.27C543.227 1029.96 532.26 1020.28 519.675 1011.74C505.331 1001.99 490.436 993.061 475.54 984.268C444.877 966.169 413.89 948.688 382.58 931.825C365.996 922.857 347.74 910.847 329.005 907.736C314.109 905.259 297.189 908.843 282.227 909.886C255.282 911.762 228.343 913.697 201.387 915.34C170.283 917.234 139.09 918.982 107.919 918.679C90.5466 918.51 60.722 921.301 48.4358 909.455C37.7164 899.118 76.7432 861.731 83.6063 854.628C105.04 832.451 127.582 811.333 147.531 787.617C159.321 773.632 173.676 756.623 178.646 738.088C182.878 722.291 174.713 704.291 169.891 689.688C163.861 671.397 158.995 652.436 151.989 634.53C145.749 618.575 135.818 604.363 127.096 589.86C117.502 573.905 107.787 557.688 100.665 540.283C96.3007 529.573 89.0791 511.637 97.7517 501.428C107.77 489.658 138.654 497.35 151.349 499.028C177.102 502.477 202.656 507.605 228.233 512.197C270.713 519.819 311.213 526.485 354.471 524.888C410.804 522.802 467.083 517.896 523.405 515.18C544.204 514.166 565.334 512.127 586.149 513.228C598.082 513.863 607.169 517.709 614.109 526.386C623.587 538.226 645.417 544.782 660.6 551.576C684.273 562.164 708.244 572.011 732.149 581.987C784.626 603.897 838.113 625.014 887.881 653.351C903.626 662.313 921.656 672.306 933.302 687.113C939.801 695.37 938.162 703.324 942.129 712.099C947.381 723.642 964.649 728.852 974.971 732.628C994.893 739.923 1015.63 744.812 1036.21 749.392C1082.77 759.752 1129.45 766.564 1176.76 771.581C1187.85 772.747 1231.52 776.785 1208.59 796.247C1183.25 817.755 1146.66 828.296 1116.83 840.416C1089.96 851.313 1063.06 861.452 1038.28 876.48Z" stroke="#FFCA49" stroke-width="1.935"/>
<path fill-rule="evenodd" clip-rule="evenodd" d="M972.585 871.148C927.905 896.509 878.409 915.428 830.288 933.528C771.895 955.49 712.038 975.068 650.795 986.034C612.323 992.917 569.907 998.205 531.694 986.767C505.599 978.96 485.413 957.852 462.493 943.331C439.573 928.81 415.725 915.178 391.165 903.816C375.922 896.765 359.524 889.661 342.564 890.592C301.324 892.849 260.135 898.231 218.851 900.843C191.541 902.588 164.175 904.025 136.782 903.595C120.263 903.339 97.5692 904.386 82.9446 895.217C66.7792 885.076 152.853 798.495 160.988 788.75C181.384 764.314 206.083 731.885 202.139 697.135C198.367 663.915 182.019 639.113 163.529 613.084C153.035 598.278 119.385 558.722 131.855 539.464C138.98 528.457 162.463 532.268 173.619 533.018C195.606 534.496 217.471 537.673 239.341 540.43C271.23 544.427 303.998 550.6 336.025 552.409C358.326 553.666 380.76 551.985 403.1 551.95C435.132 551.903 467.165 552.159 499.198 552.462C526.094 552.718 553.217 552.462 580.019 555.184C596.682 556.86 609.329 560.624 621.281 571.259C631.68 580.51 647.371 585.926 660.626 591.808C682.518 601.518 704.698 610.518 726.806 619.664C773.093 638.817 819.911 657.568 864.215 681.503C884.44 692.423 918.444 707.712 923.188 734.189C924.901 743.737 926.16 747.861 934.996 753.29C947.539 760.992 962.561 764.466 976.633 767.485C1009.44 774.525 1043.19 773.472 1075.95 780.43C1089.28 783.298 1106.7 789.488 1091.47 803.661C1073.7 820.236 1047.84 829.347 1026.55 839.586C1015.93 844.694 1004.98 849.477 994.892 855.714C987.143 860.519 980.51 866.68 972.585 871.148Z" stroke="#FFCA49" stroke-width="1.935"/>
<path fill-rule="evenodd" clip-rule="evenodd" d="M887.96 863.231C846.681 883.829 801.851 898.805 757.826 912.305C708.927 927.281 658.847 939.685 608.106 944.963C573.069 948.62 535.739 949.699 501.733 938.507C480.228 931.428 465.648 916.539 447.143 904.053C419.214 885.181 388.996 870.229 355.443 873.868C317.825 877.938 280.084 880.992 242.221 883.03C219.381 884.26 196.453 885.182 173.586 884.324C159.128 883.788 140.501 882.884 127.923 875.973C111.094 866.718 174.308 796.293 182.188 786.029C201.73 760.574 216.056 733.864 224.426 702.326C231.253 676.59 217.308 656.36 202.921 637.109C193.977 625.154 165.078 595.085 174.126 579.561C179.089 571 195.444 571.443 204.228 571.005C220.969 570.177 237.782 571.04 254.523 571.42C279.243 572.003 305.556 567.996 330.067 571.221C384.386 578.359 438.568 584.541 493.225 589.434C523.354 592.128 553.665 594.578 583.524 599.774C594.244 601.64 605.316 603.617 615.473 607.839C622.007 610.551 625.57 615.17 631.084 618.96C657.375 637.004 691.695 646.288 721.306 657.853C760.672 673.225 800.247 688.359 838.565 706.519C858.719 716.071 886.868 727.047 900.737 746.542C904.927 752.432 903.141 757.145 905.776 762.807C908.809 769.339 918.023 771.287 923.973 773.106C937.477 777.241 994.003 783.493 967.954 807.747C955.525 819.3 939.688 826.712 925.677 835.792C920.604 839.081 915.658 842.388 911.428 846.826C904.354 854.267 897.384 858.513 887.96 863.231Z" stroke="#FFCA49" stroke-width="1.935"/>
<path fill-rule="evenodd" clip-rule="evenodd" d="M797.792 854.312C716.303 887.637 620.8 910.341 531.955 905.942C502.411 904.474 470.623 899.574 445.012 882.807C429.911 872.903 417.843 861.723 399.703 858.146C386.607 855.565 372.506 858.495 359.334 859.556C340.254 861.094 321.163 862.469 302.056 863.582C278.368 864.939 254.603 865.988 230.871 865.428C213.914 865.026 190.497 865.481 175.766 855.868C158.178 844.402 202.946 790.617 209.245 781.033C224.512 757.805 235.214 735.299 239.082 707.305C240.221 699.149 244.055 690.789 243.558 682.568C243.039 674.173 238.137 666.698 233.612 660.097C227.694 651.446 207.161 630.927 213.041 620.376C216.29 614.55 228.484 613.816 234.805 612.581C246.663 610.25 258.692 608.998 270.622 607.145C290.862 603.987 310.958 593.704 331.27 593.996C385.889 594.765 441.299 612.639 494.824 622.456C526.645 628.311 558.682 633.624 590.117 641.553C600.063 644.064 610.307 646.663 619.761 650.921C626.359 653.893 630.597 659.188 636.708 662.515C660.141 675.291 687.089 683.046 712.252 691.645C744.919 702.831 777.696 713.679 810.136 725.587C830.47 733.05 856.617 739.616 874.138 753.459C886.935 763.567 878.188 766.591 871.436 776.005C867.988 780.806 868.784 785.537 867.287 790.972C865.148 798.732 859.103 804.32 853.434 809.342C845.616 816.28 835.2 821.996 828.807 830.502C826.553 833.496 826.658 837.213 824.834 839.823C819.53 847.426 805.456 851.178 797.792 854.312Z" stroke="#FFCA49" stroke-width="1.935"/>
<path fill-rule="evenodd" clip-rule="evenodd" d="M711.152 842.44C645.014 863.392 571.424 875.321 501.513 869.785C477.189 867.856 452.716 863.374 430.057 853.531C419.749 849.066 412.01 844.089 400.714 843.821C374.504 843.203 348.211 845.366 322.006 845.884C303.252 846.257 284.405 846.391 265.696 844.8C253.187 843.74 236.27 842.469 226.022 834.374C211.13 822.584 238.013 782.505 243.485 771.432C252.553 753.068 261.549 732.653 257.952 711.404C256.849 704.906 254.897 699.165 254.643 692.539C254.4 686.845 255.079 681.588 253.165 676.145C250.799 669.396 240.275 658.923 243.893 652.711C246.358 648.468 253.672 648.27 258.537 646.912C266.427 644.71 274.132 641.821 281.57 638.275C289.403 634.522 296.071 628.723 304.185 625.622C317.356 620.599 332.099 620.127 345.944 620.149C401.183 620.243 457.123 631.742 510.961 643.765C538.997 650.024 567.188 656.697 594.435 666.191C602.708 669.076 612.085 671.972 619.36 677.299C623.9 680.615 626.977 684.77 632.135 687.265C676.188 708.56 727.12 716.469 773.887 731.849C786.06 735.852 853.522 756.081 818.249 775.11C796.821 786.672 774.179 791.929 754.626 807.746C748.669 812.554 744.698 816.535 742.37 823.872C740.837 828.756 744.527 826.279 739.375 831.384C733.126 837.521 718.857 839.998 711.152 842.44Z" stroke="#FFCA49" stroke-width="1.935"/>
<path fill-rule="evenodd" clip-rule="evenodd" d="M642.384 830.051C564.951 847.152 482.949 847.966 404.294 832.805C384.466 828.987 363.83 829.9 343.758 828.929C324.256 828 289.583 829.935 275.418 814.112C265.147 802.641 276.292 778.265 280.147 765.434C285.059 749.088 289.351 732.202 281.287 716.327C276.563 707.029 270.092 698.179 265.026 688.969C262.603 684.57 257.614 677.83 259.694 673.663C263.134 666.789 279.229 663.895 287.039 660.653C312 650.292 338.432 647.648 365.119 647.722C414.41 647.857 463.956 654.97 512.308 664.616C534.553 669.055 557.108 673.791 578.563 681.508C590.703 685.872 599.657 694.292 611.25 699.283C648.578 715.368 688.683 723.962 726.653 738.669C737.643 742.929 778.693 757.107 758.013 773.825C737.991 790.008 708.788 788.085 687.97 803.309C685.614 805.053 682.699 807.139 681.333 809.957C680.525 811.642 681.947 814.85 681.333 815.808C674.939 826.227 652.212 827.883 642.384 830.051Z" stroke="#FFCA49" stroke-width="1.935"/>
</g>
</svg>
