<svg width="32" height="32" viewBox="0 0 32 32" fill="none" xmlns="http://www.w3.org/2000/svg">
<g clip-path="url(#clip0_671_568)">
<path d="M31.3622 8.24729C31.1812 7.56651 30.8247 6.94519 30.3282 6.4455C29.8317 5.94582 29.2127 5.5853 28.5331 5.40002C26.0312 4.7273 16.0312 4.72729 16.0312 4.72729C16.0312 4.72729 6.03125 4.7273 3.52943 5.40002C2.84982 5.5853 2.2308 5.94582 1.7343 6.4455C1.2378 6.94519 0.881257 7.56651 0.700341 8.24729C0.0312501 10.76 0.03125 16 0.03125 16C0.03125 16 0.0312501 21.24 0.700341 23.7527C0.881257 24.4335 1.2378 25.0549 1.7343 25.5545C2.2308 26.0542 2.84982 26.4147 3.52943 26.6C6.03125 27.2727 16.0312 27.2727 16.0312 27.2727C16.0312 27.2727 26.0312 27.2727 28.5331 26.6C29.2127 26.4147 29.8317 26.0542 30.3282 25.5545C30.8247 25.0549 31.1812 24.4335 31.3622 23.7527C32.0313 21.24 32.0312 16 32.0312 16C32.0312 16 32.0313 10.76 31.3622 8.24729Z" fill="#FF0302"/>
<path d="M12.7598 20.7583V11.2419L21.1234 16.0001L12.7598 20.7583Z" fill="#FEFEFE"/>
</g>
<defs>
<clipPath id="clip0_671_568">
<rect width="32" height="32" fill="white"/>
</clipPath>
</defs>
</svg>
