<svg width="32" height="32" viewBox="0 0 32 32" fill="none" xmlns="http://www.w3.org/2000/svg">
<path d="M29.7286 23.573C24.7732 21.1734 23.9834 17.4686 23.9483 17.1938C23.9058 16.861 23.8575 16.5993 24.2246 16.2607C24.5786 15.9336 26.1492 14.9612 26.585 14.6569C27.3053 14.1531 27.6225 13.6502 27.3887 13.0319C27.2252 12.6042 26.827 12.4431 26.4076 12.4431C26.2753 12.4435 26.1434 12.4583 26.0143 12.4872C25.2229 12.659 24.4544 13.0556 24.0096 13.1627C23.9561 13.1765 23.9013 13.1839 23.8461 13.1848C23.609 13.1848 23.519 13.0793 23.5419 12.7939C23.5975 11.9286 23.7153 10.2398 23.5787 8.66221C23.3915 6.49168 22.6916 5.41623 21.8618 4.46509C21.4603 4.00383 19.5962 2.02222 15.9988 2.02222C12.4015 2.02222 10.5398 4.00383 10.1408 4.45936C9.30851 5.4105 8.60947 6.48595 8.42388 8.65648C8.28734 10.2341 8.40998 11.9221 8.46067 12.7882C8.47703 13.0597 8.39363 13.1791 8.15653 13.1791C8.10135 13.1782 8.04647 13.1707 7.99301 13.157C7.54906 13.0499 6.78053 12.6532 5.9891 12.4815C5.86 12.4525 5.72814 12.4377 5.59584 12.4373C5.17478 12.4373 4.77825 12.6009 4.61473 13.0262C4.3809 13.6445 4.69649 14.1474 5.41924 14.6512C5.85502 14.9554 7.42561 15.927 7.77962 16.255C8.1459 16.5936 8.09848 16.8553 8.05597 17.1881C8.02081 17.467 7.2302 21.1718 2.27561 23.5672C1.98537 23.7079 1.49154 24.0056 2.36227 24.4865C3.72928 25.2421 4.63926 25.1612 5.34648 25.6167C5.94659 26.0036 5.59175 26.8377 6.02835 27.1387C6.56468 27.5092 8.14999 27.1125 10.1981 27.7889C11.915 28.3548 12.9582 29.9537 16.0029 29.9537C19.0476 29.9537 20.1211 28.3475 21.8078 27.7889C23.8518 27.1125 25.4404 27.5092 25.9775 27.1387C26.4133 26.8377 26.0593 26.0036 26.6594 25.6167C27.3666 25.1612 28.2758 25.2421 29.6436 24.4865C30.5127 24.0113 30.0189 23.7136 29.7286 23.573Z" fill="white"/>
<path d="M31.8856 23.2907C31.6632 22.6855 31.2397 22.3616 30.7573 22.0934C30.6666 22.0402 30.5832 21.9977 30.5121 21.965C30.3682 21.8905 30.221 21.8186 30.0746 21.7425C28.5711 20.9451 27.397 19.9392 26.5827 18.7468C26.3515 18.4111 26.1509 18.0553 25.9834 17.6836C25.9139 17.4849 25.9172 17.372 25.9671 17.269C26.0165 17.1896 26.082 17.1213 26.1592 17.0686C26.4176 16.8977 26.6841 16.7243 26.8648 16.6073C27.1869 16.3988 27.442 16.2336 27.6063 16.1166C28.2236 15.6848 28.6553 15.226 28.9251 14.7132C29.1134 14.3589 29.2231 13.9683 29.247 13.5678C29.2708 13.1673 29.2082 12.7663 29.0633 12.3922C28.6545 11.3159 27.6382 10.6478 26.4069 10.6478C26.1472 10.6475 25.8882 10.6749 25.6343 10.7296C25.5665 10.7443 25.4986 10.7598 25.4324 10.777C25.4438 10.0409 25.4275 9.264 25.3621 8.49933C25.1299 5.81111 24.1888 4.40198 23.2077 3.27828C22.5794 2.57412 21.8394 1.97838 21.0174 1.51503C19.5286 0.664482 17.8402 0.232666 15.9998 0.232666C14.1594 0.232666 12.4793 0.664482 10.9888 1.51503C10.1648 1.97852 9.42328 2.57545 8.79443 3.28155C7.81332 4.40525 6.87227 5.81683 6.64008 8.5026C6.57467 9.26727 6.55832 10.0483 6.56895 10.7803C6.50272 10.7631 6.43568 10.7476 6.36782 10.7328C6.11391 10.6782 5.85491 10.6508 5.5952 10.651C4.36309 10.651 3.34519 11.3192 2.93803 12.3955C2.7925 12.7698 2.72922 13.171 2.7525 13.5719C2.77578 13.9728 2.88506 14.364 3.07294 14.719C3.34356 15.2317 3.77525 15.6905 4.39253 16.1224C4.55604 16.2369 4.81195 16.4021 5.13408 16.6131C5.30823 16.7259 5.5625 16.8911 5.81186 17.0563C5.89911 17.1127 5.97326 17.1872 6.02934 17.2747C6.08167 17.3818 6.0833 17.4971 6.00563 17.7098C5.84043 18.0736 5.64315 18.422 5.41615 18.7509C4.61982 19.9163 3.4801 20.9042 2.02479 21.6951C1.2538 22.104 0.452563 22.3771 0.114081 23.2972C-0.141007 23.9915 0.0257811 24.7816 0.674129 25.4473C0.912079 25.6958 1.18806 25.9047 1.49172 26.0664C2.12354 26.4137 2.79539 26.6826 3.49236 26.8671C3.63619 26.9042 3.77273 26.9653 3.89625 27.0478C4.13253 27.2547 4.09901 27.5663 4.41378 28.0226C4.57179 28.2585 4.77256 28.4627 5.00572 28.6246C5.66633 29.0809 6.4087 29.1096 7.19522 29.1398C7.90571 29.1668 8.71103 29.1979 9.63082 29.5013C10.0118 29.6272 10.4075 29.871 10.8662 30.1556C11.9675 30.8327 13.4751 31.7593 15.9982 31.7593C18.5213 31.7593 20.0395 30.8278 21.149 30.1482C21.6044 29.8685 21.9977 29.6272 22.368 29.5046C23.2878 29.2003 24.0932 29.1701 24.8036 29.1431C25.5902 29.1128 26.3325 29.0842 26.9931 28.6278C27.2693 28.4352 27.4993 28.1839 27.6668 27.8918C27.8933 27.5066 27.8876 27.2375 28.1002 27.0494C28.216 26.9708 28.3443 26.9122 28.4795 26.876C29.186 26.691 29.867 26.4196 30.5071 26.068C30.8298 25.8949 31.1202 25.6675 31.3656 25.3958L31.3738 25.386C31.9821 24.735 32.135 23.9678 31.8856 23.2907ZM29.643 24.4962C28.2751 25.2518 27.366 25.1709 26.6588 25.6264C26.0578 26.0132 26.4135 26.8474 25.9769 27.1484C25.4405 27.5189 23.8552 27.1222 21.8072 27.7986C20.118 28.3571 19.0405 29.9634 16.0023 29.9634C12.9641 29.9634 11.9119 28.3604 10.195 27.7945C8.15098 27.1181 6.56241 27.5148 6.02525 27.1443C5.58948 26.8433 5.94349 26.0091 5.34338 25.6223C4.63535 25.1668 3.72619 25.2477 2.35918 24.4962C1.48845 24.0153 1.98227 23.7176 2.27252 23.5769C7.22711 21.1774 8.01772 17.4726 8.05287 17.1978C8.09539 16.8649 8.14281 16.6032 7.77653 16.2647C7.42251 15.9375 5.85192 14.9651 5.41615 14.6609C4.69503 14.1571 4.37781 13.6541 4.61164 13.0359C4.77516 12.6081 5.17414 12.447 5.59275 12.447C5.72505 12.4474 5.85691 12.4622 5.98601 12.4912C6.77743 12.6629 7.54597 13.0596 7.98992 13.1667C8.04337 13.1804 8.09826 13.1878 8.15344 13.1888C8.39054 13.1888 8.47393 13.0694 8.45758 12.7979C8.40689 11.9318 8.28425 10.2438 8.42079 8.66617C8.60802 6.49564 9.30705 5.42019 10.1377 4.46904C10.5367 4.01188 12.4114 2.03026 15.9966 2.03026C19.5817 2.03026 21.4613 4.0037 21.8603 4.45923C22.6918 5.41037 23.3917 6.48582 23.5773 8.65635C23.7138 10.234 23.5961 11.9228 23.5405 12.788C23.5217 13.0735 23.6075 13.179 23.8446 13.179C23.8998 13.1781 23.9547 13.1707 24.0081 13.1569C24.4529 13.0498 25.2214 12.6531 26.0129 12.4814C26.142 12.4524 26.2738 12.4376 26.4061 12.4372C26.8272 12.4372 27.2237 12.6008 27.3872 13.026C27.6211 13.6443 27.3055 14.1473 26.5835 14.6511C26.1478 14.9553 24.5772 15.9269 24.2232 16.2548C23.8561 16.5934 23.9043 16.8551 23.9468 17.188C23.982 17.4669 24.7718 21.1717 29.7272 23.5671C30.0199 23.7135 30.5137 24.0112 29.643 24.4962Z" fill="black"/>
</svg>
