<svg width="56" height="57" viewBox="0 0 56 57" fill="none" xmlns="http://www.w3.org/2000/svg">
<rect x="4" y="4.5" width="48" height="48" rx="24" fill="white"/>
<path d="M38.0004 33.4201V36.4201C38.0016 36.6986 37.9445 36.9743 37.8329 37.2294C37.7214 37.4846 37.5577 37.7137 37.3525 37.902C37.1473 38.0902 36.905 38.2336 36.6412 38.3228C36.3773 38.412 36.0978 38.4452 35.8204 38.4201C32.7433 38.0857 29.7874 37.0342 27.1904 35.3501C24.7742 33.8148 22.7258 31.7663 21.1904 29.3501C19.5004 26.7413 18.4487 23.7711 18.1204 20.6801C18.0954 20.4036 18.1283 20.1249 18.2169 19.8617C18.3055 19.5986 18.448 19.3568 18.6352 19.1517C18.8224 18.9466 19.0502 18.7828 19.3042 18.6706C19.5582 18.5584 19.8328 18.5004 20.1104 18.5001H23.1104C23.5957 18.4953 24.0662 18.6672 24.4342 18.9836C24.8022 19.3001 25.0425 19.7395 25.1104 20.2201C25.237 21.1802 25.4719 22.1228 25.8104 23.0301C25.945 23.388 25.9741 23.777 25.8943 24.151C25.8146 24.5249 25.6293 24.8682 25.3604 25.1401L24.0904 26.4101C25.514 28.9136 27.5869 30.9865 30.0904 32.4101L31.3604 31.1401C31.6323 30.8712 31.9756 30.6859 32.3495 30.6062C32.7235 30.5264 33.1125 30.5556 33.4704 30.6901C34.3777 31.0286 35.3204 31.2635 36.2804 31.3901C36.7662 31.4586 37.2098 31.7033 37.527 32.0776C37.8441 32.4519 38.0126 32.9297 38.0004 33.4201Z" stroke="black" stroke-width="2" stroke-linecap="round" stroke-linejoin="round"/>
<rect x="4" y="4.5" width="48" height="48" rx="24" stroke="white" stroke-width="8"/>
</svg>
