<svg width="1440" height="2422" viewBox="0 0 1440 2422" fill="none" xmlns="http://www.w3.org/2000/svg">
<g opacity="0.05">
<path fill-rule="evenodd" clip-rule="evenodd" d="M366.664 853.073C366.513 818.877 306.191 780.424 280.424 760.599C229.476 721.388 176.486 685.178 123.988 648.39C71.4899 611.602 18.8501 574.914 -31.2103 534.526C-63.7145 508.309 -101.907 478.781 -123.951 441.344C-170.912 361.566 -22.8481 373.413 15.5051 371.668C113.075 367.21 224.987 369.244 316.443 327.7C371.039 302.898 392.81 261.304 381.084 200.682C377.304 180.967 366.116 158.279 375.594 139.073C385.713 118.56 408.996 106.722 428.319 98.7845C498.798 69.8647 579.832 66.5139 654.403 62.884C734.813 58.8951 815.979 60.0619 895.822 59.7527C929.678 59.6231 965.036 46.7886 997.275 36.3576C1039.54 22.6855 1081.3 7.32812 1123.22 -7.5207C1215.43 -40.1103 1310.45 -74.4351 1408.01 -82.7122C1469.11 -87.8978 1535.88 -80.8872 1583.34 -35.7823C1607.17 -13.1351 1619.65 20.5315 1633.42 50.4386C1650.1 86.5684 1666.12 123.047 1683.87 158.609C1741.07 273.141 1822.72 385.061 1955.26 390.685C1975.31 391.533 1995.01 388.77 2014.96 388.252C2027.67 387.933 2038.98 391.174 2043.7 405.205C2055.58 440.397 2018.25 495.953 2002.94 523.876C1969.43 584.996 1931.63 643.374 1896.23 703.268C1872.8 742.878 1832.26 797.008 1831.83 845.135C1831.45 888.016 1885.5 919.01 1914.93 940.131C1942.5 959.906 1992.45 987.58 1995.48 1027.81C1996.94 1047.31 1984.75 1063.48 1972.03 1076.02C1949.72 1097.96 1924.02 1113.44 1903.95 1138.47C1871.04 1179.54 1843.54 1236.04 1848.01 1291.38C1851.11 1329.72 1871.84 1354.83 1898.21 1378.83C1909.29 1388.93 1918.29 1396.07 1918.88 1412.45C1919.82 1438.47 1910.16 1466 1902.21 1490.13C1873.75 1576.46 1833.32 1659.93 1788.36 1737.88C1765.89 1776.83 1741.61 1815.66 1711.82 1848.89C1692.31 1870.71 1665.99 1896.68 1636.23 1896.65C1601.77 1896.65 1565.31 1883.52 1531.81 1873.71C1469.25 1855.37 1407.44 1834.17 1345.88 1812.42C1203.52 1762.1 1062.5 1707.71 922.809 1649.23C824.417 1607.98 723.937 1566.66 631.433 1511.82C613.392 1501.04 596.364 1488.49 580.578 1474.31C563.712 1459.42 542.783 1452.76 521.561 1447.79C389.843 1416.97 245.539 1440.63 113.273 1455.47C79.7009 1459.23 46.129 1463.01 12.4625 1465.64C-16.4795 1467.91 -51.1286 1474.4 -79.258 1464.65C-134.685 1445.45 -86.2314 1374.7 -65.7461 1345.87C6.37742 1244.36 99.4303 1158.48 185.68 1070.8C226.688 1029.04 268.008 987.4 306.787 943.282C326.979 920.346 366.797 883.049 366.664 853.073Z" stroke="#FFCA49" stroke-width="3.31375"/>
<path fill-rule="evenodd" clip-rule="evenodd" d="M391.521 847.307C369.414 811.124 330.628 784.38 298.432 759.211C252.101 722.977 204.313 688.757 157.244 653.551C112.738 620.258 68.1367 586.586 26.9207 548.778C1.78829 525.722 -29.7454 498.151 -41.6497 464.05C-67.4724 390.138 71.4463 401.352 105.741 399.418C191 394.634 287.663 393.537 366.539 354.622C415.793 330.32 436.027 290.02 425.522 234.07C421.891 214.712 415.348 198.185 423.631 178.927C433.209 156.639 455.24 142.744 475.437 132.935C538.703 102.204 613.486 95.6752 682.066 90.2427C752.915 84.6307 826.733 80.6734 895.304 84.7802C922.724 86.4149 954.286 77.1348 981.423 70.0177C1023.18 59.0529 1064.51 46.4036 1106.05 34.6414C1190.49 10.7184 1277.12 -12.3274 1364.96 -14.949C1428.38 -16.8429 1494.5 -6.57597 1547.26 33.1064C1600.73 73.3469 1624.46 135.726 1654.11 195.026C1705.32 297.546 1774.48 422.195 1892.96 443.855C1910.93 447.145 1928.19 445.36 1946.14 446.168C1955.37 446.577 1965.87 447.872 1970.55 457.471C1982.7 482.391 1949.41 527.955 1938.2 547.043C1907.25 599.794 1872.44 649.962 1840 701.696C1814.24 742.774 1781.58 788.417 1771.61 837.11C1759.52 896.2 1838.54 938.245 1866.32 979.851C1914.5 1052 1823.23 1093.11 1778.23 1127.51C1726.56 1167 1683.9 1239.05 1730.22 1300.15C1747.94 1323.52 1769.75 1337.44 1777.66 1367.93C1790.04 1415.62 1780.68 1470.11 1770.64 1517.25C1755.51 1588.11 1731.57 1658.21 1699.02 1722.25C1675.7 1768.11 1637.02 1840 1580.37 1834.61C1542.24 1831.01 1503.47 1817.87 1466.34 1806.24C1410.75 1788.85 1355.85 1769.02 1301.24 1748.43C1175.19 1701.02 1050.53 1648.75 928.322 1591.25C844.935 1552.01 612.332 1391.64 594.83 1385.91C542.646 1368.87 483.313 1371.87 429.512 1374.51C357.944 1378.02 286.736 1387.11 215.584 1395.53C181.715 1399.52 147.676 1404.4 113.627 1406.36C89.3926 1407.75 57.5657 1408.95 36.3383 1394.09C-5.09517 1365.09 41.066 1298.75 60.1565 1270.68C118.638 1184.62 192.617 1110.1 261.982 1033.91C296.021 996.498 330.581 959.148 361.481 918.738C373.943 902.42 405.184 869.656 391.521 847.307Z" stroke="#FFCA49" stroke-width="3.31375"/>
<path fill-rule="evenodd" clip-rule="evenodd" d="M422.104 828.75C361.731 756.343 278.403 702.491 206.487 642.019C170.391 611.658 134.069 580.469 102.937 544.306C86.7423 525.501 66.5202 501.72 63.4003 475.507C55.0619 405.383 180.271 414.865 217.746 412.203C290.202 407.038 372.054 403.12 437.788 367.335C477.949 345.459 497.726 309.555 490.22 262.363C486.892 241.425 481.711 223.637 490.22 203.077C498.842 182.248 516.805 167.552 534.994 156.534C587.265 124.847 652.224 114.717 711.075 107.169C780.113 98.3774 849.671 94.9449 919.186 96.8989C980.069 98.5839 1040.66 79.6295 1100.11 67.1362C1178.86 50.5948 1259.04 36.1472 1339.62 38.3308C1403.27 40.0657 1467.41 53.6957 1521.82 89.9193C1577.11 126.811 1610.35 182.029 1640.32 241.614C1685.62 331.69 1742.08 452.395 1841.47 486.605C1855.93 491.59 1869.4 492.139 1884.31 493.006C1891.55 493.425 1900.9 493.555 1904.49 501.521C1913.13 520.705 1881.19 557.896 1872.27 570.858C1843.82 612.236 1812.97 651.75 1783.8 692.58C1756.57 730.698 1726.92 770.422 1710 815.091C1683.09 886.232 1769.14 927.83 1766.73 995.621C1765.22 1037.71 1727.02 1067.89 1696.77 1088.77C1659.52 1114.44 1605.89 1131.32 1587.24 1178.17C1573.36 1213.07 1595.15 1233.38 1611.93 1259.86C1640.37 1304.73 1642.3 1365.55 1639.34 1417.49C1635.35 1487.68 1619.76 1558.9 1593.23 1623.41C1581.2 1652.65 1566.47 1683.07 1544.79 1705.79C1524.47 1727.07 1505.24 1732.53 1478.09 1728.17C1394.97 1714.81 1311.04 1677.57 1231.34 1644.31C1131.19 1602.51 1032.43 1556.36 936.609 1504.45C871.273 1469.04 804.462 1431.58 747.114 1382.66C732.167 1369.91 716.861 1356.05 705.932 1339.23C697.669 1326.59 694.162 1316.15 680.236 1308.93C638.96 1287.54 581.546 1293.14 537.32 1295.36C466.604 1298.9 396.228 1308.32 325.947 1316.81C284.936 1321.79 207.678 1337.48 174.929 1299.86C146.662 1267.37 180.772 1211.99 198.195 1183.37C242.27 1111 298.966 1047.49 351.568 982.09C375.675 952.118 400.728 921.917 420.639 888.595C425.725 880.1 433.874 868.843 435.273 858.523C436.843 846.698 429.516 837.674 422.104 828.75Z" stroke="#FFCA49" stroke-width="3.31375"/>
<path fill-rule="evenodd" clip-rule="evenodd" d="M427.293 845.607C371.506 781.586 304.297 728.99 244.407 669.079C217.553 642.217 190.435 614.038 169.974 581.269C158.968 563.647 147.281 541.465 150.316 519.563C159.024 456.699 262.003 462.377 303.607 458.695C365.427 453.286 436.446 447.838 491.108 413.941C526.916 391.739 540.342 358.95 533.657 316.662C526.481 271.3 542.526 238.371 579.043 213.066C624.826 181.365 682.618 168.443 735.776 159.263C799.822 148.255 864.678 143.376 929.555 144.684C992.651 145.961 1053.78 134.805 1116.46 127.551C1199.56 117.942 1285.33 113.202 1367.5 132.9C1439.04 150.052 1503.66 187.851 1552.1 246.304C1602.7 307.312 1627.74 384.176 1668.83 451.67C1694.45 493.769 1730.18 549.458 1778.07 565.823C1794.04 571.281 1823.14 563.917 1810.38 590.769C1803.09 606.126 1789.45 619.596 1778.67 632.149C1761.25 652.435 1743.26 672.163 1725.55 692.169C1687.8 734.817 1647.38 778.373 1619.09 828.873C1583.44 892.456 1636.43 941.39 1629.97 1005.86C1626.5 1040.56 1603.64 1068.25 1579.45 1090C1563.81 1104.09 1546.68 1116.29 1529.2 1127.68C1510.94 1139.57 1489.33 1148.63 1473.41 1164.01C1450.72 1185.89 1460.57 1211.79 1464.83 1240.08C1472.32 1289.8 1473.96 1340.3 1469.72 1390.44C1464.54 1451.9 1452.39 1515.11 1426.8 1570.96C1416.84 1592.7 1404.23 1615.75 1385.5 1630.33C1366.76 1644.91 1347.39 1643.91 1325.93 1639.52C1262.26 1626.55 1198.73 1596.36 1138.34 1567.75C1062.75 1531.94 988.652 1491.92 917.887 1446.39C869.041 1414.96 820.033 1381 779.167 1338.38C767.282 1325.98 755.973 1312.7 746.829 1297.87C740.551 1287.7 737.185 1274.58 728.089 1266.94C699.628 1243.08 642.489 1250.2 609.111 1251.59C542.498 1254.35 476.934 1267.49 410.406 1270.69C374.097 1272.43 317.232 1276.82 290.568 1244.2C265.492 1213.54 288.204 1165.25 303.191 1135.7C332.645 1077.61 372.216 1025.85 407.683 971.844C422.263 949.622 438.243 926.373 447.689 900.997C456.085 878.386 441.59 862.022 427.293 845.607Z" stroke="#FFCA49" stroke-width="3.31375"/>
<path fill-rule="evenodd" clip-rule="evenodd" d="M441.014 846.654C396.609 790.317 343.078 740.307 298.352 683.053C272.172 649.524 227.087 593.157 247.334 545.887C269.545 493.944 346.97 492.53 391.724 488.345C444.991 483.363 507.545 476.557 553.13 444.124C567.548 433.871 579.83 420.3 585.036 402.424C590.61 383.293 584.516 366.553 583.722 347.402C582.06 307.227 604.791 274.973 634.873 252.823C677.388 221.506 730.551 206.699 780.766 196.376C837.656 184.733 895.491 178.993 953.443 179.238C1008.83 179.437 1063.62 178.142 1119.06 176.648C1191.57 174.655 1265.09 177.873 1335.42 198.19C1404.7 218.218 1467.69 255.753 1517.16 310.964C1565.43 364.84 1598 430.692 1626.52 497.771C1642.71 535.843 1670.05 592.739 1708.65 611.969C1725.82 620.528 1742.66 619.941 1724.41 642.2C1701.42 670.229 1670.45 692.718 1643.82 716.692C1605.42 751.287 1566.05 786.56 1533.81 827.692C1513.22 853.958 1504.05 879.446 1505.47 913.453C1506.56 939.36 1511.53 964.998 1509.02 991.004C1503.13 1052.04 1457.57 1093.9 1417.28 1132.88C1391.37 1157.95 1367.7 1177.07 1354.36 1212.74C1338.58 1254.88 1331.96 1300.74 1321.42 1344.5C1309.83 1392.56 1296.45 1442.55 1271.17 1484.87C1248.67 1522.56 1221.3 1539.46 1180.33 1529.3C1116.44 1513.48 1053.46 1474.5 996.733 1438.44C938.997 1401.75 882.254 1360.5 834.41 1310.07C808.58 1282.84 790.95 1250.87 768.011 1221.61C739.157 1184.89 673.883 1198.8 635.09 1201.9C570.694 1207.07 368.067 1245.69 386.764 1120.6C394.568 1068.39 425.302 1020.2 447.778 974.125C457.094 955.004 470.576 932.056 472.683 910.145C474.978 886.281 454.363 863.613 441.014 846.654Z" stroke="#FFCA49" stroke-width="3.31375"/>
<path fill-rule="evenodd" clip-rule="evenodd" d="M464.458 851.438C430.525 800.385 389.914 752.154 360.798 697.014C341.909 661.304 323.361 613.59 347.727 575.807C375.229 533.168 435.87 523.229 480.428 517.795C526.336 512.203 581.141 507.497 618.663 475.167C630.601 464.869 640.441 450.981 642.273 434.352C644.04 418.402 639.053 402.451 640.706 386.211C644.408 349.743 665.365 319.696 692.385 297.903C772.311 233.431 891.271 219.095 987.706 217.411C1035.97 216.573 1085.65 220.97 1134.23 224.12C1197.27 228.207 1260.41 236.98 1320.53 258.125C1448.36 303.067 1534.03 402.74 1593.87 526.768C1612.71 565.808 1627.12 608.048 1656.63 639.421C1671.85 655.621 1668.52 667.255 1652.97 682.03C1628.65 705.119 1598.98 722.764 1571.99 742.035C1533.6 769.441 1494.39 797.255 1460.44 830.084C1437.03 852.714 1420.42 874.517 1415.38 908.452C1411.78 932.648 1412.62 957.302 1410.46 981.647C1406.34 1027.89 1392.24 1073.79 1367.28 1112.16C1347.45 1142.56 1323.83 1170.2 1299.43 1196.55C1267.71 1230.85 1240.88 1265.7 1216.78 1306.42C1184.84 1360.31 1139.97 1459.72 1064.73 1433.42C981.756 1404.39 903.982 1330.62 850.745 1259.15C832.867 1235.16 818.191 1205.73 794.08 1188.03C757.984 1161.58 721.359 1162.51 678.426 1162.62C614.149 1162.77 474.28 1177.49 472.769 1075.89C472.174 1035.63 488.682 997.568 496.587 958.847C505.502 915.481 487.634 886.231 464.458 851.438Z" stroke="#FFCA49" stroke-width="3.31375"/>
<path fill-rule="evenodd" clip-rule="evenodd" d="M489.733 855.99C456.169 789.451 380.904 680.115 438.149 606.124C468.387 567.022 521.871 552.328 566.737 543.571C602.843 536.488 646.386 533.828 673.667 503.801C693.718 481.725 684.817 449.596 692.499 421.961C702.034 387.7 723.919 359.666 750.812 338.596C825.963 279.709 930.455 261.637 1020.86 257.792C1114.75 253.807 1218.2 272.446 1306.55 308.301C1416.71 353.022 1499.25 437.701 1556.96 544.936C1567.61 564.731 1577.29 585.044 1587.51 605.078C1594.38 618.518 1604.57 631.518 1609.98 645.655C1619 669.226 1608.38 688.493 1591.35 703.855C1566.86 725.971 1536.77 741.712 1508.85 758.309C1470.66 781.023 1431.63 803.329 1396.1 829.978C1372.24 847.91 1347.25 867.227 1338.71 898.339C1332.88 919.559 1331.67 942.034 1331.88 964.011C1332.33 1011.13 1329.99 1049.24 1309.14 1092.4C1274.84 1163.25 1222.09 1226.96 1166.37 1279.97C1122.64 1321.57 1053.44 1386.19 989.722 1358.38C932.553 1333.47 899.111 1273.86 861.446 1225.66C843.133 1202.23 822.561 1180.83 798.39 1164.16C767.915 1143.15 739.227 1134.34 703.121 1130.9C642.351 1125.11 550.72 1123.61 531.934 1046.7C524.999 1018.32 528.958 988.917 525.32 960.166C520.567 922.149 506.667 889.553 489.733 855.99Z" stroke="#FFCA49" stroke-width="3.31375"/>
<path fill-rule="evenodd" clip-rule="evenodd" d="M524.633 858.453C500.732 785.647 469.333 693.892 527.06 629.184C555.022 597.838 594.353 580.315 632.419 567.22C659.682 557.835 702.97 555.072 719.684 526.219C731.961 504.986 733.661 475.694 744.766 452.944C760.026 421.668 783.143 395.906 810.264 375.74C880.919 323.19 972.944 302.884 1056.87 297.07C1239.22 284.454 1424.76 384.936 1522.34 550.255C1551.43 599.534 1588.99 651.984 1541.97 702.329C1490.63 757.253 1413.3 782.984 1352.04 822.01C1328.63 836.911 1298.79 854.823 1285.73 881.801C1277.88 898.018 1277.34 918.363 1276.98 936.216C1276.04 981.685 1272.46 1022.58 1255.13 1065C1228.37 1130.57 1185.69 1191.06 1137.33 1240.6C1095.16 1283.81 1035.01 1334.58 973.765 1303.44C926.804 1279.5 897.02 1228.7 860.531 1191.25C819.925 1149.54 769.706 1121.43 714.557 1107.7C660.909 1094.37 602.068 1085.39 573.795 1028.78C564.097 1009.36 553.964 984.218 550.328 962.725C544.459 927.288 535.866 892.416 524.633 858.453Z" stroke="#FFCA49" stroke-width="3.31375"/>
<path fill-rule="evenodd" clip-rule="evenodd" d="M563.549 858.967C552.492 785.448 551.263 708.789 602.637 650.846C626.613 623.814 656.921 604.609 687.57 587.209C710.119 574.406 733.405 563.607 750.246 542.617C765.849 523.183 777.71 500.618 792.774 480.676C812.646 454.247 836.422 431.369 863.191 412.921C930.291 366.763 1011.92 345.175 1090.01 337.687C1127.81 334.047 1168.82 332.153 1206.36 342.074C1242.62 351.647 1278.48 366.783 1311.82 384.432C1382.7 421.915 1444.13 476.807 1488.66 546.207C1519.2 593.81 1535.71 640.097 1496.17 688.388C1451.59 742.821 1381.69 772.855 1324.08 808.183C1284.57 832.413 1240.28 856.165 1232.9 907.657C1227.02 948.629 1222.25 987.517 1207.04 1026.25C1184.41 1083.37 1151.14 1135.12 1109.19 1178.42C1070.83 1217.86 1022.3 1251.34 967.431 1230.27C923.959 1213.55 890.229 1176.08 852.247 1149.3C809.918 1119.39 763.411 1102.89 714.438 1089.63C670.426 1077.67 628.985 1059.28 600.539 1020.24C594.717 1012.27 588.602 1003.58 584.113 994.656C578.386 983.269 578.831 971.982 577.706 959.218C574.776 925.535 568.548 892.241 563.549 858.967Z" stroke="#FFCA49" stroke-width="3.31375"/>
<path fill-rule="evenodd" clip-rule="evenodd" d="M606.459 852.957C607.404 783.126 623.321 717.129 666.915 662.708C685.552 639.428 707.808 620.252 728.316 598.919C744.828 581.721 760.433 565.741 779.42 551.569C824.459 518.012 861.064 474.587 908.928 444.704C972.822 404.755 1046.01 382.673 1118.63 373.844C1154.1 369.53 1190.73 368.021 1226.6 372.895C1257.42 377.08 1286.93 391.771 1314.3 406.802C1367.96 436.245 1420.05 478.092 1454.89 531.035C1531.7 647.757 1380.27 732.62 1302.54 782.317C1266.8 805.178 1212.18 831.654 1197.54 876.937C1187.07 909.286 1180.7 942.184 1167.22 973.535C1131.01 1057.73 1057.51 1156.75 959.56 1143.57C917.647 1137.94 879.446 1115.06 840.32 1099.7C800.031 1083.88 758.449 1075.06 716.574 1065.38C677.438 1056.34 646.247 1043.48 620.968 1008.99C608.887 992.521 609.954 972.806 608.877 952.601C607.12 919.413 606.034 886.036 606.459 852.957Z" stroke="#FFCA49" stroke-width="3.31375"/>
<path fill-rule="evenodd" clip-rule="evenodd" d="M645.529 844.013C661.265 738.609 719.707 623.537 805.64 562.323C906.724 490.316 1016.23 429.681 1137 412.249C1193 404.167 1254.33 400.19 1307.17 426.621C1347.38 446.723 1394.09 476.772 1416.21 519.029C1470.35 622.391 1349.93 704.673 1281.32 752.492C1244.39 778.235 1197.37 803.32 1169.53 840.913C1153.37 862.71 1145.13 891.543 1132.09 915.482C1092.57 988.027 1027.51 1046.54 946.48 1057C909.012 1061.84 871.27 1055.86 834.086 1051.1C796.023 1046.24 757.487 1043.6 719.66 1036.81C689.464 1031.39 653.879 1022.21 642.758 988.117C628.733 945.152 639.107 887.058 645.529 844.013Z" stroke="#FFCA49" stroke-width="3.31375"/>
<path fill-rule="evenodd" clip-rule="evenodd" d="M683.842 827.08C706.792 727.982 755.39 631.318 837.087 572.159C880.412 540.789 930.704 519.134 978.99 497.738C1033.72 473.49 1090.91 454.668 1149.31 445.331C1222.04 433.701 1339.81 423.217 1377.81 510.645C1415.52 597.424 1320.23 674.229 1263.87 717.998C1227.74 746.037 1189.08 771.771 1154.56 802.423C1135.84 819.041 1121.42 838.242 1105.58 857.733C1061.8 911.735 999.393 954.487 935.779 977.308C874.125 999.432 797.853 1009.23 732.772 1001.92C704.69 998.774 684.619 988.171 676.126 958.028C664.358 916.124 674.356 868.016 683.842 827.08Z" stroke="#FFCA49" stroke-width="3.31375"/>
<path fill-rule="evenodd" clip-rule="evenodd" d="M721.914 800.39C744.712 713.138 793.888 633.445 865.617 581.078C946.021 522.373 1049.55 489.753 1144.71 473.165C1195.3 464.354 1304.91 440.465 1330.69 508.834C1356.47 577.204 1281.94 644.58 1239.04 681.67C1186.98 726.617 1130.85 770.014 1074.78 810.343C1026.07 845.406 974.088 881.255 921.325 908.332C891.567 923.693 860.568 936.235 828.695 945.81C805.094 952.842 775.082 963.332 750.339 958.097C687.928 944.876 711.01 842.109 721.914 800.39Z" stroke="#FFCA49" stroke-width="3.31375"/>
<path fill-rule="evenodd" clip-rule="evenodd" d="M768.908 774.262C818.931 609.258 977.419 528.106 1130.02 499.82C1165.48 493.254 1264.88 469.581 1284.7 519.986C1303.91 568.857 1242.82 626.814 1214.23 654.273C1125.61 739.36 1016.13 802.449 912.38 864.949C879.997 884.457 821.592 926.792 781.423 907.264C737.808 886.022 758.544 808.477 768.908 774.262Z" stroke="#FFCA49" stroke-width="3.31375"/>
<path fill-rule="evenodd" clip-rule="evenodd" d="M820.146 742.503C863.649 620.99 990.18 551.298 1106.51 528.323C1135.01 522.701 1207.37 505.198 1228.95 539.108C1248.92 570.475 1201.26 615.927 1183.43 633.988C1143.74 674.207 1096.69 707.338 1050.22 739.184C1007.24 768.648 963.808 798.849 918.591 823.768C894.775 836.885 850.108 864.874 823.044 844.62C793.906 822.831 810.488 769.485 820.146 742.503Z" stroke="#FFCA49" stroke-width="3.31375"/>
<path fill-rule="evenodd" clip-rule="evenodd" d="M876.611 707.002C909.768 627.649 998.571 576.119 1076.91 558.996C1097.98 554.399 1143.54 542.471 1161.32 563.664C1177.69 583.18 1151.31 611.792 1139.6 625.006C1087.71 683.576 1011.71 735.893 942.081 768.025C924.575 776.103 893.104 791.959 875.095 775.654C856.622 758.91 868.994 725.222 876.611 707.002Z" stroke="#FFCA49" stroke-width="3.31375"/>
<path fill-rule="evenodd" clip-rule="evenodd" d="M936.511 673.668C955.195 634.265 1004.03 604.536 1044.48 595.073C1072.94 588.418 1107.16 594.167 1082.35 628.466C1057.71 662.504 1011.98 693.592 973.216 707.374C943.644 717.884 920.467 707.515 936.511 673.668Z" stroke="#FFCA49" stroke-width="3.31375"/>
<path fill-rule="evenodd" clip-rule="evenodd" d="M-578.597 946.583C-579.795 868.735 -619 787.83 -599.638 708.508C-583.739 643.362 -503.698 637.923 -455.681 608.407C-417.524 584.959 -395.869 543.42 -375.234 503.565C-356.693 467.784 -340.039 430.927 -320.508 395.734C-307.864 372.983 -286.153 328.306 -258.734 327.499C-232.484 326.723 -208.414 361.537 -193.167 382.117C-173.286 408.943 -155.66 437.542 -136.355 464.796C-103.822 510.767 -64.7873 544.795 -20.0914 577C30.7722 613.644 82.4755 649.036 135.019 683.177C173.704 708.389 212.654 733.411 249.839 761.114C273.164 778.496 324.644 811.109 324.88 843.155C324.993 858.445 311.264 875.38 302.008 887.602C286.345 908.292 268.493 927.208 250.584 945.716C217.23 980.192 182.46 1013.1 148.068 1046.41C103.429 1089.65 60.7896 1132.17 21.5474 1181.25C-19.0252 1232.05 -57.7861 1284.53 -97.3397 1336.29C-124.127 1371.35 -150.886 1410.73 -189.524 1432.24C-237.919 1459.14 -277.642 1430.78 -326.584 1430.45C-368.686 1430.16 -365.581 1327.2 -370.931 1298.57C-376.3 1269.6 -388.132 1242.62 -392.718 1213.57C-398.436 1177.32 -398.511 1140.22 -399.917 1103.57C-401.625 1058.75 -402.304 1016.07 -447.698 998.979C-473.533 989.267 -501.481 987.225 -528.221 981.407C-545.544 977.632 -578.219 971.177 -578.597 946.583Z" stroke="#FFCA49" stroke-width="3.31375"/>
<path fill-rule="evenodd" clip-rule="evenodd" d="M-557.899 932.734C-562.313 867.479 -588.384 783.957 -563.73 716.597C-542.666 659.033 -476.792 651.571 -432.435 621.332C-395.817 596.392 -379.516 555.578 -361.212 515.483C-346.527 483.32 -332.286 450.847 -315.616 419.71C-303.332 396.765 -284.574 358.027 -259.031 353.278C-236.068 349.008 -211.442 383.207 -198.552 400.606C-179.747 426.005 -163.664 453.59 -147.051 480.596C-117.861 528.034 -87.971 570.693 -45.2485 605.54C-2.33697 640.537 44.6096 666.705 92.057 693.94C129.176 715.25 166.105 737.178 201.372 761.779C227.643 780.096 265.413 803.541 277.433 836.203C286.949 862.042 238.689 904.92 224.458 920.054C195.164 951.171 164.121 980.381 133.022 1009.41C95.1092 1044.79 55.9871 1075.73 22.5065 1116.08C-37.3768 1188.23 -87.4323 1278.08 -164.486 1331.7C-210.96 1364.04 -262.679 1372.31 -314.369 1367.47C-334.837 1365.56 -339.751 1335.06 -342.331 1317.27C-346.621 1287.72 -347.16 1257.66 -350.458 1227.99C-353.548 1200.22 -360.408 1173.83 -365.936 1146.6C-371.531 1119 -373.099 1090.73 -377.22 1062.95C-379.771 1045.7 -382.294 1025.62 -393.454 1011.76C-405.002 997.401 -424.053 991.385 -440.703 986.816C-471.973 978.316 -554.781 978.785 -557.899 932.734Z" stroke="#FFCA49" stroke-width="3.31375"/>
<path fill-rule="evenodd" clip-rule="evenodd" d="M-531.26 905.418C-538.682 845.518 -549.072 770.913 -518.837 715.726C-494.123 670.602 -441.414 660.868 -403.766 631.466C-372.453 607.016 -360.625 568.13 -345.082 531.993C-332.328 502.352 -319.507 472.581 -304.049 444.375C-292.326 422.984 -277.217 393.981 -253.94 386.518C-234.039 380.142 -211.556 408.707 -200.523 422.924C-181.736 447.155 -166.42 474.305 -151.208 501.096C-126.324 544.935 -103.425 591.763 -68.0082 627.421C-33.5938 662.024 7.28745 682.449 48.9345 705.414C80.834 723.009 112.535 741.282 142.591 762.265C165.669 778.366 194.269 797.445 206.295 824.237C216.695 847.342 189.996 874.691 176.655 890.991C154.626 917.892 130.177 942.571 106.068 967.35C80.0493 994.081 51.232 1018.74 26.0546 1046.13C-26.8906 1103.77 -69.19 1167.58 -134.445 1211.74C-176.707 1240.34 -233.575 1266.33 -283.533 1261.66C-319.46 1258.29 -317.096 1174.38 -320.547 1147.57C-326.22 1103.73 -337.178 1057.67 -354.584 1017.29C-369.531 982.683 -405.052 972.013 -437.726 964.251C-458.195 959.379 -479.648 956.749 -499.445 949.217C-522.363 940.489 -528.149 930.525 -531.26 905.418Z" stroke="#FFCA49" stroke-width="3.31375"/>
<path fill-rule="evenodd" clip-rule="evenodd" d="M-506.413 877.341C-510.832 826.699 -509.838 766.814 -481.214 723.006C-456.129 684.635 -411.466 674.533 -379.7 644.305C-354.908 620.723 -345.171 582.272 -331.838 551.085C-315.544 512.954 -292.711 442.527 -251.606 428.178C-213.368 414.838 -173.379 500.054 -159.535 525.465C-137.62 565.684 -119.291 609.791 -92.711 646.934C-69.8212 678.91 -39.1532 696.586 -6.60207 715.582C34.9005 739.844 97.9115 768.612 120.101 815.897C136.642 851.13 82.8566 903.511 64.4899 927.923C45.281 953.424 30.8128 983.651 10.9888 1008.25C-20.2943 1047.07 -70.9851 1078.33 -112.838 1102.18C-153.527 1125.38 -206.365 1151.07 -252.524 1149.54C-282.86 1148.54 -288.633 1099.09 -295.105 1074.94C-304.378 1040.61 -316.708 1009.84 -343.193 986.489C-370.152 962.717 -401.927 951.515 -435.33 941.712C-452.476 936.716 -472.035 932.819 -487.374 922.727C-504.321 911.745 -504.709 896.806 -506.413 877.341Z" stroke="#FFCA49" stroke-width="3.31375"/>
<path fill-rule="evenodd" clip-rule="evenodd" d="M-476.135 848.151C-475.89 804.4 -466.411 757.746 -438.304 723.998C-414.894 695.888 -378.251 686.491 -355.841 657.755C-338.09 635.004 -329.055 603.066 -317.171 576.646C-302.636 544.271 -282.084 487.713 -245.941 476.477C-210.666 465.539 -179.466 527.834 -165.94 552.484C-146.133 588.628 -130.099 626.94 -110.113 662.985C-94.4564 691.264 -75.3098 709.49 -49.8155 727.716C-19.8883 749.125 21.8665 772.84 37.8535 808.258C49.3792 833.902 21.4798 874.879 11.35 897.47C4.55905 912.644 -1.65652 928.056 -5.07085 944.502C-7.73063 957.309 -7.99472 969.162 -15.7005 980.159C-35.1018 1007.82 -77.6395 1011.43 -106.501 1020.55C-144.832 1032.65 -185.502 1046.4 -225.616 1049.03C-250.27 1050.67 -262.853 1026.69 -276.925 1009.83C-293.553 989.894 -317.095 975.556 -337.657 960.511C-364.792 940.625 -394.323 928.255 -424.873 915.587C-438.653 909.87 -454.838 904.261 -465.515 892.896C-476.663 881.113 -476.22 863.941 -476.135 848.151Z" stroke="#FFCA49" stroke-width="3.31375"/>
<path fill-rule="evenodd" clip-rule="evenodd" d="M1328.89 2168.48C1251.93 2217.74 1164.93 2258.41 1082.9 2299.74C963.008 2360.14 841.354 2418.91 715.384 2463.9C647.846 2488.01 560.33 2522.78 487.861 2503.89C461.365 2496.98 437.202 2476.1 413.446 2462.52C380.688 2443.81 347.448 2426.02 314.264 2408.2C247.699 2372.46 180.926 2337.09 115.504 2299.06C84.0016 2280.75 53.4346 2257.68 20.6385 2242.05C1.47277 2232.92 -21.4618 2237.19 -41.9405 2237.77C-89.3778 2239.11 -136.787 2241.67 -184.196 2243.84C-242.184 2246.49 -300.304 2249.31 -358.359 2248.26C-384.543 2247.78 -448.671 2252.69 -463.085 2228.89C-470.841 2216.08 -452.563 2192.97 -444.09 2182.28C-428.532 2162.63 -410.651 2144.92 -393.006 2127.39C-352.2 2086.85 -308.862 2048.25 -272.59 2002.97C-253.953 1979.69 -229.536 1951.25 -241.702 1919.48C-253.982 1887.38 -275.254 1859.59 -288.233 1827.6C-303.176 1790.79 -309.373 1752.49 -316.429 1713.46C-321.652 1684.61 -333.819 1659.05 -345.257 1632.45C-357.896 1603.06 -370.988 1573.41 -379.763 1542.41C-385.563 1521.93 -394.924 1485.09 -374.634 1472.13C-345.805 1453.69 -291.747 1468.62 -258.884 1474.05C-213.468 1481.55 -168.383 1491.09 -123.09 1499.31C-90.209 1505.29 -57.2144 1511.85 -23.7854 1512.55C30.1034 1513.67 84.1716 1509.78 137.919 1506.15C237.441 1499.43 336.249 1490.32 436.107 1490.32C523.593 1490.32 725.765 1597.12 773.089 1615.92C867.548 1653.46 964.519 1689.04 1053.91 1738.98C1078.09 1752.51 1115.3 1770.52 1128.03 1798.35C1135.88 1815.5 1132.27 1825.42 1150.78 1836.47C1176.04 1851.55 1208.4 1857.47 1236.36 1864.21C1281.39 1875.07 1326.77 1884.27 1372.01 1894.11C1463.5 1913.95 1554.37 1936.39 1645.48 1957.98C1673.03 1964.51 1706.35 1965.95 1732.61 1977.45C1749.54 1984.83 1747.78 1994.13 1734.68 2005.35C1711.7 2025.04 1679.49 2035.97 1652.34 2047.2C1612.56 2063.66 1572.14 2078.33 1531.69 2092.8C1491.24 2107.27 1450.59 2121.29 1410.12 2135.79C1383.39 2145.34 1352.91 2153.1 1328.89 2168.48Z" stroke="#FFCA49" stroke-width="3.31375"/>
<path fill-rule="evenodd" clip-rule="evenodd" d="M1265.56 2157.64C1184.16 2207 1093.8 2246.33 1006.69 2284.7C895.201 2333.84 781.193 2379.89 663.727 2410.61C594.757 2428.63 513.382 2448.53 442.91 2427.86C417.769 2420.48 398.987 2403.91 377.436 2389.28C352.872 2372.59 327.362 2357.29 301.853 2342.23C249.341 2311.23 196.275 2281.3 142.655 2252.42C114.255 2237.06 82.9918 2216.49 50.9067 2211.17C25.3973 2206.92 -3.5796 2213.06 -29.2024 2214.85C-75.346 2218.06 -121.48 2221.37 -167.643 2224.19C-220.91 2227.43 -274.329 2230.43 -327.709 2229.91C-357.461 2229.62 -408.536 2234.4 -429.577 2214.11C-447.934 2196.41 -381.1 2132.38 -369.346 2120.22C-332.641 2082.24 -294.037 2046.07 -259.873 2005.46C-239.683 1981.51 -215.1 1952.38 -206.587 1920.64C-199.34 1893.58 -213.323 1862.76 -221.581 1837.75C-231.907 1806.43 -240.24 1773.96 -252.239 1743.29C-262.925 1715.97 -279.931 1691.63 -294.868 1666.79C-311.298 1639.47 -327.936 1611.7 -340.133 1581.89C-347.607 1563.55 -359.974 1532.83 -345.122 1515.35C-327.964 1495.19 -275.075 1508.37 -253.335 1511.24C-209.232 1517.15 -165.47 1525.93 -121.669 1533.79C-48.9201 1546.85 20.4371 1558.26 94.5183 1555.53C190.991 1551.95 287.369 1543.55 383.823 1538.9C419.442 1537.17 455.627 1533.67 491.274 1535.56C511.71 1536.65 527.271 1543.23 539.156 1558.09C555.388 1578.37 592.773 1589.59 618.774 1601.23C659.315 1619.36 700.366 1636.23 741.304 1653.31C831.173 1690.83 922.77 1727 1008 1775.52C1034.96 1790.87 1065.84 1807.98 1085.78 1833.34C1096.91 1847.48 1094.11 1861.1 1100.9 1876.13C1109.9 1895.9 1139.47 1904.82 1157.14 1911.29C1191.26 1923.78 1226.78 1932.15 1262.02 1940C1341.76 1957.74 1421.69 1969.4 1502.72 1978C1521.71 1979.99 1596.49 1986.91 1557.22 2020.24C1513.82 2057.07 1451.16 2075.12 1400.08 2095.88C1354.06 2114.54 1308 2131.9 1265.56 2157.64Z" stroke="#FFCA49" stroke-width="3.31375"/>
<path fill-rule="evenodd" clip-rule="evenodd" d="M1153.06 2148.51C1076.54 2191.94 991.781 2224.34 909.373 2255.34C809.372 2292.95 706.865 2326.47 601.985 2345.26C536.1 2357.04 463.461 2366.1 398.021 2346.51C353.331 2333.14 318.762 2296.99 279.511 2272.12C240.26 2247.26 199.42 2223.91 157.36 2204.45C131.255 2192.38 103.174 2180.21 74.1284 2181.81C3.50483 2185.67 -67.0336 2194.89 -137.733 2199.36C-184.503 2202.35 -231.368 2204.81 -278.28 2204.07C-306.569 2203.64 -345.433 2205.43 -370.478 2189.73C-398.161 2172.36 -250.757 2024.09 -236.825 2007.4C-201.897 1965.55 -159.6 1910.02 -166.353 1850.51C-172.813 1793.62 -200.809 1751.14 -232.475 1706.57C-250.445 1681.21 -308.073 1613.47 -286.717 1580.49C-274.516 1561.64 -234.3 1568.17 -215.195 1569.45C-177.542 1571.98 -140.097 1577.42 -102.643 1582.14C-48.0323 1588.99 8.08269 1599.56 62.9302 1602.66C101.122 1604.81 139.541 1601.93 177.799 1601.87C232.656 1601.79 287.513 1602.23 342.369 1602.75C388.43 1603.19 434.879 1602.75 480.779 1607.41C509.314 1610.28 530.973 1616.73 551.441 1634.94C569.25 1650.78 596.121 1660.06 618.82 1670.13C656.312 1686.76 694.296 1702.17 732.156 1717.83C811.425 1750.63 891.601 1782.75 967.474 1823.73C1002.11 1842.44 1060.34 1868.62 1068.47 1913.96C1071.4 1930.31 1073.56 1937.38 1088.69 1946.67C1110.17 1959.86 1135.89 1965.81 1159.99 1970.98C1216.17 1983.04 1273.98 1981.23 1330.07 1993.15C1352.91 1998.06 1382.73 2008.66 1356.66 2032.93C1326.23 2061.32 1281.94 2076.92 1245.48 2094.46C1227.29 2103.21 1208.54 2111.4 1191.26 2122.08C1177.99 2130.31 1166.63 2140.86 1153.06 2148.51Z" stroke="#FFCA49" stroke-width="3.31375"/>
<path fill-rule="evenodd" clip-rule="evenodd" d="M1008.14 2134.95C937.448 2170.22 860.675 2195.87 785.281 2218.99C701.539 2244.64 615.776 2265.88 528.88 2274.92C468.878 2281.18 404.948 2283.03 346.712 2263.86C309.884 2251.74 284.916 2226.24 253.225 2204.86C205.395 2172.54 153.647 2146.93 96.1853 2153.17C31.7641 2160.14 -32.868 2165.37 -97.711 2168.86C-136.825 2170.96 -176.089 2172.54 -215.25 2171.07C-240.01 2170.15 -271.909 2168.61 -293.449 2156.77C-322.269 2140.92 -214.013 2020.32 -200.519 2002.74C-167.052 1959.15 -142.519 1913.41 -128.184 1859.4C-116.493 1815.32 -140.375 1780.68 -165.012 1747.71C-180.329 1727.24 -229.821 1675.74 -214.324 1649.16C-205.826 1634.5 -177.817 1635.25 -162.774 1634.5C-134.105 1633.09 -105.313 1634.56 -76.6433 1635.21C-34.3096 1636.21 10.7531 1629.35 52.728 1634.87C145.752 1647.1 238.541 1657.69 332.141 1666.06C383.739 1670.68 435.648 1674.87 486.782 1683.77C505.14 1686.97 524.102 1690.35 541.496 1697.58C552.686 1702.23 558.787 1710.14 568.23 1716.63C613.255 1747.53 672.029 1763.43 722.739 1783.23C790.153 1809.56 857.927 1835.48 923.547 1866.58C958.062 1882.93 1006.27 1901.73 1030.02 1935.12C1037.2 1945.2 1034.14 1953.27 1038.65 1962.97C1043.84 1974.16 1059.62 1977.49 1069.81 1980.61C1092.94 1987.69 1189.74 1998.4 1145.13 2039.93C1123.85 2059.72 1096.73 2072.41 1072.73 2087.96C1064.04 2093.59 1055.57 2099.26 1048.33 2106.86C1036.21 2119.6 1024.28 2126.87 1008.14 2134.95Z" stroke="#FFCA49" stroke-width="3.31375"/>
<path fill-rule="evenodd" clip-rule="evenodd" d="M853.723 2119.68C714.169 2176.75 550.618 2215.63 398.469 2208.09C347.872 2205.58 293.434 2197.19 249.575 2168.48C223.714 2151.51 203.047 2132.37 171.982 2126.24C149.555 2121.82 125.407 2126.84 102.848 2128.66C70.1737 2131.29 37.4805 2133.65 4.75889 2135.55C-35.8072 2137.88 -76.5058 2139.67 -117.148 2138.71C-146.188 2138.03 -186.291 2138.8 -211.518 2122.34C-241.637 2102.71 -164.971 2010.6 -154.184 1994.18C-128.039 1954.4 -109.71 1915.86 -103.086 1867.92C-101.137 1853.95 -94.5698 1839.64 -95.4214 1825.56C-96.3109 1811.18 -104.704 1798.38 -112.454 1787.08C-122.589 1772.26 -157.752 1737.12 -147.683 1719.05C-142.119 1709.08 -121.235 1707.82 -110.41 1705.7C-90.1036 1701.71 -69.5034 1699.57 -49.0737 1696.39C-14.4122 1690.99 20.0031 1673.38 54.7876 1673.88C148.325 1675.19 243.216 1705.8 334.88 1722.61C389.375 1732.64 444.239 1741.74 498.072 1755.32C515.105 1759.62 532.648 1764.07 548.839 1771.36C560.137 1776.45 567.395 1785.52 577.86 1791.22C617.991 1813.1 664.14 1826.38 707.233 1841.1C763.176 1860.26 819.308 1878.84 874.863 1899.23C909.685 1912.01 954.462 1923.26 984.468 1946.96C1006.38 1964.27 991.404 1969.45 979.841 1985.57C973.936 1993.79 975.298 2001.9 972.734 2011.2C969.072 2024.49 958.72 2034.06 949.011 2042.66C935.622 2054.55 917.785 2064.33 906.837 2078.9C902.976 2084.03 903.156 2090.39 900.033 2094.86C890.949 2107.88 866.848 2114.31 853.723 2119.68Z" stroke="#FFCA49" stroke-width="3.31375"/>
<path fill-rule="evenodd" clip-rule="evenodd" d="M705.347 2099.35C592.083 2135.23 466.058 2155.66 346.334 2146.17C304.678 2142.87 262.767 2135.2 223.964 2118.34C206.31 2110.69 193.058 2102.17 173.713 2101.71C128.827 2100.65 83.7987 2104.36 38.922 2105.24C6.80651 2105.88 -25.4696 2106.11 -57.5096 2103.39C-78.9325 2101.57 -107.903 2099.4 -125.453 2085.53C-150.956 2065.34 -104.918 1996.7 -95.5475 1977.74C-80.0187 1946.29 -64.6128 1911.33 -70.7714 1874.94C-72.6605 1863.81 -76.0044 1853.98 -76.4389 1842.63C-76.8545 1832.88 -75.6926 1823.88 -78.9703 1814.56C-83.0225 1803 -101.045 1785.07 -94.8485 1774.43C-90.6263 1767.16 -78.1013 1766.82 -69.7701 1764.5C-56.2576 1760.73 -43.064 1755.78 -30.3247 1749.71C-16.9118 1743.28 -5.49185 1733.35 8.40283 1728.04C30.9593 1719.43 56.2077 1718.63 79.9165 1718.66C174.516 1718.83 270.314 1738.52 362.514 1759.11C410.527 1769.83 458.804 1781.25 505.466 1797.51C519.635 1802.45 535.692 1807.41 548.151 1816.54C555.925 1822.21 561.196 1829.33 570.028 1833.6C645.471 1870.07 732.693 1883.62 812.783 1909.95C833.63 1916.81 949.161 1951.45 888.755 1984.04C852.059 2003.84 813.284 2012.84 779.799 2039.93C769.597 2048.16 762.796 2054.98 758.81 2067.55C756.184 2075.91 762.503 2071.67 753.681 2080.41C742.979 2090.92 718.543 2095.16 705.347 2099.35Z" stroke="#FFCA49" stroke-width="3.31375"/>
<path fill-rule="evenodd" clip-rule="evenodd" d="M587.578 2078.13C454.972 2107.42 314.542 2108.81 179.842 2082.85C145.886 2076.31 110.546 2077.87 76.1726 2076.21C42.7747 2074.62 -16.6045 2077.93 -40.862 2050.83C-58.4513 2031.19 -39.3654 1989.44 -32.7635 1967.47C-24.3525 1939.48 -17.0023 1910.56 -30.8123 1883.37C-38.9013 1867.45 -49.9834 1852.29 -58.6596 1836.52C-62.8083 1828.99 -71.352 1817.45 -67.7906 1810.31C-61.8991 1798.54 -34.3359 1793.58 -20.9616 1788.03C21.785 1770.29 67.0512 1765.76 112.753 1765.88C197.166 1766.12 282.015 1778.3 364.819 1794.82C402.915 1802.42 441.541 1810.53 478.282 1823.74C499.073 1831.22 514.408 1845.64 534.261 1854.19C598.187 1881.73 666.868 1896.45 731.892 1921.63C750.713 1928.93 821.013 1953.21 785.598 1981.84C751.309 2009.55 701.298 2006.26 665.646 2032.33C661.611 2035.32 656.619 2038.89 654.279 2043.72C652.896 2046.6 655.331 2052.1 654.279 2053.74C643.33 2071.58 604.41 2074.42 587.578 2078.13Z" stroke="#FFCA49" stroke-width="3.31375"/>
<path fill-rule="evenodd" clip-rule="evenodd" d="M501.666 2058.77C433.635 2068.62 364.108 2071.06 294.932 2071.68C257.119 2072.02 215.576 2074.56 178.577 2064.46C155.85 2058.23 133.899 2052.79 110.471 2048.87C85.2626 2044.65 44.6754 2041.57 29.3249 2018.69C17.8571 2001.59 25.7169 1966.44 26.1335 1945.65C26.5786 1922.85 22.1468 1905.94 6.89107 1889.62C-2.70177 1879.35 -46.7076 1842.05 -41.6223 1831.29C-36.7833 1821.04 -6.1203 1819.47 7.13732 1816.81C49.0409 1808.37 91.5032 1805.43 134.126 1805.89C200.14 1806.59 266.4 1813.69 331.381 1825.9C358.247 1830.97 386.012 1836.22 411.675 1846.36C428.957 1853.19 443.37 1865.31 460.539 1872.37C509.705 1892.63 561.694 1906.39 611.032 1927.02C626.865 1933.66 678.456 1951.31 666.089 1978.53C655.776 2001.25 620.7 2008.17 603.465 2023.39C574.147 2049.37 539.052 2053.37 501.666 2058.77Z" stroke="#FFCA49" stroke-width="3.31375"/>
<path fill-rule="evenodd" clip-rule="evenodd" d="M458.808 2045.71C404.842 2052.23 349.621 2055.08 294.863 2055.22C259.523 2055.31 222.241 2055.82 187.562 2047.44C170.142 2043.23 155.005 2033.4 138.519 2026.38C121.543 2019.16 98.1153 2011.11 90.7777 1994.57C83.8834 1979.02 86.4582 1956.34 80.4032 1937.59C75.0179 1920.96 63.7475 1910.68 51.6094 1899.44C43.8756 1892.25 4.16023 1861.15 8.75329 1854.28C13.6765 1846.93 37.5284 1847.53 49.94 1846.51C84.1365 1843.66 118.453 1842.75 152.742 1843.79C199.54 1845.3 246.697 1849.53 292.684 1859.1C325.307 1865.87 349.913 1882.02 380.329 1893.86C419.734 1909.24 460.552 1921.4 499.579 1938.22C519.027 1946.6 547.811 1957.38 557.771 1979.02C561.6 1987.31 565.316 2008.4 561.053 2016.69C555.932 2026.66 536.871 2030.89 527.873 2033.45C505.332 2039.83 481.745 2042.94 458.808 2045.71Z" stroke="#FFCA49" stroke-width="3.31375"/>
</g>
</svg>
