<svg width="1440" height="648" viewBox="0 0 1440 648" fill="none" xmlns="http://www.w3.org/2000/svg">
<g opacity="0.1">
<path fill-rule="evenodd" clip-rule="evenodd" d="M513.385 114.703C513.296 94.7357 478.073 72.2816 463.026 60.7051C433.276 37.8085 402.334 16.6646 371.678 -4.81702C341.023 -26.2986 310.285 -47.722 281.053 -71.3058C262.073 -86.6149 239.771 -103.857 226.899 -125.717C199.477 -172.303 285.936 -165.385 308.332 -166.404C365.306 -169.007 430.655 -167.819 484.059 -192.078C515.939 -206.56 528.652 -230.849 521.804 -266.248C519.597 -277.76 513.065 -291.008 518.599 -302.223C524.508 -314.201 538.103 -321.113 549.386 -325.749C590.541 -342.636 637.86 -344.592 681.404 -346.712C728.358 -349.041 775.753 -348.36 822.376 -348.54C842.145 -348.616 862.792 -356.111 881.618 -362.202C906.298 -370.185 930.685 -379.153 955.161 -387.823C1009.01 -406.854 1064.49 -426.897 1121.46 -431.73C1157.13 -434.758 1196.13 -430.664 1223.84 -404.326C1237.76 -391.102 1245.04 -371.443 1253.08 -353.979C1262.82 -332.882 1272.17 -311.581 1282.54 -290.816C1315.94 -223.937 1363.62 -158.583 1441.02 -155.299C1452.72 -154.804 1464.22 -156.417 1475.88 -156.72C1483.3 -156.906 1489.9 -155.014 1492.66 -146.82C1499.6 -126.271 1477.8 -93.8298 1468.86 -77.5249C1449.29 -41.8348 1427.22 -7.74604 1406.54 27.2278C1392.86 50.3574 1369.19 81.9655 1368.94 110.068C1368.72 135.108 1400.28 153.206 1417.46 165.539C1433.56 177.087 1462.73 193.246 1464.5 216.737C1465.35 228.127 1458.24 237.566 1450.8 244.892C1437.78 257.703 1422.77 266.74 1411.05 281.356C1391.83 305.336 1375.78 338.33 1378.39 370.643C1380.2 393.033 1392.3 407.695 1407.7 421.712C1414.17 427.605 1419.43 431.774 1419.77 441.342C1420.32 456.534 1414.68 472.612 1410.04 486.698C1393.42 537.109 1369.81 585.855 1343.55 631.369C1330.43 654.114 1316.26 676.789 1298.86 696.192C1287.47 708.933 1272.1 724.097 1254.72 724.079C1234.6 724.079 1213.31 716.416 1193.75 710.686C1157.22 699.977 1121.13 687.597 1085.18 674.897C1002.05 645.513 919.701 613.75 838.134 579.607C780.68 555.516 722.007 531.391 667.991 499.363C657.456 493.074 647.513 485.741 638.296 477.463C628.447 468.769 616.226 464.879 603.833 461.979C526.919 443.979 442.656 457.798 365.422 466.463C345.818 468.658 326.214 470.865 306.555 472.402C289.655 473.724 269.422 477.515 252.997 471.82C220.631 460.61 248.925 419.295 260.887 402.46C303.002 343.186 357.338 293.037 407.702 241.84C431.648 217.459 455.776 193.141 478.42 167.38C490.211 153.986 513.462 132.208 513.385 114.703Z" stroke="#FFCA49" stroke-width="1.935"/>
<path fill-rule="evenodd" clip-rule="evenodd" d="M527.898 111.337C514.99 90.2082 492.341 74.5916 473.541 59.8946C446.487 38.7368 418.582 18.7547 391.097 -1.80357C365.109 -21.2443 339.065 -40.9062 314.997 -62.9837C300.322 -76.4467 281.908 -92.5465 274.957 -112.459C259.878 -155.618 340.997 -149.07 361.023 -150.199C410.808 -152.993 467.253 -153.633 513.311 -176.357C542.072 -190.548 553.887 -214.08 547.753 -246.751C545.633 -258.055 541.812 -267.705 546.649 -278.951C552.242 -291.965 565.106 -300.079 576.9 -305.807C613.843 -323.752 657.511 -327.564 697.557 -330.736C738.928 -334.013 782.032 -336.324 822.073 -333.926C838.085 -332.971 856.515 -338.39 872.361 -342.546C896.743 -348.949 920.876 -356.335 945.137 -363.204C994.442 -377.173 1045.03 -390.63 1096.32 -392.161C1133.35 -393.267 1171.96 -387.272 1202.77 -364.1C1233.99 -340.602 1247.85 -304.177 1265.16 -269.55C1295.07 -209.686 1335.45 -136.899 1404.64 -124.251C1415.13 -122.33 1425.21 -123.372 1435.69 -122.901C1441.08 -122.662 1447.21 -121.905 1449.94 -116.3C1457.04 -101.749 1437.6 -75.1429 1431.05 -63.9965C1412.98 -33.194 1392.65 -3.89897 1373.71 26.3099C1358.66 50.2965 1339.59 76.9489 1333.77 105.382C1326.71 139.887 1372.85 164.438 1389.08 188.733C1417.21 230.863 1363.92 254.867 1337.64 274.954C1307.47 298.015 1282.56 340.086 1309.61 375.766C1319.96 389.409 1332.69 397.541 1337.31 415.346C1344.54 443.192 1339.07 475.013 1333.21 502.538C1324.37 543.917 1310.39 584.847 1291.39 622.244C1277.77 649.019 1255.18 691.003 1222.11 687.854C1199.84 685.753 1177.2 678.075 1155.52 671.289C1123.05 661.132 1091 649.555 1059.11 637.529C985.509 609.847 912.716 579.323 841.353 545.75C792.661 522.835 656.837 429.187 646.617 425.846C616.145 415.893 581.499 417.645 550.083 419.188C508.292 421.236 466.711 426.545 425.164 431.463C405.386 433.791 385.51 436.638 365.628 437.784C351.477 438.599 332.892 439.298 320.497 430.619C296.302 413.687 323.257 374.945 334.405 358.555C368.554 308.305 411.753 264.791 452.257 220.298C472.133 198.454 492.314 176.644 510.357 153.047C517.634 143.519 535.877 124.387 527.898 111.337Z" stroke="#FFCA49" stroke-width="1.935"/>
<path fill-rule="evenodd" clip-rule="evenodd" d="M545.757 100.501C510.503 58.2197 461.846 26.7739 419.852 -8.53785C398.775 -26.2665 377.565 -44.4783 359.386 -65.5955C349.929 -76.5762 338.121 -90.4623 336.299 -105.769C331.43 -146.716 404.543 -141.18 426.427 -142.734C468.736 -145.75 516.532 -148.038 554.916 -168.934C578.367 -181.708 589.916 -202.674 585.532 -230.23C583.589 -242.457 580.564 -252.844 585.532 -264.849C590.567 -277.012 601.056 -285.594 611.677 -292.027C642.2 -310.53 680.131 -316.446 714.496 -320.853C754.81 -325.987 795.426 -327.991 836.019 -326.85C871.57 -325.866 906.951 -336.934 941.664 -344.229C987.65 -353.888 1034.47 -362.325 1081.53 -361.05C1118.69 -360.037 1156.15 -352.078 1187.92 -330.926C1220.2 -309.383 1239.61 -277.14 1257.11 -242.346C1283.56 -189.748 1316.53 -119.265 1374.57 -99.2887C1383.01 -96.3776 1390.88 -96.0573 1399.58 -95.5508C1403.81 -95.3063 1409.27 -95.2306 1411.37 -90.5786C1416.41 -79.3767 1397.76 -57.6599 1392.55 -50.091C1375.94 -25.9288 1357.92 -2.85535 1340.89 20.9866C1324.99 43.2449 1307.68 66.4407 1297.8 92.5242C1282.08 134.066 1332.33 158.356 1330.92 197.941C1330.05 222.517 1307.74 240.141 1290.07 252.332C1268.32 267.325 1237 277.182 1226.12 304.54C1218.01 324.918 1230.73 336.778 1240.53 352.242C1257.14 378.441 1258.27 413.957 1256.54 444.285C1254.21 485.267 1245.11 526.856 1229.61 564.525C1222.59 581.602 1213.99 599.365 1201.33 612.628C1189.46 625.059 1178.23 628.244 1162.38 625.699C1113.84 617.898 1064.84 596.152 1018.29 576.729C959.815 552.322 902.143 525.377 846.193 495.06C808.041 474.386 769.028 452.512 735.54 423.948C726.812 416.501 717.875 408.408 711.493 398.586C706.668 391.204 704.62 385.108 696.488 380.893C672.386 368.404 638.86 371.67 613.035 372.969C571.742 375.035 530.648 380.537 489.608 385.492C465.661 388.403 420.547 397.562 401.424 375.594C384.918 356.626 404.836 324.283 415.01 307.574C440.747 265.316 473.853 228.228 504.569 190.04C518.646 172.539 533.275 154.903 544.902 135.446C547.872 130.485 552.63 123.912 553.447 117.886C554.364 110.981 550.085 105.711 545.757 100.501Z" stroke="#FFCA49" stroke-width="1.935"/>
<path fill-rule="evenodd" clip-rule="evenodd" d="M548.788 110.344C516.212 72.96 476.967 42.2475 441.995 7.26401C426.314 -8.42146 410.479 -24.8761 398.531 -44.011C392.104 -54.3009 385.28 -67.2536 387.052 -80.0432C392.137 -116.751 452.27 -113.436 476.564 -115.586C512.662 -118.744 554.132 -121.926 586.051 -141.719C606.96 -154.683 614.8 -173.83 610.897 -198.523C606.706 -225.012 616.076 -244.24 637.399 -259.016C664.133 -277.527 697.88 -285.073 728.92 -290.434C766.318 -296.861 804.19 -299.71 842.074 -298.946C878.918 -298.201 914.613 -304.715 951.214 -308.951C999.74 -314.562 1049.82 -317.33 1097.8 -305.828C1139.58 -295.812 1177.31 -273.74 1205.6 -239.607C1235.14 -203.983 1249.77 -159.1 1273.76 -119.688C1288.72 -95.1052 1309.58 -62.5865 1337.54 -53.0307C1346.87 -49.8435 1363.86 -54.1436 1356.42 -38.4639C1352.16 -29.4966 1344.19 -21.6306 1337.9 -14.3006C1327.73 -2.45494 1317.22 9.06446 1306.88 20.747C1284.84 45.6503 1261.23 71.0838 1244.72 100.573C1223.9 137.7 1254.84 166.275 1251.07 203.921C1249.04 224.18 1235.69 240.349 1221.57 253.052C1212.43 261.279 1202.43 268.405 1192.22 275.053C1181.56 281.999 1168.95 287.289 1159.65 296.268C1146.4 309.046 1152.15 324.172 1154.63 340.691C1159.01 369.721 1159.97 399.209 1157.49 428.488C1154.47 464.374 1147.37 501.286 1132.43 533.898C1126.61 546.595 1119.25 560.054 1108.31 568.567C1097.37 577.08 1086.06 576.497 1073.53 573.934C1036.35 566.359 999.254 548.733 963.99 532.028C919.853 511.116 876.582 487.745 835.261 461.158C806.738 442.804 778.121 422.976 754.258 398.09C747.317 390.847 740.714 383.092 735.375 374.433C731.709 368.496 729.743 360.834 724.432 356.371C707.812 342.439 674.447 346.599 654.957 347.409C616.059 349.023 577.775 356.697 538.927 358.561C517.725 359.581 484.52 362.145 468.95 343.097C454.307 325.192 467.569 296.991 476.321 279.738C493.52 245.815 516.626 215.592 537.337 184.058C545.85 171.082 555.181 157.505 560.697 142.688C565.6 129.485 557.136 119.929 548.788 110.344Z" stroke="#FFCA49" stroke-width="1.935"/>
<path fill-rule="evenodd" clip-rule="evenodd" d="M556.8 110.955C530.871 78.0585 499.612 48.8562 473.495 15.424C458.208 -4.15475 431.882 -37.0692 443.704 -64.6714C456.674 -95.0024 501.885 -95.8286 528.018 -98.2723C559.122 -101.181 595.649 -105.155 622.268 -124.094C630.687 -130.081 637.859 -138.006 640.899 -148.444C644.154 -159.615 640.595 -169.39 640.132 -180.573C639.161 -204.032 652.434 -222.866 670 -235.801C694.826 -254.088 725.869 -262.734 755.191 -268.762C788.412 -275.56 822.183 -278.912 856.023 -278.769C888.363 -278.653 920.361 -279.409 952.733 -280.282C995.07 -281.445 1038 -279.566 1079.07 -267.703C1119.52 -256.008 1156.31 -234.09 1185.2 -201.851C1213.38 -170.391 1232.4 -131.937 1249.05 -92.7682C1258.51 -70.5363 1274.47 -37.3135 1297.01 -26.0841C1307.04 -21.0862 1316.87 -21.4294 1306.22 -8.43126C1292.79 7.93575 1274.7 21.0678 1259.16 35.0667C1236.73 55.268 1213.74 75.8649 1194.92 99.8831C1182.9 115.22 1177.54 130.104 1178.37 149.962C1179.01 165.089 1181.91 180.06 1180.44 195.246C1177 230.889 1150.4 255.332 1126.87 278.093C1111.74 292.732 1097.92 303.898 1090.13 324.721C1080.92 349.333 1077.05 376.109 1070.89 401.663C1064.13 429.725 1056.32 458.916 1041.55 483.632C1028.41 505.637 1012.43 515.505 988.51 509.576C951.2 500.337 914.424 477.575 881.301 456.519C847.588 435.095 814.454 411.007 786.516 381.561C771.433 365.659 761.139 346.988 747.744 329.906C730.895 308.459 692.779 316.582 670.127 318.397C632.524 321.411 514.204 343.963 525.122 270.919C529.679 240.431 547.625 212.294 560.75 185.389C566.189 174.224 574.062 160.824 575.292 148.03C576.633 134.095 564.595 120.858 556.8 110.955Z" stroke="#FFCA49" stroke-width="1.935"/>
<path fill-rule="evenodd" clip-rule="evenodd" d="M570.49 113.749C550.675 83.9376 526.961 55.7738 509.959 23.5757C498.93 2.72355 488.099 -25.1376 502.327 -47.2006C518.386 -72.0987 553.796 -77.9026 579.815 -81.0752C606.622 -84.341 638.625 -87.0887 660.535 -105.967C667.505 -111.981 673.252 -120.09 674.322 -129.8C675.353 -139.114 672.441 -148.429 673.406 -157.912C675.568 -179.206 687.805 -196.752 703.583 -209.477C750.254 -247.124 819.719 -255.495 876.03 -256.479C904.216 -256.968 933.224 -254.401 961.592 -252.561C998.403 -250.175 1035.27 -245.052 1070.38 -232.705C1145.02 -206.462 1195.05 -148.26 1229.99 -75.836C1240.99 -53.0395 1249.4 -28.3743 1266.64 -10.0544C1275.52 -0.59468 1273.58 6.19888 1264.5 14.8262C1250.3 28.3085 1232.97 38.6123 1217.21 49.8651C1194.79 65.868 1171.9 82.1097 1152.07 101.279C1138.41 114.494 1128.71 127.225 1125.76 147.041C1123.66 161.17 1124.15 175.566 1122.89 189.782C1120.48 216.787 1112.25 243.589 1097.67 265.99C1086.09 283.745 1072.31 299.882 1058.06 315.268C1039.53 335.299 1023.86 355.65 1009.8 379.425C991.145 410.895 964.939 468.946 921.008 453.584C872.556 436.632 827.141 393.559 796.055 351.826C785.615 337.814 777.045 320.629 762.966 310.296C741.889 294.852 720.502 295.393 695.432 295.457C657.899 295.545 576.225 304.143 575.342 244.811C574.995 221.305 584.635 199.079 589.251 176.468C594.457 151.145 584.023 134.065 570.49 113.749Z" stroke="#FFCA49" stroke-width="1.935"/>
<path fill-rule="evenodd" clip-rule="evenodd" d="M585.248 116.406C565.649 77.5526 521.699 13.7077 555.126 -29.4975C572.783 -52.3304 604.014 -60.911 630.213 -66.0244C651.296 -70.1605 676.723 -71.7137 692.652 -89.247C704.361 -102.138 699.164 -120.899 703.649 -137.036C709.217 -157.042 721.996 -173.412 737.7 -185.715C781.583 -220.102 842.599 -230.654 895.388 -232.9C950.213 -235.227 1010.62 -224.342 1062.21 -203.406C1126.54 -177.292 1174.73 -127.845 1208.44 -65.2274C1214.65 -53.6684 1220.3 -41.8069 1226.28 -30.1083C1230.29 -22.2608 1236.23 -14.6692 1239.4 -6.41441C1244.66 7.34935 1238.46 18.6 1228.52 27.5703C1214.21 40.4848 1196.64 49.6761 1180.34 59.3677C1158.04 72.6312 1135.25 85.6561 1114.51 101.217C1100.57 111.689 1085.98 122.968 1080.99 141.136C1077.59 153.527 1076.88 166.651 1077 179.484C1077.27 206.999 1075.9 229.251 1063.73 254.451C1043.7 295.824 1012.9 333.026 980.357 363.979C954.821 388.273 914.414 426.009 877.207 409.768C843.824 395.224 824.297 360.413 802.303 332.269C791.609 318.587 779.597 306.091 765.482 296.359C747.687 284.09 730.935 278.942 709.852 276.935C674.366 273.555 620.86 272.677 609.891 227.767C605.841 211.194 608.153 194.027 606.028 177.238C603.253 155.039 595.136 136.005 585.248 116.406Z" stroke="#FFCA49" stroke-width="1.935"/>
<path fill-rule="evenodd" clip-rule="evenodd" d="M605.628 117.845C591.672 75.3315 573.337 21.7528 607.045 -16.0319C623.373 -34.336 646.34 -44.5684 668.567 -52.2151C684.487 -57.6952 709.764 -59.3084 719.524 -76.1566C726.693 -88.5554 727.685 -105.66 734.17 -118.944C743.081 -137.207 756.58 -152.25 772.417 -164.026C813.674 -194.711 867.41 -206.568 916.415 -209.964C1022.89 -217.331 1131.24 -158.656 1188.22 -62.1213C1205.21 -33.346 1227.14 -2.71877 1199.68 26.6797C1169.71 58.7512 1124.55 73.7766 1088.77 96.565C1075.1 105.266 1057.68 115.725 1050.06 131.479C1045.47 140.948 1045.16 152.829 1044.95 163.253C1044.39 189.804 1042.3 213.681 1032.19 238.456C1016.56 276.741 991.64 312.062 963.402 340.995C938.775 366.223 903.655 395.872 867.89 377.685C840.468 363.708 823.076 334.041 801.769 312.173C778.058 287.818 748.733 271.406 716.53 263.387C685.204 255.607 650.845 250.359 634.335 217.304C628.672 205.965 622.755 191.283 620.632 178.733C617.205 158.04 612.187 137.677 605.628 117.845Z" stroke="#FFCA49" stroke-width="1.935"/>
<path fill-rule="evenodd" clip-rule="evenodd" d="M628.351 118.145C621.894 75.2155 621.177 30.4518 651.176 -3.38302C665.176 -19.1679 682.874 -30.3822 700.771 -40.5425C713.938 -48.0187 727.535 -54.3245 737.369 -66.581C746.48 -77.9291 753.406 -91.1055 762.203 -102.751C773.806 -118.183 787.69 -131.542 803.321 -142.315C842.503 -169.267 890.166 -181.873 935.766 -186.246C957.84 -188.371 981.785 -189.478 1003.71 -183.684C1024.88 -178.094 1045.82 -169.256 1065.29 -158.95C1106.68 -137.063 1142.55 -105.01 1168.55 -64.4849C1186.38 -36.688 1196.02 -9.65973 1172.94 18.5389C1146.9 50.3242 1106.09 67.8617 1072.45 88.491C1049.38 102.64 1023.52 116.509 1019.21 146.577C1015.77 170.502 1012.99 193.209 1004.11 215.824C990.892 249.181 971.462 279.398 946.968 304.682C924.569 327.716 896.231 347.262 864.19 334.959C838.805 325.195 819.11 303.32 796.931 287.68C772.213 270.213 745.057 260.582 716.46 252.838C690.76 245.851 666.561 235.114 649.95 212.319C646.551 207.661 642.981 202.59 640.359 197.378C637.015 190.729 637.275 184.138 636.618 176.685C634.907 157.017 631.27 137.575 628.351 118.145Z" stroke="#FFCA49" stroke-width="1.935"/>
<path fill-rule="evenodd" clip-rule="evenodd" d="M653.408 114.636C653.96 73.8591 663.254 35.3218 688.71 3.54361C699.593 -10.0506 712.589 -21.2479 724.564 -33.7049C734.206 -43.7474 743.318 -53.0785 754.405 -61.354C780.705 -80.9493 802.08 -106.306 830.029 -123.756C867.339 -147.083 910.076 -159.978 952.483 -165.133C973.19 -167.652 994.581 -168.533 1015.53 -165.687C1033.52 -163.243 1050.76 -154.665 1066.74 -145.888C1098.07 -128.695 1128.49 -104.259 1148.83 -73.3444C1193.68 -5.18678 1105.26 44.3671 1059.87 73.3867C1039 86.736 1007.11 102.196 998.558 128.638C992.446 147.528 988.723 166.738 980.851 185.045C959.709 234.208 916.789 292.031 859.594 284.333C835.12 281.044 812.814 267.683 789.966 258.714C766.441 249.476 742.16 244.326 717.708 238.675C694.855 233.397 676.641 225.886 661.881 205.748C654.826 196.131 655.449 184.619 654.82 172.821C653.794 153.442 653.16 133.951 653.408 114.636Z" stroke="#FFCA49" stroke-width="1.935"/>
<path fill-rule="evenodd" clip-rule="evenodd" d="M676.222 109.413C685.41 47.8643 719.537 -19.3296 769.716 -55.0741C828.741 -97.1212 892.687 -132.528 963.209 -142.707C995.906 -147.426 1031.72 -149.749 1062.57 -134.315C1086.05 -122.577 1113.33 -105.03 1126.25 -80.3548C1157.86 -19.9989 1087.54 28.0483 1047.48 55.9711C1025.91 71.0034 998.457 85.6515 982.2 107.603C972.768 120.331 967.953 137.167 960.338 151.146C937.261 193.507 899.275 227.675 851.956 233.785C830.078 236.608 808.039 233.116 786.326 230.34C764.1 227.5 741.597 225.958 719.509 221.995C701.877 218.829 681.097 213.469 674.603 193.56C666.414 168.471 672.472 134.548 676.222 109.413Z" stroke="#FFCA49" stroke-width="1.935"/>
<path fill-rule="evenodd" clip-rule="evenodd" d="M698.595 99.5258C711.996 41.6594 740.374 -14.7857 788.079 -49.3308C813.377 -67.6489 842.745 -80.2938 870.94 -92.7874C902.9 -106.947 936.293 -117.938 970.398 -123.389C1012.86 -130.181 1081.64 -136.302 1103.82 -85.2505C1125.84 -34.5774 1070.2 10.2712 1037.29 35.8291C1016.2 52.2018 993.618 67.229 973.461 85.1276C962.531 94.8312 954.111 106.043 944.862 117.424C919.298 148.958 882.854 173.922 845.708 187.249C809.707 200.167 765.169 205.887 727.166 201.618C710.768 199.783 699.048 193.591 694.089 175.99C687.217 151.521 693.055 123.43 698.595 99.5258Z" stroke="#FFCA49" stroke-width="1.935"/>
<path fill-rule="evenodd" clip-rule="evenodd" d="M720.825 83.94C734.138 32.9908 762.853 -13.5443 804.738 -44.1231C851.688 -78.4024 912.145 -97.4504 967.712 -107.137C997.248 -112.282 1061.25 -126.231 1076.31 -86.3081C1091.36 -46.3852 1047.84 -7.04231 1022.79 14.6157C992.392 40.8617 959.614 66.2029 926.875 89.7518C898.43 110.227 868.077 131.16 837.267 146.971C819.891 155.941 801.79 163.264 783.178 168.855C769.397 172.962 751.872 179.087 737.423 176.03C700.98 168.31 714.458 108.301 720.825 83.94Z" stroke="#FFCA49" stroke-width="1.935"/>
<path fill-rule="evenodd" clip-rule="evenodd" d="M748.267 68.6837C777.477 -27.6672 870.023 -75.0543 959.13 -91.5714C979.837 -95.4054 1037.88 -109.229 1049.46 -79.7959C1060.67 -51.2589 1025 -17.416 1008.3 -1.38174C956.557 48.3034 892.625 85.1426 832.045 121.639C813.135 133.03 779.031 157.75 755.575 146.347C730.107 133.943 742.216 88.6625 748.267 68.6837Z" stroke="#FFCA49" stroke-width="1.935"/>
<path fill-rule="evenodd" clip-rule="evenodd" d="M778.187 50.1385C803.59 -20.8167 877.475 -61.5122 945.405 -74.928C962.043 -78.2107 1004.3 -88.4311 1016.9 -68.6305C1028.56 -50.314 1000.73 -23.7734 990.321 -13.227C967.142 10.2579 939.671 29.6045 912.532 48.2004C887.439 65.4052 862.075 83.0407 835.672 97.5914C821.765 105.251 795.682 121.594 779.879 109.768C762.865 97.0443 772.547 65.8941 778.187 50.1385Z" stroke="#FFCA49" stroke-width="1.935"/>
<path fill-rule="evenodd" clip-rule="evenodd" d="M811.158 29.4076C830.519 -16.9291 882.374 -47.0185 928.117 -57.0173C940.425 -59.7018 967.027 -66.6666 977.41 -54.2919C986.969 -42.8955 971.563 -26.1883 964.726 -18.4723C934.423 15.7284 890.047 46.2779 849.388 65.0409C839.166 69.7578 820.789 79.017 810.273 69.4958C799.486 59.7183 806.711 40.0469 811.158 29.4076Z" stroke="#FFCA49" stroke-width="1.935"/>
<path fill-rule="evenodd" clip-rule="evenodd" d="M846.135 9.94392C857.045 -13.065 885.56 -30.4246 909.18 -35.9505C925.803 -39.8362 945.784 -36.4796 931.297 -16.4511C916.905 3.42452 890.202 21.5777 867.569 29.6256C850.301 35.7628 836.767 29.7078 846.135 9.94392Z" stroke="#FFCA49" stroke-width="1.935"/>
<path fill-rule="evenodd" clip-rule="evenodd" d="M-38.5829 169.307C-39.2826 123.849 -62.1753 76.6059 -50.8695 30.2876C-41.5857 -7.75357 5.15287 -10.9295 33.1916 -28.1644C55.4727 -41.8569 68.1174 -66.1125 80.167 -89.3851C90.9935 -110.279 100.718 -131.8 112.123 -152.351C119.506 -165.636 132.184 -191.724 148.195 -192.195C163.523 -192.649 177.578 -172.319 186.482 -160.302C198.09 -144.638 208.383 -127.938 219.655 -112.024C238.653 -85.1796 261.446 -65.3098 287.545 -46.5044C317.246 -25.1067 347.437 -4.44002 378.119 15.4957C400.709 30.2178 423.453 44.8293 445.166 61.0055C458.786 71.1557 488.847 90.1995 488.985 108.912C489.051 117.84 481.034 127.729 475.629 134.866C466.483 146.947 456.059 157.993 445.601 168.801C426.125 188.932 405.822 208.15 385.739 227.601C359.673 252.846 334.774 277.677 311.86 306.336C288.168 336.001 265.534 366.644 242.438 396.867C226.796 417.342 211.17 440.335 188.608 452.9C160.349 468.605 137.154 452.044 108.575 451.853C83.9907 451.684 85.8034 391.562 82.6794 374.845C79.5444 357.925 72.6353 342.173 69.9576 325.211C66.6188 304.039 66.5747 282.377 65.7537 260.978C64.7565 234.803 64.3598 209.884 37.8528 199.902C22.7673 194.231 6.44766 193.039 -9.16674 189.642C-19.2825 187.437 -38.3625 183.668 -38.5829 169.307Z" stroke="#FFCA49" stroke-width="1.935"/>
<path fill-rule="evenodd" clip-rule="evenodd" d="M-26.4962 161.22C-29.0731 123.116 -44.2973 74.3446 -29.9008 35.0108C-17.6011 1.39772 20.865 -2.95973 46.7666 -20.6168C68.1489 -35.1805 77.6675 -59.0127 88.3559 -82.4253C96.9309 -101.207 105.247 -120.169 114.98 -138.35C122.154 -151.749 133.107 -174.369 148.022 -177.142C161.431 -179.635 175.811 -159.666 183.338 -149.506C194.318 -134.674 203.71 -118.567 213.411 -102.797C230.456 -75.0969 247.909 -50.187 272.856 -29.8386C297.914 -9.40275 325.327 5.87755 353.033 21.7812C374.708 34.2244 396.272 47.0288 416.866 61.3945C432.206 72.0901 454.261 85.78 461.28 104.853C466.837 119.941 438.656 144.979 430.346 153.816C413.24 171.986 395.114 189.043 376.954 205.995C354.816 226.652 331.971 244.717 312.421 268.281C277.453 310.411 248.224 362.876 203.23 394.188C176.092 413.074 145.892 417.903 115.709 415.078C103.757 413.959 100.887 396.151 99.3809 385.764C96.8757 368.509 96.5612 350.957 94.6354 333.632C92.831 317.413 88.8249 302.005 85.5969 286.101C82.3302 269.988 81.4142 253.479 79.0084 237.255C77.5185 227.182 76.0452 215.461 69.5284 207.364C62.7854 198.981 51.6611 195.468 41.9383 192.8C23.6792 187.837 -24.6752 188.111 -26.4962 161.22Z" stroke="#FFCA49" stroke-width="1.935"/>
<path fill-rule="evenodd" clip-rule="evenodd" d="M-10.9411 145.269C-15.2749 110.292 -21.3422 66.7279 -3.68678 34.5026C10.7445 8.1534 41.5228 2.46932 63.5065 -14.6993C81.7913 -28.9764 88.6978 -51.6836 97.774 -72.785C105.222 -90.0932 112.708 -107.477 121.734 -123.947C128.58 -136.438 137.402 -153.374 150.994 -157.732C162.615 -161.455 175.744 -144.776 182.187 -136.473C193.156 -122.324 202.1 -106.471 210.983 -90.8263C225.514 -65.2276 238.885 -37.8835 259.566 -17.0613C279.661 3.14418 303.533 15.0709 327.852 28.4811C346.479 38.7555 364.99 49.4255 382.541 61.6779C396.017 71.0796 412.717 82.2209 419.74 97.8652C425.813 111.357 410.222 127.327 402.432 136.845C389.569 152.553 375.292 166.964 361.214 181.433C346.021 197.043 329.194 211.442 314.492 227.435C283.576 261.092 258.876 298.355 220.771 324.14C196.093 340.843 162.886 356.016 133.714 353.288C112.735 351.321 114.115 302.323 112.1 286.667C108.788 261.069 102.389 234.172 92.2256 210.593C83.4973 190.387 62.7557 184.156 43.6759 179.624C31.7235 176.779 19.1968 175.243 7.63634 170.845C-5.74602 165.748 -9.12473 159.93 -10.9411 145.269Z" stroke="#FFCA49" stroke-width="1.935"/>
<path fill-rule="evenodd" clip-rule="evenodd" d="M3.56853 128.874C0.988146 99.3026 1.56833 64.334 18.2828 38.7536C32.9308 16.3475 59.011 10.4484 77.5599 -7.20228C92.0366 -20.9727 97.7223 -43.4255 105.508 -61.6363C115.023 -83.9024 128.355 -125.027 152.358 -133.406C174.686 -141.196 198.037 -91.4353 206.121 -76.5971C218.918 -53.1115 229.62 -27.3561 245.141 -5.66769C258.508 13.0041 276.416 23.3261 295.423 34.4183C319.658 48.5855 356.452 65.3842 369.409 92.9951C379.068 113.569 347.661 144.156 336.936 158.41C325.719 173.301 317.271 190.952 305.695 205.317C287.428 227.986 257.828 246.238 233.389 260.166C209.629 273.714 178.775 288.71 151.822 287.817C134.107 287.234 130.737 258.363 126.958 244.26C121.543 224.211 114.343 206.245 98.8771 192.609C83.1351 178.728 64.5806 172.187 45.0758 166.463C35.0636 163.545 23.6425 161.27 14.6858 155.376C4.78967 148.964 4.56312 140.24 3.56853 128.874Z" stroke="#FFCA49" stroke-width="1.935"/>
<path fill-rule="evenodd" clip-rule="evenodd" d="M21.2477 111.829C21.3909 86.2817 26.9259 59.0388 43.3384 39.3324C57.0081 22.9181 78.4049 17.4312 91.4909 0.651136C101.856 -12.6336 107.132 -31.2833 114.072 -46.7105C122.559 -65.6157 134.56 -98.6416 155.665 -105.203C176.263 -111.59 194.482 -75.2134 202.38 -60.8197C213.946 -39.7139 223.308 -17.3425 234.979 3.7052C244.121 20.2182 255.302 30.861 270.189 41.5039C287.664 54.0048 312.046 67.8527 321.381 88.5346C328.111 103.509 311.82 127.436 305.905 140.628C301.94 149.489 298.31 158.488 296.316 168.092C294.763 175.57 294.609 182.491 290.109 188.913C278.78 205.066 253.941 207.174 237.088 212.498C214.706 219.564 190.957 227.594 167.533 229.127C153.137 230.085 145.79 216.086 137.572 206.239C127.863 194.597 114.116 186.225 102.109 177.44C86.2642 165.827 69.0201 158.604 51.1812 151.207C43.1346 147.869 33.6837 144.594 27.4492 137.957C20.9393 131.077 21.1981 121.05 21.2477 111.829Z" stroke="#FFCA49" stroke-width="1.935"/>
<path fill-rule="evenodd" clip-rule="evenodd" d="M39.816 96.6626C42.6608 75.2062 51.5259 54.6988 66.4997 39.5308C77.9781 27.8855 93.222 21.3292 102.434 7.33739C111.018 -5.70534 117 -20.5356 124.09 -34.4809C131.594 -49.2238 142.741 -73.8652 160.047 -77.877C178.698 -82.1974 193.065 -57.3405 201.021 -43.5642C211.071 -26.1544 218.707 -7.42303 227.693 10.5864C234.463 24.0097 243.099 36.2861 253.313 47.0071C264.025 58.3089 278.552 69.1332 283.972 84.6738C288.763 98.4385 279.798 115.091 278.216 129.048C276.523 143.96 279.49 159.623 270.106 172.427C250.755 198.833 202.19 193.936 174.425 194.501C147.03 195.083 125.005 178.925 102.837 163.553C88.194 153.404 72.9446 144.81 57.9322 135.354C42.6277 125.706 37.313 115.545 39.816 96.6626Z" stroke="#FFCA49" stroke-width="1.935"/>
<path fill-rule="evenodd" clip-rule="evenodd" d="M57.0671 84.3822C65.4797 53.298 91.7548 36.7768 110.538 13.2859C125.907 -5.94503 137.431 -45.7706 163.315 -51.0387C192.701 -57.0178 210.293 -4.24919 220.51 16.1123C231.846 38.6941 252.037 57.0626 260.433 80.9673C264.846 93.514 261.056 105.222 258.706 117.762C256.13 131.533 254.194 145.612 245.301 156.696C227.797 178.509 193.611 178.357 168.991 178.958C143.505 179.581 120.959 164.634 100.653 149.715C79.1165 133.916 48.4503 116.259 57.0671 84.3822Z" stroke="#FFCA49" stroke-width="1.935"/>
<path fill-rule="evenodd" clip-rule="evenodd" d="M71.1574 75.9533C80.6369 53.8068 100.557 35.8022 116.721 18.8056C130.213 4.63597 144.726 -23.8886 165.297 -25.922C189.473 -28.3203 204.126 2.13919 213.639 20.8158C223.002 39.1679 236.493 58.5454 241.677 78.6876C247.084 99.6697 232.687 127.928 218.956 142.775C203.643 159.332 178.588 165.449 157.09 164.789C134.58 164.117 113.926 150.434 96.8788 136.241C78.6532 121.069 60.1332 101.663 71.1574 75.9533Z" stroke="#FFCA49" stroke-width="1.935"/>
<path fill-rule="evenodd" clip-rule="evenodd" d="M84.2322 71.7834C93.2871 53.3634 108.983 37.7813 123.455 23.8821C134.624 13.1516 151.104 -5.0943 167.217 -5.54116C184.943 -6.03445 199.966 9.28074 207.013 24.979C213.96 40.4624 221.279 59.8748 222.319 76.8614C224.578 113.852 178.602 155.289 144.079 151.917C111.347 148.719 66.178 108.484 84.2322 71.7834Z" stroke="#FFCA49" stroke-width="1.935"/>
<path fill-rule="evenodd" clip-rule="evenodd" d="M96.3229 69.7524C108.815 45.7526 139.157 11.5377 167.248 10.7251C199.492 9.79645 207.587 47.8711 203.384 75.4637C199.114 103.625 161.939 144.387 132.297 138.879C103.367 133.504 81.5185 98.2156 96.3229 69.7524Z" stroke="#FFCA49" stroke-width="1.935"/>
<path fill-rule="evenodd" clip-rule="evenodd" d="M109.09 65.8722C119.666 45.7776 142.235 20.6782 165.774 19.9184C193.822 19.0195 193.293 51.1652 186.933 71.1728C180.319 91.946 151.191 127.426 126.633 121.824C102.752 116.355 98.9546 85.1318 109.09 65.8722Z" stroke="#FFCA49" stroke-width="1.935"/>
<path fill-rule="evenodd" clip-rule="evenodd" d="M120.21 63.559C127.191 49.2205 144.663 31.0983 161.273 30.5185C181.575 29.8215 177.629 55.3179 172.383 67.6239C166.148 82.2669 145.249 107.711 127.711 103.587C110.443 99.5281 114.45 75.373 120.21 63.559Z" stroke="#FFCA49" stroke-width="1.935"/>
<path fill-rule="evenodd" clip-rule="evenodd" d="M1075.25 882.807C1030.32 911.574 979.518 935.32 931.614 959.456C861.608 994.724 790.57 1029.04 717.012 1055.31C677.575 1069.4 626.471 1089.7 584.155 1078.66C568.683 1074.63 554.574 1062.44 540.702 1054.51C521.573 1043.58 502.163 1033.2 482.786 1022.79C443.917 1001.92 404.926 981.265 366.724 959.061C348.329 948.366 330.48 934.896 311.329 925.772C300.138 920.436 286.746 922.932 274.788 923.27C247.088 924.055 219.404 925.545 191.721 926.814C157.859 928.361 123.921 930.008 90.0212 929.397C74.7316 929.118 37.2852 931.981 28.8682 918.086C24.3397 910.603 35.0127 897.109 39.9603 890.866C49.0447 879.391 59.4861 869.051 69.7895 858.816C93.6175 835.146 118.924 812.604 140.104 786.164C150.987 772.571 165.245 755.965 158.141 737.409C150.97 718.667 138.549 702.438 130.97 683.76C122.244 662.266 118.626 639.899 114.506 617.107C111.455 600.262 104.351 585.337 97.6715 569.806C90.2915 552.641 82.6466 535.331 77.5225 517.229C74.1358 505.271 68.6698 483.759 80.5176 476.189C97.3516 465.425 128.918 474.141 148.107 477.312C174.627 481.688 200.954 487.262 227.402 492.063C246.602 495.554 265.869 499.383 285.389 499.79C316.856 500.447 348.428 498.172 379.813 496.054C437.927 492.132 495.624 486.814 553.934 486.814C605.02 486.814 723.074 549.173 750.708 560.153C805.866 582.072 862.49 602.851 914.686 632.014C928.806 639.91 950.538 650.431 957.968 666.682C962.551 676.696 960.444 682.486 971.255 688.939C986.004 697.743 1004.9 701.199 1021.23 705.138C1047.52 711.48 1074.02 716.851 1100.43 722.594C1153.86 734.179 1206.92 747.283 1260.13 759.892C1276.21 763.703 1295.67 764.547 1311 771.262C1320.89 775.574 1319.86 781.002 1312.21 787.554C1298.79 799.052 1279.98 805.435 1264.13 811.993C1240.9 821.6 1217.3 830.171 1193.68 838.619C1170.06 847.068 1146.32 855.255 1122.69 863.721C1107.08 869.296 1089.28 873.828 1075.25 882.807Z" stroke="#FFCA49" stroke-width="1.935"/>
<path fill-rule="evenodd" clip-rule="evenodd" d="M1038.28 876.48C990.743 905.306 937.979 928.27 887.113 950.675C822.013 979.367 755.441 1006.26 686.849 1024.19C646.575 1034.72 599.058 1046.34 557.907 1034.27C543.226 1029.96 532.259 1020.28 519.675 1011.74C505.331 1001.99 490.435 993.061 475.539 984.268C444.876 966.169 413.889 948.688 382.579 931.825C365.995 922.857 347.739 910.847 329.004 907.736C314.108 905.259 297.188 908.843 282.226 909.886C255.281 911.762 228.342 913.697 201.386 915.34C170.282 917.234 139.089 918.982 107.918 918.679C90.5456 918.51 60.7211 921.301 48.4349 909.455C37.7155 899.118 76.7422 861.731 83.6053 854.628C105.039 832.451 127.581 811.333 147.53 787.617C159.32 773.632 173.675 756.623 178.646 738.088C182.877 722.291 174.712 704.291 169.89 689.688C163.86 671.397 158.994 652.436 151.988 634.53C145.748 618.575 135.817 604.363 127.095 589.86C117.501 573.905 107.786 557.688 100.664 540.283C96.2997 529.573 89.0781 511.637 97.7507 501.428C107.769 489.658 138.653 497.35 151.348 499.028C177.101 502.477 202.655 507.605 228.232 512.197C270.712 519.819 311.212 526.485 354.47 524.888C410.803 522.802 467.082 517.896 523.404 515.18C544.203 514.166 565.333 512.127 586.148 513.228C598.081 513.863 607.168 517.709 614.108 526.386C623.586 538.226 645.416 544.782 660.599 551.576C684.272 562.164 708.243 572.011 732.148 581.987C784.625 603.897 838.112 625.014 887.88 653.351C903.625 662.313 921.655 672.306 933.301 687.113C939.8 695.37 938.161 703.324 942.128 712.099C947.38 723.642 964.648 728.852 974.97 732.628C994.892 739.923 1015.63 744.812 1036.21 749.392C1082.77 759.752 1129.44 766.564 1176.76 771.581C1187.85 772.747 1231.52 776.785 1208.58 796.247C1183.25 817.755 1146.66 828.296 1116.83 840.416C1089.95 851.313 1063.06 861.452 1038.28 876.48Z" stroke="#FFCA49" stroke-width="1.935"/>
<path fill-rule="evenodd" clip-rule="evenodd" d="M972.585 871.149C927.905 896.509 878.409 915.429 830.288 933.528C771.895 955.491 712.038 975.068 650.795 986.035C612.323 992.917 569.907 998.206 531.694 986.768C505.599 978.96 485.413 957.853 462.493 943.331C439.573 928.81 415.725 915.178 391.165 903.816C375.922 896.765 359.524 889.661 342.564 890.592C301.324 892.849 260.135 898.231 218.851 900.843C191.541 902.589 164.175 904.026 136.782 903.595C120.263 903.339 97.5692 904.386 82.9446 895.217C66.7792 885.077 152.853 798.495 160.988 788.75C181.384 764.315 206.083 731.886 202.139 697.135C198.367 663.915 182.019 639.114 163.529 613.084C153.035 598.278 119.385 558.722 131.855 539.465C138.98 528.457 162.463 532.268 173.619 533.018C195.606 534.496 217.471 537.673 239.341 540.43C271.23 544.427 303.998 550.6 336.025 552.41C358.326 553.666 380.76 551.985 403.1 551.95C435.132 551.903 467.165 552.159 499.198 552.462C526.094 552.718 553.217 552.462 580.019 555.185C596.682 556.86 609.329 560.624 621.281 571.26C631.68 580.51 647.371 585.926 660.626 591.808C682.518 601.518 704.698 610.519 726.806 619.664C773.093 638.817 819.911 657.568 864.215 681.503C884.44 692.423 918.444 707.712 923.188 734.19C924.901 743.737 926.16 747.862 934.996 753.29C947.539 760.993 962.561 764.466 976.633 767.485C1009.44 774.525 1043.19 773.472 1075.95 780.43C1089.28 783.298 1106.7 789.489 1091.47 803.661C1073.7 820.236 1047.84 829.347 1026.55 839.587C1015.93 844.695 1004.98 849.477 994.892 855.714C987.143 860.519 980.51 866.681 972.585 871.149Z" stroke="#FFCA49" stroke-width="1.935"/>
<path fill-rule="evenodd" clip-rule="evenodd" d="M887.961 863.231C846.682 883.829 801.852 898.805 757.827 912.305C708.928 927.281 658.848 939.685 608.107 944.963C573.07 948.62 535.74 949.699 501.734 938.507C480.229 931.428 465.649 916.539 447.144 904.053C419.215 885.181 388.997 870.229 355.444 873.868C317.826 877.938 280.085 880.992 242.222 883.03C219.382 884.26 196.454 885.182 173.587 884.324C159.129 883.788 140.502 882.884 127.924 875.973C111.095 866.718 174.309 796.293 182.189 786.029C201.731 760.574 216.057 733.864 224.427 702.326C231.254 676.59 217.309 656.36 202.922 637.109C193.978 625.154 165.079 595.085 174.127 579.561C179.09 571 195.445 571.443 204.229 571.005C220.97 570.177 237.783 571.04 254.524 571.42C279.244 572.003 305.557 567.996 330.067 571.221C384.387 578.359 438.569 584.541 493.226 589.434C523.355 592.128 553.666 594.578 583.525 599.774C594.245 601.64 605.317 603.617 615.474 607.839C622.008 610.551 625.571 615.17 631.085 618.96C657.376 637.004 691.696 646.288 721.307 657.853C760.673 673.225 800.248 688.359 838.566 706.519C858.72 716.071 886.869 727.047 900.738 746.542C904.928 752.432 903.142 757.145 905.777 762.807C908.81 769.339 918.024 771.287 923.974 773.106C937.478 777.241 994.004 783.493 967.955 807.747C955.526 819.3 939.689 826.712 925.678 835.792C920.605 839.081 915.659 842.388 911.429 846.826C904.355 854.267 897.385 858.513 887.961 863.231Z" stroke="#FFCA49" stroke-width="1.935"/>
<path fill-rule="evenodd" clip-rule="evenodd" d="M797.793 854.312C716.303 887.637 620.801 910.341 531.956 905.942C502.412 904.474 470.623 899.574 445.013 882.807C429.912 872.903 417.844 861.723 399.704 858.146C386.608 855.565 372.507 858.495 359.334 859.556C340.255 861.094 321.164 862.469 302.057 863.582C278.369 864.939 254.604 865.988 230.872 865.428C213.915 865.026 190.498 865.481 175.767 855.868C158.179 844.402 202.947 790.617 209.246 781.033C224.512 757.805 235.215 735.299 239.083 707.305C240.221 699.149 244.056 690.789 243.559 682.568C243.04 674.173 238.138 666.698 233.613 660.097C227.695 651.446 207.162 630.927 213.042 620.376C216.291 614.55 228.485 613.816 234.806 612.581C246.664 610.25 258.693 608.998 270.623 607.145C290.863 603.987 310.959 593.704 331.271 593.996C385.89 594.765 441.3 612.639 494.825 622.456C526.646 628.311 558.683 633.624 590.118 641.553C600.064 644.064 610.308 646.663 619.762 650.921C626.359 653.893 630.598 659.188 636.709 662.515C660.142 675.291 687.09 683.046 712.253 691.645C744.92 702.831 777.697 713.679 810.137 725.587C830.471 733.05 856.618 739.616 874.139 753.459C886.936 763.567 878.189 766.591 871.437 776.005C867.989 780.806 868.785 785.537 867.288 790.972C865.149 798.732 859.104 804.32 853.435 809.342C845.617 816.28 835.201 821.996 828.808 830.502C826.554 833.496 826.659 837.213 824.835 839.823C819.531 847.426 805.457 851.178 797.793 854.312Z" stroke="#FFCA49" stroke-width="1.935"/>
<path fill-rule="evenodd" clip-rule="evenodd" d="M711.152 842.44C645.014 863.392 571.424 875.321 501.513 869.785C477.189 867.856 452.716 863.374 430.057 853.531C419.749 849.066 412.01 844.089 400.714 843.821C374.504 843.203 348.211 845.366 322.006 845.884C303.252 846.257 284.405 846.391 265.696 844.8C253.187 843.74 236.27 842.469 226.022 834.374C211.13 822.584 238.013 782.505 243.485 771.432C252.553 753.068 261.549 732.653 257.952 711.404C256.849 704.906 254.897 699.165 254.643 692.539C254.4 686.845 255.079 681.588 253.165 676.145C250.799 669.396 240.275 658.923 243.893 652.711C246.358 648.468 253.672 648.27 258.537 646.912C266.427 644.71 274.132 641.821 281.57 638.275C289.403 634.522 296.071 628.723 304.185 625.622C317.356 620.599 332.099 620.127 345.944 620.149C401.183 620.243 457.123 631.742 510.961 643.765C538.997 650.024 567.188 656.697 594.435 666.191C602.708 669.076 612.085 671.972 619.36 677.299C623.9 680.615 626.977 684.77 632.135 687.265C676.188 708.56 727.12 716.469 773.887 731.849C786.06 735.852 853.522 756.081 818.249 775.11C796.821 786.672 774.179 791.929 754.626 807.746C748.669 812.554 744.698 816.535 742.37 823.872C740.837 828.756 744.527 826.279 739.375 831.384C733.126 837.521 718.857 839.998 711.152 842.44Z" stroke="#FFCA49" stroke-width="1.935"/>
<path fill-rule="evenodd" clip-rule="evenodd" d="M642.383 830.051C564.95 847.152 482.949 847.966 404.293 832.805C384.465 828.988 363.829 829.9 343.757 828.93C324.255 828 289.582 829.935 275.417 814.112C265.146 802.641 276.291 778.265 280.146 765.434C285.058 749.088 289.35 732.202 281.286 716.327C276.562 707.03 270.091 698.18 265.025 688.969C262.602 684.571 257.613 677.83 259.693 673.664C263.133 666.789 279.228 663.896 287.038 660.653C311.999 650.292 338.431 647.648 365.118 647.722C414.409 647.858 463.955 654.97 512.307 664.616C534.552 669.056 557.107 673.791 578.562 681.508C590.702 685.872 599.656 694.292 611.249 699.284C648.577 715.368 688.682 723.962 726.652 738.67C737.642 742.929 778.692 757.107 758.012 773.825C737.99 790.009 708.787 788.085 687.969 803.31C685.613 805.053 682.698 807.139 681.332 809.957C680.524 811.642 681.946 814.85 681.332 815.809C674.938 826.228 652.211 827.884 642.383 830.051Z" stroke="#FFCA49" stroke-width="1.935"/>
</g>
</svg>
