<svg width="32" height="32" viewBox="0 0 32 32" fill="none" xmlns="http://www.w3.org/2000/svg">
<path d="M22.9016 11.5511C24.9594 13.0274 27.4803 13.8959 30.203 13.8959V8.63798C29.6878 8.63809 29.1738 8.58417 28.6697 8.47698V12.6157C25.9472 12.6157 23.4266 11.7472 21.3683 10.271V21.001C21.3683 26.3687 17.0324 30.7197 11.6841 30.7197C9.68855 30.7197 7.83375 30.1143 6.29297 29.0759C8.05152 30.8804 10.5039 31.9998 13.2171 31.9998C18.5657 31.9998 22.9018 27.6488 22.9018 22.2809V11.5511H22.9016ZM24.7932 6.2465C23.7415 5.09347 23.051 3.6034 22.9016 1.95607V1.27979H21.4486C21.8143 3.37355 23.0619 5.16233 24.7932 6.2465ZM9.67575 24.9569C9.08818 24.1838 8.77067 23.238 8.77209 22.2655C8.77209 19.8105 10.7553 17.82 13.202 17.82C13.658 17.8199 14.1113 17.89 14.5458 18.0283V12.6529C14.038 12.583 13.5255 12.5534 13.0131 12.5642V16.7482C12.5783 16.6099 12.1248 16.5396 11.6687 16.54C9.22195 16.54 7.23885 18.5303 7.23885 20.9856C7.23885 22.7217 8.23013 24.2247 9.67575 24.9569Z" fill="#FF004F"/>
<path d="M21.3686 10.2709C23.427 11.7471 25.9475 12.6156 28.67 12.6156V8.47688C27.1503 8.15202 25.805 7.35504 24.7935 6.2465C23.0621 5.16222 21.8147 3.37344 21.4489 1.27979H17.6321V22.2807C17.6235 24.7289 15.6437 26.7113 13.2022 26.7113C11.7634 26.7113 10.4853 26.0231 9.67577 24.9569C8.23025 24.2247 7.23897 22.7216 7.23897 20.9857C7.23897 18.5307 9.22207 16.5401 11.6688 16.5401C12.1376 16.5401 12.5894 16.6134 13.0133 16.7484V12.5643C7.75895 12.6733 3.5332 16.9818 3.5332 22.2808C3.5332 24.9259 4.58551 27.3239 6.29342 29.076C7.8342 30.1143 9.689 30.7198 11.6846 30.7198C17.0329 30.7198 21.3687 26.3686 21.3687 21.001V10.2709H21.3686Z" fill="black"/>
<path d="M28.6701 8.47707V7.35798C27.2997 7.36007 25.9562 6.97492 24.7935 6.24658C25.8228 7.37742 27.1781 8.15716 28.6701 8.47707ZM21.4489 1.27998C21.414 1.07988 21.3872 0.878468 21.3686 0.676285V0H16.0987V21.0011C16.0903 23.449 14.1106 25.4314 11.6688 25.4314C10.952 25.4314 10.2752 25.2606 9.6758 24.9572C10.4853 26.0233 11.7635 26.7114 13.2022 26.7114C15.6435 26.7114 17.6236 24.7292 17.6321 22.281V1.27998H21.4489ZM13.0135 12.5645V11.3732C12.5732 11.3128 12.1292 11.2825 11.6847 11.2827C6.33589 11.2826 2 15.6339 2 21.0011C2 24.366 3.70408 27.3316 6.29356 29.076C4.58565 27.324 3.53334 24.9259 3.53334 22.2808C3.53334 16.982 7.75898 12.6735 13.0135 12.5645Z" fill="#00F2EA"/>
</svg>
